<svg width="3000" height="3000" viewBox="0 0 3000 3000" fill="none" xmlns="http://www.w3.org/2000/svg">
<path d="M265.77 1565.04C42.1915 2535.42 868.104 2881.52 868.104 2881.52C868.104 2881.52 1146.2 2030.29 265.77 1565.04Z" fill="#321C14"/>
<path d="M846.149 2411.49C846.383 2410.97 846.149 2410.36 845.627 2410.12C845.111 2409.89 844.499 2410.12 844.265 2410.65L751.841 2617.49L573.593 2227.9L666.761 2019.4C666.995 2018.88 666.761 2018.28 666.239 2018.04C665.717 2017.8 665.111 2018.04 664.877 2018.56L572.453 2225.4L361.247 1763.78C360.299 1761.7 357.851 1760.8 355.775 1761.75C353.705 1762.69 352.787 1765.14 353.741 1767.22L489.341 2063.59L272.399 1998.29C271.853 1998.12 271.277 1998.43 271.115 1998.98C270.947 1999.53 271.259 2000.1 271.805 2000.26L490.481 2066.08L668.729 2455.67L451.787 2390.37C451.241 2390.2 450.665 2390.51 450.503 2391.06C450.341 2391.61 450.647 2392.18 451.193 2392.35L669.869 2458.17L696.137 2515.58L479.195 2450.28C478.649 2450.12 478.073 2450.42 477.911 2450.97C477.743 2451.52 478.055 2452.09 478.601 2452.26L697.277 2518.08L895.686 2951.73C896.634 2953.8 899.081 2954.71 901.157 2953.76C903.233 2952.81 904.145 2950.36 903.191 2948.29L768.803 2654.56L861.965 2446.06C862.199 2445.54 861.965 2444.94 861.443 2444.7C860.927 2444.47 860.309 2444.7 860.081 2445.22L767.657 2652.07L752.981 2619.99L846.149 2411.49Z" fill="#321C14"/>
<path d="M2819.57 1888.91C2783.69 2775.85 1992.17 2879.29 1992.17 2879.29C1992.17 2879.29 1953.16 2081.98 2819.57 1888.91Z" fill="#321C14"/>
<path d="M2121.54 2480.29C2121.46 2479.8 2121.8 2479.32 2122.31 2479.24C2122.8 2479.17 2123.28 2479.51 2123.36 2480.01L2154.2 2679.59L2399.06 2386.51L2367.97 2185.33C2367.89 2184.83 2368.23 2184.36 2368.73 2184.28C2369.24 2184.19 2369.7 2184.54 2369.78 2185.05L2400.63 2384.62L2690.75 2037.35C2692.06 2035.79 2694.38 2035.58 2695.94 2036.88C2697.5 2038.18 2697.71 2040.51 2696.41 2042.07L2510.14 2265.02L2712.03 2259.87C2712.54 2259.86 2712.96 2260.26 2712.97 2260.77C2712.98 2261.28 2712.58 2261.7 2712.08 2261.71L2508.58 2266.9L2263.72 2559.98L2465.61 2554.83C2466.12 2554.82 2466.54 2555.22 2466.55 2555.73C2466.56 2556.24 2466.16 2556.66 2465.66 2556.67L2262.16 2561.86L2226.07 2605.05L2427.96 2599.9C2428.47 2599.89 2428.89 2600.29 2428.9 2600.8C2428.91 2601.31 2428.51 2601.73 2428.01 2601.74L2224.51 2606.93L1951.96 2933.16C1950.66 2934.72 1948.34 2934.93 1946.78 2933.62C1945.22 2932.32 1945.01 2929.99 1946.31 2928.43L2130.92 2707.47L2099.83 2506.29C2099.75 2505.79 2100.1 2505.31 2100.6 2505.24C2101.1 2505.15 2101.57 2505.5 2101.65 2506L2132.49 2705.59L2152.66 2681.45L2121.54 2480.29Z" fill="#321C14"/>
<path d="M758.275 2179.76C758.077 2164.92 756.817 2148.89 754.705 2132.01C745.429 2005.53 732.013 1871.15 712.645 1754.39C712.669 1754.33 712.723 1754.3 712.741 1754.24L723.361 1704.97C733.609 1699.79 817.087 1653.62 759.985 1551.05C664.075 1614.51 712.825 1691.96 721.159 1703.85L711.607 1748.18C697.303 1663.34 679.801 1588.16 658.405 1532.57C662.503 1523.43 699.439 1433.61 589.255 1390.09C555.433 1499.58 641.503 1528.77 655.951 1532.84C704.755 1659.11 733.303 1887.63 749.923 2100.24C724.045 1951.27 645.895 1756.66 626.821 1710.5C629.077 1698.06 642.007 1605.01 526.705 1588.22C518.845 1703.64 611.131 1711.35 624.805 1711.86C645.589 1762.22 733.549 1981.64 752.353 2132.4C770.119 2374.85 772.657 2588.25 772.705 2592.43C772.711 2593.08 773.245 2593.61 773.899 2593.61H773.911C774.571 2593.6 775.099 2593.06 775.093 2592.4C775.051 2588.49 772.831 2402.29 758.077 2180.26C758.155 2180.09 758.281 2179.95 758.275 2179.76Z" fill="#D07634"/>
<path d="M2241.3 2453.82C2243.46 2439.15 2246.84 2423.42 2251.17 2406.98C2277.14 2282.85 2308.27 2151.44 2342.96 2038.28C2342.95 2038.22 2342.9 2038.17 2342.89 2038.11L2338.9 1987.87C2329.43 1981.38 2252.82 1924.55 2323.02 1830.45C2409.66 1906.07 2351.07 1976.37 2341.22 1987.05L2344.81 2032.26C2370.25 1950.06 2397.57 1877.87 2426.15 1825.61C2423.3 1816.01 2398.61 1722.09 2513.6 1693.56C2532.59 1806.57 2443.41 1824.08 2428.55 1826.21C2363.42 1944.87 2304.81 2167.59 2260.12 2376.11C2305.54 2231.9 2408.82 2049.38 2433.85 2006.15C2433.26 1993.53 2432.8 1899.58 2549.3 1898.24C2541.77 2013.69 2449.28 2009.09 2435.66 2007.77C2408.38 2054.92 2292.08 2260.74 2253.44 2407.66C2203.67 2645.61 2172.83 2856.78 2172.24 2860.92C2172.14 2861.57 2171.55 2862.02 2170.9 2861.93H2170.89C2170.24 2861.84 2169.79 2861.24 2169.88 2860.58C2170.44 2856.72 2197.34 2672.45 2241.43 2454.34C2241.37 2454.17 2241.27 2454.02 2241.3 2453.82Z" fill="#CE7233"/>
<path d="M2322.41 2252.88C2322.41 2252.88 2221.82 1788.34 2108.79 1669.66C1995.76 1550.98 1782.41 1516.56 1782.41 1516.56H1217.59C1217.59 1516.56 1004.24 1550.98 891.209 1669.66C778.181 1788.34 677.585 2252.88 677.585 2252.88C677.585 2252.88 749.921 2315.05 904.769 2315.05L841.475 3000H2158.52L2095.23 2315.05C2250.08 2315.05 2322.41 2252.88 2322.41 2252.88Z" fill="#E28E64"/>
<path d="M1828.42 1997.44C1827.2 1997.39 1826.15 1998.31 1826.09 1999.52L1807.87 2315.3L1794.6 2088.86C1794.53 2087.65 1793.5 2086.71 1792.26 2086.79C1791.04 2086.86 1790.11 2087.9 1790.18 2089.13L1805.68 2353.57C1805.74 2354.74 1806.71 2355.65 1807.88 2355.65C1809.06 2355.65 1810.03 2354.74 1810.09 2353.56L1830.5 1999.78C1830.58 1998.56 1829.65 1997.51 1828.42 1997.44Z" fill="#C93227"/>
<path d="M1537.7 2252.54C1621.39 2280.57 1699.4 2283.33 1700.18 2283.35L1703.42 2283.45L1702.34 2280.39C1700.92 2276.42 1559.6 1880.88 1486.04 1754.02C1467.11 1721.37 1442.51 1709.25 1416.8 1719.91C1384.46 1733.31 1353.26 1781.58 1335.37 1845.87C1315.4 1917.67 1314.63 1995.65 1333.21 2065.44C1361.84 2173.05 1460.21 2226.58 1537.7 2252.54ZM1418.48 1724.01C1424.09 1721.69 1429.6 1720.53 1434.98 1720.53C1452.4 1720.53 1468.5 1732.62 1482.2 1756.25C1552.09 1876.78 1683.55 2241.17 1697.04 2278.77C1663.75 2276.89 1388.35 2255.46 1337.47 2064.32C1296.88 1911.81 1357.45 1749.29 1418.48 1724.01Z" fill="#EA8457"/>
<path d="M1129.42 2104.63C1169.85 2089.39 1191.38 2071.47 1195.22 2049.85C1202.59 2008.42 1144.79 1958.49 1071.61 1895.28C1004.62 1837.41 926.783 1770.13 874.421 1689.9C873.485 1691.17 872.555 1692.46 871.625 1693.77C924.287 1773.85 1001.87 1840.9 1068.71 1898.63C1140.83 1960.92 1197.79 2010.13 1190.86 2049.07C1187.32 2069.02 1166.71 2085.84 1127.86 2100.49C988.823 2152.88 910.397 2066.34 834.551 1982.65C813.119 1959.01 792.155 1935.95 770.375 1916.79C769.859 1918.3 769.343 1919.83 768.833 1921.35C789.959 1940.12 810.395 1962.59 831.275 1985.63C889.355 2049.71 953.555 2120.58 1048.34 2120.56C1073.12 2120.56 1100.02 2115.71 1129.42 2104.63Z" fill="#EA8457"/>
<path d="M1780.31 1949.34C1827.42 1943.61 1867.91 1864.2 1914.81 1772.25C1945.12 1712.82 1977.54 1649.31 2015.21 1598.55C2013.92 1597.82 2012.63 1597.08 2011.34 1596.36C1973.57 1647.35 1941.17 1710.81 1910.87 1770.24C1864.55 1861.06 1824.55 1939.5 1779.77 1944.95C1762.25 1947.07 1744.85 1937.84 1726.56 1916.72C1656.34 1835.63 1691.5 1674.98 1729.14 1516.56H1724.59C1686.78 1675.73 1651.7 1837.02 1723.21 1919.61C1742.54 1941.94 1761.19 1951.65 1780.31 1949.34Z" fill="#EA8457"/>
<path d="M1443.16 2246.25C1408.1 2238.58 1377.38 2244.44 1351.85 2263.65C1254.38 2337.02 1142.98 2498.97 1046.18 2707.97C998.327 2811.31 960.443 2913.11 936.425 2999.99H940.991C964.943 2913.66 1002.63 2812.54 1050.2 2709.83C1146.7 2501.46 1257.61 2340.13 1354.51 2267.19C1378.97 2248.77 1408.48 2243.18 1442.22 2250.57C1628.54 2291.37 1914.03 2715.9 2086.68 2999.99H2092.15C2049.94 2930.33 2000.96 2852.22 1948.43 2773.61C1732.01 2449.71 1562.02 2272.28 1443.16 2246.25Z" fill="#EA8457"/>
<path d="M2142.16 2035.41C2148.51 1977.81 2177.29 1936.05 2227.62 1910.93C2227.14 1909.52 2226.66 1908.11 2226.17 1906.7C2174.09 1932.47 2144.32 1975.49 2137.76 2034.93C2129.39 2110.71 2160.53 2206.56 2213 2301.49C2214.44 2301.14 2215.89 2300.79 2217.29 2300.43C2164.94 2206.02 2133.85 2110.7 2142.16 2035.41Z" fill="#EA8457"/>
<path d="M1461.33 2843.17C1434.05 2830.3 1409.65 2831.41 1390.76 2846.36C1360.21 2870.55 1346.36 2929.14 1352.41 3000H1356.82C1350.76 2930.46 1363.99 2873.2 1393.51 2849.83C1411.24 2835.8 1433.42 2834.91 1459.44 2847.18C1523.65 2877.46 1563.8 2937.08 1588.91 3000H1593.59C1568.17 2935.6 1527.25 2874.26 1461.33 2843.17Z" fill="#EA8457"/>
<path d="M1546.69 2747.78C1370.56 2671.43 1238.43 2839.3 1137.39 3000H1142.63C1242.59 2841.45 1372.9 2677.28 1544.93 2751.84C1657.06 2800.45 1740.74 2897.22 1791.11 3000H1796.41C1796.38 2999.94 1796.35 2999.88 1796.33 2999.83C1739.33 2883.71 1648.34 2791.85 1546.69 2747.78Z" fill="#EA8457"/>
<path d="M1844.77 2217.09L2098.3 2348.19L2095.24 2315.05C2250.08 2315.05 2322.42 2252.88 2322.42 2252.88C2322.42 2252.88 2055.91 2140.27 1844.77 2217.09Z" fill="#D64D43"/>
<path d="M944.627 2164.22C804.803 2145.98 677.585 2252.88 677.585 2252.88C677.585 2252.88 716.225 2286.03 797.363 2303.91L944.627 2164.22Z" fill="#D64D43"/>
<path d="M1782.41 1516.56C1782.41 1516.56 1574.25 2694.82 1239.69 3000H722.022C722.022 3000 614.736 2563.21 800.622 2304.63L860.232 2313.26C860.232 2313.26 797.226 2424.07 764.976 2527.55C764.976 2527.55 989.526 2403.21 1399.44 2527.55C1399.44 2527.55 1648.27 1938.78 1726.55 1516.56H1782.41V1516.56Z" fill="#4E2D62"/>
<path d="M1243.96 2615.98C1232.32 2596.22 1212.57 2583.2 1189.76 2580.26C1016.15 2557.89 888.618 2574.19 812.202 2591.81C776.676 2599.99 752.328 2633.54 755.556 2669.84L771.708 2851.24C775.068 2889.01 807.03 2918.11 844.794 2918.11C845.274 2918.11 845.766 2918.11 846.252 2918.1L1108.16 2912.91C1137.77 2912.33 1163.98 2894.15 1174.91 2866.61L1248.92 2680.16C1257.32 2658.99 1255.51 2635.6 1243.96 2615.98ZM1246.86 2679.35L1172.84 2865.8C1162.24 2892.51 1136.83 2910.13 1108.11 2910.7L846.204 2915.89C808.968 2916.53 777.21 2888.14 773.91 2851.04L757.758 2669.64C754.626 2634.44 778.242 2601.91 812.7 2593.96C862.428 2582.5 933.858 2571.6 1025.62 2571.6C1074.53 2571.6 1129.23 2574.7 1189.49 2582.47C1211.61 2585.32 1230.77 2597.94 1242.06 2617.11C1253.26 2636.13 1255.01 2658.82 1246.86 2679.35Z" fill="white"/>
<path d="M1513.65 2578.13C1521.81 2525.52 1485.77 2476.24 1433.16 2468.08C1380.54 2459.92 1331.27 2495.96 1323.11 2548.57C1314.95 2601.19 1350.98 2650.46 1403.6 2658.62C1456.21 2666.79 1505.49 2630.75 1513.65 2578.13Z" fill="#F9DA93"/>
<path d="M1261.51 1300.82C1261.51 1300.82 1199.72 1223.96 1143.96 1263.15C1088.2 1302.33 1118.34 1527.63 1278.09 1480.16L1261.51 1300.82Z" fill="#D89284"/>
<path d="M1193.98 1298.76C1172.28 1285.35 1152.21 1293.9 1151.36 1294.27C1150.24 1294.77 1149.74 1296.07 1150.22 1297.19C1150.72 1298.31 1152.02 1298.81 1153.14 1298.32C1153.32 1298.24 1171.91 1290.33 1191.65 1302.52C1204.61 1310.53 1219.67 1328.4 1229.61 1367.42L1171.61 1373.59C1170.4 1373.72 1169.51 1374.81 1169.65 1376.02C1169.77 1377.16 1170.73 1378 1171.84 1378C1171.92 1378 1172 1378 1172.08 1377.99L1230.67 1371.76C1235.03 1390.27 1238.27 1413.25 1239.7 1441.83C1239.76 1443.01 1240.74 1443.94 1241.91 1443.94C1241.95 1443.94 1241.99 1443.94 1242.02 1443.94C1243.25 1443.88 1244.18 1442.84 1244.12 1441.62C1240.3 1365.03 1223.42 1316.95 1193.98 1298.76Z" fill="#111338"/>
<path d="M1716.82 1300.82C1716.82 1300.82 1778.61 1223.96 1834.37 1263.15C1890.13 1302.33 1859.99 1527.63 1700.24 1480.16L1716.82 1300.82Z" fill="#D89284"/>
<path d="M1784.36 1298.76C1806.05 1285.35 1826.12 1293.9 1826.97 1294.27C1828.09 1294.77 1828.6 1296.07 1828.11 1297.19C1827.62 1298.31 1826.32 1298.81 1825.19 1298.32C1825.01 1298.24 1806.43 1290.33 1786.69 1302.52C1773.73 1310.53 1758.67 1328.4 1748.72 1367.42L1806.72 1373.59C1807.94 1373.72 1808.81 1374.81 1808.69 1376.02C1808.57 1377.16 1807.61 1378 1806.49 1378C1806.41 1378 1806.34 1378 1806.26 1377.99L1747.66 1371.76C1743.3 1390.27 1740.06 1413.25 1738.63 1441.83C1738.57 1443.01 1737.59 1443.94 1736.42 1443.94C1736.38 1443.94 1736.34 1443.94 1736.3 1443.94C1735.08 1443.88 1734.14 1442.84 1734.2 1441.62C1738.03 1365.03 1754.91 1316.95 1784.36 1298.76Z" fill="#111338"/>
<path d="M1522.57 952.08H1455.76C1343.29 952.08 1251.79 1043.58 1251.79 1156.05V1384.75C1251.79 1497.22 1343.29 1588.71 1455.76 1588.71H1522.57C1635.04 1588.71 1726.54 1497.21 1726.54 1384.75V1156.05C1726.54 1043.58 1635.04 952.08 1522.57 952.08Z" fill="#EAAC9D"/>
<path d="M1896.76 1070.24C1893.74 983.581 1795.79 936.865 1795.79 936.865C1767.16 835.891 1649.6 809.521 1649.6 809.521C1551.65 699.505 1422.04 756.019 1422.04 756.019C1304.5 723.619 1231.4 827.605 1231.4 827.605C1133.45 866.791 1118.15 1006.19 1118.15 1006.19C1068.2 1054.42 1081.61 1110.93 1081.61 1110.93C1080.27 1159.15 1095.77 1198.07 1095.77 1198.07C1082.21 1232.46 1099.54 1252.01 1099.54 1252.01C1102.55 1276.29 1127.76 1284.33 1127.77 1284.34C1131.91 1275.15 1137.32 1267.81 1143.97 1263.14C1186.38 1233.34 1232.25 1270.65 1251.79 1290.23L1253.77 1291.2C1314.17 1290.08 1320.32 1235.26 1320.32 1235.26C1406.22 1238.27 1443.14 1104.9 1443.14 1104.9C1449.17 1135.79 1468.01 1136.55 1468.01 1136.55C1521.51 1202.11 1573.5 1154.63 1573.5 1154.63C1607.41 1166.69 1614.1 1136.55 1614.1 1136.55C1614.77 1250.33 1700.24 1242.04 1700.24 1242.04C1695.88 1278.97 1726.54 1290.23 1726.54 1290.23H1726.55C1746.1 1270.64 1791.96 1233.34 1834.37 1263.14C1838.8 1266.26 1842.69 1270.57 1846.01 1275.81H1846.02C1888.47 1259.9 1882.43 1210.4 1882.43 1210.4C1934.43 1150.11 1896.76 1070.24 1896.76 1070.24Z" fill="#3F2418"/>
<path d="M1875.46 1006C1845.81 960.745 1795.78 936.865 1795.78 936.865C1767.15 835.891 1649.6 809.521 1649.6 809.521C1551.64 699.505 1422.04 756.019 1422.04 756.019C1304.49 723.619 1231.4 827.605 1231.4 827.605C1133.44 866.791 1118.15 1006.19 1118.15 1006.19C1118.15 1006.19 1459.87 979.201 1875.46 1006Z" fill="#301B12"/>
<path d="M914.447 856.218C1019.56 1024 1213.1 958.17 1213.1 958.17C1213.1 958.17 1100.22 787.734 914.447 856.218Z" fill="#45271C"/>
<path d="M1098.29 878.915L1132.95 930.023L1044.67 899.885L1009.54 848.075C1009.4 847.871 1009.08 847.757 1008.83 847.817C1008.59 847.883 1008.5 848.105 1008.64 848.309L1043.3 899.417L975.731 876.353C975.179 876.167 974.621 876.329 974.489 876.719C974.357 877.109 974.693 877.577 975.245 877.769L1069.26 909.863L1010.59 929.111C1010.35 929.189 1010.28 929.417 1010.44 929.621C1010.59 929.825 1010.91 929.927 1011.15 929.849L1070.63 910.337L1158.91 940.475L1100.24 959.723C1100 959.801 1099.93 960.029 1100.09 960.233C1100.24 960.437 1100.56 960.539 1100.8 960.461L1160.28 940.949L1230 964.751C1230.55 964.937 1231.11 964.775 1231.24 964.385C1231.37 963.995 1231.04 963.527 1230.49 963.335L1134.31 930.503L1099.18 878.693C1099.04 878.483 1098.72 878.369 1098.47 878.435C1098.24 878.489 1098.16 878.705 1098.29 878.915Z" fill="#45271C"/>
<path d="M1914.86 651.525C1760.02 758.451 1830.74 939.417 1830.74 939.417C1830.74 939.417 1987.78 825.003 1914.86 651.525Z" fill="#45271C"/>
<path d="M1901.12 827.049L1854.07 862.125L1878.94 777.027L1926.64 741.465C1926.83 741.321 1926.92 741.021 1926.85 740.787C1926.78 740.553 1926.56 740.487 1926.38 740.625L1879.33 775.701L1898.36 710.571C1898.51 710.037 1898.33 709.521 1897.96 709.407C1897.58 709.299 1897.15 709.641 1897 710.169L1870.51 800.799L1849.75 745.905C1849.66 745.683 1849.45 745.629 1849.26 745.785C1849.07 745.941 1848.99 746.247 1849.07 746.469L1870.12 802.119L1845.26 887.217L1824.49 832.323C1824.41 832.101 1824.19 832.047 1824.01 832.203C1823.82 832.359 1823.74 832.665 1823.82 832.887L1844.87 888.537L1825.24 955.749C1825.08 956.283 1825.26 956.799 1825.64 956.913C1826.02 957.021 1826.45 956.685 1826.6 956.151L1853.69 863.445L1901.39 827.883C1901.59 827.739 1901.68 827.439 1901.61 827.205C1901.53 826.977 1901.31 826.905 1901.12 827.049Z" fill="#45271C"/>
<path d="M1770.57 706.822C1708.43 628.24 1483.83 629.446 1483.83 629.446C1483.83 629.446 1259.23 628.24 1197.09 706.822C1134.95 785.404 1093.26 958.198 1093.26 958.198H1483.83H1874.4C1874.4 958.198 1832.71 785.41 1770.57 706.822Z" fill="#E09881"/>
<path d="M1363.93 638.646C1363.11 638.766 1362.28 638.898 1361.45 639.024C1342.42 692.598 1304.65 815.37 1299.27 958.206H1301.48C1306.9 814.674 1345.1 691.452 1363.93 638.646Z" fill="#F9DA93"/>
<path d="M1261.51 664.108C1230.64 713.212 1180.01 811.81 1156.36 958.204H1158.59C1182.65 809.716 1234.46 710.692 1264.98 662.77C1263.82 663.214 1262.66 663.652 1261.51 664.108Z" fill="#F9DA93"/>
<path d="M1484.93 958.203V629.445C1484.23 629.445 1483.83 629.445 1483.83 629.445C1483.83 629.445 1483.43 629.445 1482.72 629.445V958.203H1483.83H1484.93Z" fill="#F9DA93"/>
<path d="M1706.32 664.176C1736.95 712.62 1787.99 811.17 1811.8 958.206H1814.04C1790.62 813.276 1740.76 715.17 1709.81 665.58C1708.66 665.106 1707.49 664.638 1706.32 664.176Z" fill="#F9DA93"/>
<path d="M1609.11 639.476C1608.28 639.344 1607.45 639.224 1606.63 639.098C1625.52 692.144 1663.52 815.084 1668.92 958.214H1671.13C1665.76 815.762 1628.18 693.278 1609.11 639.476Z" fill="#F9DA93"/>
<path d="M1483.83 928.707C1220.41 928.707 1006.85 959.715 1006.85 997.965C1006.85 1003.41 1064.68 1051.24 1087.76 1051.32L1118.15 1006.2L1122.45 984.435C1209.92 969.699 1339.33 960.357 1483.83 960.357C1637.41 960.357 1773.98 970.905 1861.21 987.273C1873.78 1001.3 1894.82 1052.84 1894.82 1052.84C1894.82 1052.84 1960.81 1003.41 1960.81 997.971C1960.81 959.715 1747.25 928.707 1483.83 928.707Z" fill="#321C14"/>
<path d="M1800.89 571.791C1655.28 690.999 1740.53 865.587 1740.53 865.587C1740.53 865.587 1887.71 738.741 1800.89 571.791Z" fill="#45271C"/>
<path d="M1801.51 747.852L1757.48 786.648L1775.32 699.804L1819.96 660.474C1820.14 660.318 1820.21 660.006 1820.11 659.784C1820.02 659.562 1819.8 659.508 1819.63 659.664L1775.59 698.46L1789.25 631.992C1789.36 631.452 1789.14 630.948 1788.76 630.864C1788.37 630.786 1787.97 631.158 1787.86 631.704L1768.85 724.194L1743.68 671.178C1743.58 670.962 1743.35 670.926 1743.18 671.1C1743.01 671.268 1742.95 671.58 1743.05 671.796L1768.58 725.544L1750.74 812.388L1725.56 759.372C1725.46 759.156 1725.24 759.12 1725.07 759.294C1724.89 759.462 1724.84 759.774 1724.94 759.99L1750.46 813.738L1736.38 882.324C1736.26 882.864 1736.48 883.368 1736.87 883.452C1737.25 883.53 1737.65 883.158 1737.77 882.612L1757.2 788.004L1801.84 748.668C1802.02 748.512 1802.09 748.2 1802 747.978C1801.9 747.75 1801.69 747.696 1801.51 747.852Z" fill="#45271C"/>
<path d="M1079.33 693.794C1050.13 829.832 1179.91 891.446 1179.91 891.446C1179.91 891.446 1206.49 750.266 1079.33 693.794Z" fill="#45271C"/>
<path d="M1160.87 795.272L1153.3 838.004L1123.57 779.582L1131.24 736.262C1131.27 736.088 1131.17 735.878 1131.01 735.788C1130.86 735.698 1130.71 735.77 1130.67 735.944L1123.1 778.676L1100.35 733.958C1100.17 733.592 1099.81 733.406 1099.55 733.538C1099.29 733.67 1099.23 734.072 1099.42 734.438L1131.08 796.658L1092.08 777.62C1091.93 777.542 1091.78 777.626 1091.76 777.8C1091.74 777.98 1091.85 778.184 1092.01 778.262L1131.54 797.564L1161.27 855.986L1122.28 836.948C1122.12 836.87 1121.98 836.954 1121.95 837.134C1121.93 837.314 1122.04 837.518 1122.2 837.596L1161.73 856.898L1185.21 903.038C1185.4 903.404 1185.76 903.59 1186.01 903.458C1186.27 903.326 1186.33 902.924 1186.15 902.558L1153.76 838.91L1161.43 795.59C1161.46 795.416 1161.35 795.206 1161.2 795.116C1161.05 795.032 1160.9 795.098 1160.87 795.272Z" fill="#45271C"/>
<path d="M1852.22 881.284C1760.37 835.894 1640.55 804.292 1525.5 782.494C1616.28 775.174 1717.49 777.094 1821.15 797.56C1816.86 787.534 1812.34 777.616 1807.62 767.992C1671.67 743.89 1540.88 750.166 1432.26 766.636C1321.64 749.806 1225.04 741.766 1175.84 738.4C1171.03 746.602 1166.38 755.236 1161.91 764.17C1194.86 766.366 1263.35 771.652 1347.46 782.23C1334.77 784.978 1322.53 787.798 1310.84 790.66C1233.01 809.722 1169.58 832.018 1126.36 849.16C1122.23 860.728 1118.44 871.972 1115.02 882.568C1156.53 865.174 1227.91 838.27 1317.87 816.286C1351.34 808.108 1389.18 800.212 1430.37 793.774C1578.07 816.424 1749.9 854.482 1863.2 917.008C1860.12 906.442 1856.45 894.346 1852.22 881.284Z" fill="#321C14"/>
<path d="M1392.94 1342.26C1392.94 1353.07 1384.17 1361.85 1373.35 1361.85C1362.53 1361.85 1353.76 1353.07 1353.76 1342.26C1353.76 1331.44 1362.53 1322.67 1373.35 1322.67C1384.17 1322.67 1392.94 1331.43 1392.94 1342.26Z" fill="#111338"/>
<path d="M1311.88 1273.73C1314.47 1286.34 1338.02 1292.15 1364.48 1286.71C1390.94 1281.28 1410.29 1266.65 1407.7 1254.05C1405.1 1241.44 1381.56 1235.63 1355.1 1241.07C1328.64 1246.51 1309.29 1261.13 1311.88 1273.73Z" fill="#111338"/>
<path d="M1594.51 1342.26C1594.51 1353.07 1603.28 1361.85 1614.1 1361.85C1624.92 1361.85 1633.69 1353.07 1633.69 1342.26C1633.69 1331.44 1624.92 1322.67 1614.1 1322.67C1603.28 1322.67 1594.51 1331.43 1594.51 1342.26Z" fill="#111338"/>
<path d="M1675.57 1273.73C1672.99 1286.34 1649.44 1292.15 1622.98 1286.71C1596.52 1281.28 1577.17 1266.65 1579.76 1254.05C1582.34 1241.44 1605.89 1235.63 1632.35 1241.07C1658.81 1246.51 1678.16 1261.13 1675.57 1273.73Z" fill="#111338"/>
<path d="M1511.83 1424.74L1501.22 1414.69C1500.37 1413.89 1499.03 1413.89 1498.18 1414.69C1494.8 1417.89 1486.57 1423.89 1482.61 1422.12C1480.29 1421.07 1479.14 1416.88 1479.39 1410.33C1480.42 1382.92 1484.92 1372.57 1484.96 1372.47C1485.46 1371.36 1484.97 1370.05 1483.86 1369.55C1482.75 1369.04 1481.44 1369.53 1480.94 1370.64C1480.73 1371.08 1476.04 1381.68 1474.97 1410.17C1474.64 1419 1476.55 1424.22 1480.79 1426.15C1487.12 1429.04 1496 1422.42 1499.66 1419.3L1508.8 1427.96C1509.22 1428.37 1509.77 1428.57 1510.32 1428.57C1510.91 1428.57 1511.49 1428.33 1511.93 1427.88C1512.76 1426.98 1512.72 1425.58 1511.83 1424.74Z" fill="#111338"/>
<path d="M1359.79 1425.24C1359.79 1439.76 1344.88 1451.52 1326.49 1451.52C1308.1 1451.52 1293.19 1439.76 1293.19 1425.24C1293.19 1410.73 1308.1 1398.96 1326.49 1398.96C1344.88 1398.96 1359.79 1410.72 1359.79 1425.24Z" fill="#E2926A"/>
<path d="M1694.27 1425.24C1694.27 1439.76 1679.36 1451.52 1660.97 1451.52C1642.58 1451.52 1627.67 1439.76 1627.67 1425.24C1627.67 1410.73 1642.58 1398.96 1660.97 1398.96C1679.36 1398.96 1694.27 1410.72 1694.27 1425.24Z" fill="#E2926A"/>
<path d="M1548.14 1515.42C1547.85 1514.23 1546.66 1513.52 1545.47 1513.79C1429.16 1542.33 1402.6 1470.8 1401.53 1467.74C1401.13 1466.59 1399.87 1465.98 1398.71 1466.39C1397.56 1466.79 1396.94 1468.05 1397.35 1469.2C1397.57 1469.86 1417.75 1524.79 1495.64 1524.79C1510.43 1524.79 1527.31 1522.81 1546.52 1518.09C1547.71 1517.8 1548.44 1516.61 1548.14 1515.42Z" fill="#111338"/>
<path d="M1827.35 1514.08H1220.8C1207.07 1514.08 1195.91 1525.25 1195.91 1538.97V1925.4C1195.91 1939.13 1207.07 1950.3 1220.8 1950.3H1827.35C1841.08 1950.3 1852.25 1939.13 1852.25 1925.4V1538.97C1852.25 1525.25 1841.09 1514.08 1827.35 1514.08Z" fill="#23133A"/>
<path d="M1372.27 1552.14H1267.16C1255.15 1552.14 1245.38 1561.91 1245.38 1573.92V1602.64C1245.38 1614.65 1255.15 1624.43 1267.16 1624.43H1372.27C1384.28 1624.43 1394.05 1614.65 1394.05 1602.64V1573.92C1394.05 1561.91 1384.28 1552.14 1372.27 1552.14ZM1391.84 1602.64C1391.84 1613.43 1383.05 1622.21 1372.27 1622.21H1267.16C1256.37 1622.21 1247.59 1613.43 1247.59 1602.64V1573.92C1247.59 1563.13 1256.37 1554.35 1267.16 1554.35H1372.27C1383.06 1554.35 1391.84 1563.14 1391.84 1573.92V1602.64Z" fill="white"/>
<path d="M1778.55 1606.93C1793.38 1606.93 1805.39 1594.91 1805.39 1580.09C1805.39 1565.26 1793.38 1553.24 1778.55 1553.24C1763.72 1553.24 1751.71 1565.26 1751.71 1580.09C1751.71 1594.91 1763.72 1606.93 1778.55 1606.93Z" fill="#EAAC9D"/>
<path d="M1823.38 1651.44C1823.38 1660 1816.44 1666.93 1807.88 1666.93C1799.33 1666.93 1792.39 1660 1792.39 1651.44C1792.39 1642.89 1799.33 1635.95 1807.88 1635.95C1816.44 1635.95 1823.38 1642.89 1823.38 1651.44Z" fill="#E28E64"/>
<path d="M1863.19 1629.32H1852.25V1789.68H1863.19C1885.33 1789.68 1903.34 1771.67 1903.34 1749.53V1669.47C1903.34 1647.33 1885.33 1629.32 1863.19 1629.32Z" fill="#482F6B"/>
<path d="M1333.12 1752.93C1333.12 1752.93 1376.08 1699.43 1326.34 1657.23L1167.35 1647.43L1227.25 1612.01C1227.25 1612.01 1350.79 1612.76 1352.51 1571.32C1354.22 1529.88 1305.99 1515.56 1216.32 1516.31C1126.65 1517.07 1027.94 1623.31 1027.94 1623.31L855.683 2179.62L826.685 2190.6C807.599 2198.8 781.073 2211.96 753.251 2231.17C738.005 2296.05 680.495 2567.36 761.201 2658.65C853.133 2762.63 1089.74 2767.15 1143.99 2660.15C1198.24 2553.15 1269.83 1986.51 1226.87 1903.62H1311.26C1311.26 1903.62 1360.25 1895.33 1342.91 1835.8C1342.92 1835.81 1371.55 1782.31 1333.12 1752.93Z" fill="#EAAC9D"/>
<path d="M1154.54 1755.13H1333.12C1334.34 1755.13 1335.33 1754.14 1335.33 1752.92C1335.33 1751.7 1334.34 1750.71 1333.12 1750.71H1154.54C1153.31 1750.71 1152.32 1751.7 1152.32 1752.92C1152.32 1754.14 1153.31 1755.13 1154.54 1755.13Z" fill="#E28E64"/>
<path d="M1342.92 1833.6H1150.04C1148.81 1833.6 1147.82 1834.59 1147.82 1835.81C1147.82 1837.04 1148.81 1838.03 1150.04 1838.03H1342.92C1344.14 1838.03 1345.13 1837.04 1345.13 1835.81C1345.13 1834.59 1344.14 1833.6 1342.92 1833.6Z" fill="#E28E64"/>
<path d="M1225.46 1901.93L1145.59 1968.99C1144.91 1969.56 1144.64 1970.46 1144.88 1971.3C1145.07 1971.97 1163.5 2038.07 1116.29 2073.66C1115.31 2074.4 1115.12 2075.78 1115.85 2076.76C1116.29 2077.34 1116.95 2077.64 1117.62 2077.64C1118.08 2077.64 1118.55 2077.5 1118.95 2077.2C1164.62 2042.77 1151.96 1981.55 1149.5 1971.49L1228.3 1905.32C1229.24 1904.54 1229.36 1903.14 1228.57 1902.2C1227.79 1901.27 1226.39 1901.15 1225.46 1901.93Z" fill="#E28E64"/>
<path d="M856.433 2177.55C855.287 2177.13 854.015 2177.74 853.607 2178.88L792.275 2350.47C791.861 2351.62 792.461 2352.88 793.613 2353.3C793.859 2353.39 794.111 2353.43 794.357 2353.43C795.263 2353.43 796.121 2352.87 796.439 2351.96L857.771 2180.38C858.185 2179.23 857.585 2177.96 856.433 2177.55Z" fill="#E28E64"/>
<path d="M753.251 2231.18C751.559 2238.36 749.351 2248.1 746.867 2259.84C806.315 2218.56 855.683 2179.64 855.683 2179.64L826.685 2190.61C807.605 2198.81 781.079 2211.97 753.251 2231.18Z" fill="#DB978A"/>
<path d="M1343.5 1838.03H1285.67C1285.67 1838.03 1279.64 1867.17 1291.48 1903.63H1311.26C1311.26 1903.63 1358.96 1895.51 1343.5 1838.03Z" fill="#DB978A"/>
<path d="M2180.29 2298.41C2098.21 2189.85 1844.76 2217.09 1844.76 2217.09L1769.22 2095.78C1769.22 2095.78 1798.97 1925.91 1777.31 1902.34L1352.67 1789.1C1352.67 1789.1 1322.57 1773.27 1295.44 1811.7C1268.32 1850.13 1319.56 1926.99 1371.55 1975.97C1371.55 1975.97 1334.96 2016.66 1352.5 2064.89C1352.5 2064.89 1325.58 2098.79 1356.48 2139.48C1356.48 2139.48 1302.23 2170.38 1431.83 2325.6C1561.44 2480.83 1769.41 2813.88 1915.59 2816.9C2061.77 2819.91 2164.25 2687.29 2174.8 2456.72C2177.35 2401.08 2180.29 2298.41 2180.29 2298.41Z" fill="#EAAC9D"/>
<path d="M1447.31 2018.25C1446.1 2018.02 1444.96 2018.82 1444.73 2020.02L1440.25 2044.44L1373.15 1974.43C1373.14 1974.42 1373.12 1974.42 1373.11 1974.4C1373.09 1974.39 1373.09 1974.37 1373.07 1974.36C1317.83 1922.32 1272.48 1848.07 1297.26 1812.98C1322.87 1776.7 1350.49 1790.46 1351.65 1791.06C1352.73 1791.61 1354.07 1791.21 1354.63 1790.13C1355.2 1789.05 1354.78 1787.71 1353.71 1787.14C1353.38 1786.97 1321.57 1770.87 1293.64 1810.43C1264.04 1852.36 1323.07 1933.33 1370 1977.54L1439.26 2049.82L1424.67 2129.22L1354.02 2063.27C1353.13 2062.44 1351.73 2062.48 1350.89 2063.38C1350.05 2064.27 1350.1 2065.68 1351 2066.51L1422.04 2132.82C1422.46 2133.21 1423 2133.41 1423.55 2133.41C1423.67 2133.41 1423.79 2133.36 1423.91 2133.34L1410.28 2207.53L1358.25 2138.16C1357.52 2137.18 1356.13 2136.98 1355.15 2137.72C1354.18 2138.45 1353.98 2139.84 1354.71 2140.81L1409.18 2213.45L1401.02 2257.89C1400.8 2259.09 1401.59 2260.24 1402.79 2260.47C1402.93 2260.49 1403.06 2260.5 1403.2 2260.5C1404.25 2260.5 1405.18 2259.76 1405.37 2258.69L1413.02 2217.04C1413.47 2217.04 1413.92 2216.91 1414.31 2216.61C1415.29 2215.88 1415.48 2214.49 1414.75 2213.52L1413.88 2212.35L1449.07 2020.84C1449.3 2019.62 1448.51 2018.47 1447.31 2018.25Z" fill="#E28E64"/>
<path d="M2042.57 2536.94L1846.65 2215.94C1846.01 2214.9 1844.65 2214.57 1843.61 2215.2C1842.56 2215.84 1842.23 2217.2 1842.87 2218.25L2038.78 2539.25C2039.2 2539.93 2039.93 2540.3 2040.67 2540.3C2041.07 2540.3 2041.46 2540.2 2041.82 2539.98C2042.87 2539.34 2043.2 2537.98 2042.57 2536.94Z" fill="#E28E64"/>
<path d="M1844.77 2217.09C2062.16 2218.6 2180.3 2298.41 2180.3 2298.41C2098.21 2189.85 1844.77 2217.09 1844.77 2217.09Z" fill="#DB978A"/>
<path d="M1582.31 2031.08C1702.7 2031.08 1800.31 1933.48 1800.31 1813.08C1800.31 1692.69 1702.7 1595.09 1582.31 1595.09C1461.91 1595.09 1364.31 1692.69 1364.31 1813.08C1364.31 1933.48 1461.91 2031.08 1582.31 2031.08Z" fill="#372152"/>
<path d="M1754.69 1854.24C1777.45 1759.09 1718.78 1663.51 1623.63 1640.74C1528.48 1617.98 1432.9 1676.66 1410.13 1771.8C1387.37 1866.95 1446.05 1962.54 1541.19 1985.3C1636.34 2008.07 1731.93 1949.39 1754.69 1854.24Z" fill="#23133A"/>
<path d="M1744.3 1839.61C1758.94 1750.22 1698.34 1665.88 1608.95 1651.25C1519.55 1636.61 1435.22 1697.21 1420.58 1786.6C1405.94 1876 1466.54 1960.33 1555.94 1974.97C1645.33 1989.61 1729.67 1929.01 1744.3 1839.61Z" fill="#482F6B"/>
<path d="M1701.97 1836.25C1714.75 1770.14 1671.51 1706.18 1605.4 1693.4C1539.29 1680.62 1475.33 1723.86 1462.55 1789.97C1449.77 1856.08 1493.01 1920.04 1559.12 1932.82C1625.23 1945.6 1689.19 1902.36 1701.97 1836.25Z" fill="#090C30"/>
<path d="M1619.46 1903.86C1669.65 1883.31 1693.67 1825.98 1673.12 1775.79C1652.58 1725.61 1595.24 1701.58 1545.05 1722.13C1494.87 1742.68 1470.85 1800.02 1491.39 1850.2C1511.94 1900.38 1569.28 1924.41 1619.46 1903.86Z" fill="#151B44"/>
<path opacity="0.14" d="M1546 1783.57C1574.37 1783.57 1597.38 1760.57 1597.38 1732.19C1597.38 1703.81 1574.37 1680.8 1546 1680.8C1517.62 1680.8 1494.61 1703.81 1494.61 1732.19C1494.61 1760.57 1517.62 1783.57 1546 1783.57Z" fill="white"/>
<mask id="mask0_764_234" style="mask-type:luminance" maskUnits="userSpaceOnUse" x="0" y="0" width="3000" height="3000">
<path d="M3000 0H0V3000H3000V0Z" fill="white"/>
</mask>
<g mask="url(#mask0_764_234)">
<path d="M36.636 2934.88C575.838 3412.03 839.49 3166.74 839.49 3166.74C839.49 3166.74 1050.88 2875.21 511.686 2398.06C205.266 2126.9 -227.034 2222.95 -227.034 2222.95C-227.034 2222.95 -235.698 2312.46 -217.206 2435.59C-157.746 2447.38 -114.99 2482.73 -118.65 2519.91C-121.308 2546.93 -147.816 2568.22 -185.364 2577.83C-148.746 2698.59 -82.416 2829.54 36.636 2934.88Z" fill="#45271C"/>
<path d="M96.0408 2985.48L621.077 2977.62L398.417 2780.59L-89.3352 2787.89C-89.8332 2787.12 -90.3432 2786.35 -90.8412 2785.59L395.831 2778.3L341.843 2730.52L-119.257 2737.43C-119.671 2736.66 -120.079 2735.89 -120.493 2735.12L339.251 2728.24L105.059 2521L-119.347 2524.36C-119.191 2523.59 -119.101 2522.8 -118.987 2522.02L102.473 2518.71L-89.9172 2348.46L-226.549 2350.5C-226.603 2349.72 -226.651 2348.95 -226.699 2348.17L-92.5032 2346.16L-150.715 2294.65C-151.999 2293.51 -152.119 2291.55 -150.985 2290.27C-149.851 2288.98 -147.889 2288.86 -146.599 2290L56.0088 2469.29L28.0428 2208.88C28.8228 2208.93 29.6208 2209 30.4068 2209.05L58.6008 2471.58L250.991 2641.83L207.635 2238.14C208.439 2238.36 209.243 2238.58 210.047 2238.8L253.577 2644.12L487.769 2851.36L460.871 2600.89C461.705 2601.4 462.539 2601.91 463.373 2602.4L490.355 2853.65L544.343 2901.42L514.373 2622.35C515.171 2622.5 515.969 2622.63 516.761 2622.76L546.935 2903.71L769.595 3100.75L717.209 2612.97C718.115 2614.13 719.033 2615.3 719.927 2616.45L772.181 3103.04L841.229 3164.14C840.119 3165.87 839.489 3166.74 839.489 3166.74C839.489 3166.74 838.697 3167.48 837.119 3168.79L623.675 2979.91L98.8368 2987.77C97.9068 2987.01 96.9708 2986.24 96.0408 2985.48Z" fill="#E09881"/>
</g>
<mask id="mask1_764_234" style="mask-type:luminance" maskUnits="userSpaceOnUse" x="0" y="0" width="3000" height="3000">
<path d="M3000 0H0V3000H3000V0Z" fill="white"/>
</mask>
<g mask="url(#mask1_764_234)">
<path d="M2449.84 2439.31C1922.84 2929.9 2141.53 3216.01 2141.53 3216.01C2141.53 3216.01 2411.28 3454.57 2938.27 2963.98C3237.75 2685.18 3183.9 2245.62 3183.9 2245.62C3183.9 2245.62 3095.65 2228.35 2971.31 2234.87C2953.83 2292.91 2914.52 2332.06 2877.87 2324.82C2851.24 2319.57 2832.61 2291.13 2826.67 2252.83C2702.93 2277.61 2566.19 2330.98 2449.84 2439.31Z" fill="#45271C"/>
<path d="M2393.74 2493.55L2350.85 3016.89L2568.47 2814.3L2608.31 2328.12C2609.12 2327.7 2609.93 2327.27 2610.75 2326.85L2571 2811.95L2623.76 2762.83L2661.43 2303.22C2662.23 2302.88 2663.04 2302.55 2663.84 2302.21L2626.3 2760.47L2855.18 2547.39L2873.51 2323.71C2874.26 2323.94 2875.04 2324.1 2875.81 2324.3L2857.72 2545.04L3045.75 2369.99L3056.91 2233.8C3057.7 2233.83 3058.46 2233.85 3059.24 2233.88L3048.28 2367.63L3105.17 2314.67C3106.42 2313.5 3108.39 2313.57 3109.56 2314.83C3110.73 2316.08 3110.66 2318.05 3109.4 2319.22L2911.39 2503.56L3173.29 2500.88C3173.16 2501.65 3173.02 2502.44 3172.88 2503.21L2908.86 2505.92L2720.83 2680.97L3126.82 2676.81C3126.53 2677.59 3126.23 2678.37 3125.93 2679.15L2718.3 2683.33L2489.41 2896.41L2741.3 2893.82C2740.72 2894.6 2740.13 2895.38 2739.56 2896.17L2486.88 2898.76L2434.12 2947.88L2714.78 2945C2714.56 2945.78 2714.35 2946.56 2714.14 2947.34L2431.59 2950.23L2213.97 3152.82L2704.53 3147.79C2703.29 3148.58 2702.04 3149.38 2700.8 3150.16L2211.44 3155.18L2143.96 3218C2142.34 3216.73 2141.53 3216.02 2141.53 3216.02C2141.53 3216.02 2140.88 3215.16 2139.73 3213.45L2348.33 3019.25L2391.2 2496.11C2392.03 2495.25 2392.89 2494.4 2393.74 2493.55Z" fill="#E09881"/>
</g>
<path d="M2328.96 2400.64L2405.73 2316.89C2405.73 2316.89 2416.6 2404.72 2328.96 2400.64Z" fill="#A2C0B5"/>
<path d="M568.584 2096.97L619.53 2236.97C619.53 2236.97 519.678 2189.56 568.584 2096.97Z" fill="#A2C0B5"/>
<path d="M2110.13 1270.98C2110.13 1274.64 2107.16 1277.61 2103.49 1277.61C2099.83 1277.61 2096.86 1274.64 2096.86 1270.98C2096.86 1267.31 2099.83 1264.34 2103.49 1264.34C2107.16 1264.34 2110.13 1267.31 2110.13 1270.98Z" fill="#321C14"/>
<path d="M336.121 1238.11C336.121 1241.77 333.151 1244.74 329.485 1244.74C325.819 1244.74 322.849 1241.77 322.849 1238.11C322.849 1234.44 325.819 1231.47 329.485 1231.47C333.151 1231.47 336.121 1234.44 336.121 1238.11Z" fill="#321C14"/>
<path d="M2469.58 1536.21C2469.58 1539.88 2466.61 1542.85 2462.94 1542.85C2459.27 1542.85 2456.3 1539.88 2456.3 1536.21C2456.3 1532.55 2459.27 1529.58 2462.94 1529.58C2466.6 1529.58 2469.58 1532.55 2469.58 1536.21Z" fill="#321C14"/>
<path d="M826.291 1284.25C829.956 1284.25 832.927 1281.28 832.927 1277.61C832.927 1273.95 829.956 1270.98 826.291 1270.98C822.626 1270.98 819.655 1273.95 819.655 1277.61C819.655 1281.28 822.626 1284.25 826.291 1284.25Z" fill="#321C14"/>
<path d="M455.023 1536.21C458.688 1536.21 461.659 1533.24 461.659 1529.58C461.659 1525.91 458.688 1522.94 455.023 1522.94C451.358 1522.94 448.387 1525.91 448.387 1529.58C448.387 1533.24 451.358 1536.21 455.023 1536.21Z" fill="#321C14"/>
<path d="M2665.36 1179.19C2669.02 1179.19 2671.99 1176.22 2671.99 1172.56C2671.99 1168.89 2669.02 1165.92 2665.36 1165.92C2661.69 1165.92 2658.72 1168.89 2658.72 1172.56C2658.72 1176.22 2661.69 1179.19 2665.36 1179.19Z" fill="#321C14"/>
<path d="M942.192 2713.6L802.464 2865.91L911.376 2693.82C841.308 2651.8 765.204 2626.72 685.464 2622.1L621.126 2810.61L632.814 2622.02C576.366 2625.15 521.742 2638.51 469.77 2660.89L531.894 2879.49L429.306 2680.35C310.206 2744.1 207.186 2856.1 131.478 3000H1185.61C1121.69 2878.5 1038.29 2779.78 942.192 2713.6Z" fill="#E09881"/>
<path d="M373.021 2795.31C372.631 2794.63 371.767 2794.41 371.095 2794.79C370.423 2795.18 370.189 2796.04 370.579 2796.72L487.699 3000H490.957L373.021 2795.31Z" fill="white"/>
<path d="M555.582 2716.19C555.39 2715.44 554.634 2715 553.866 2715.17C553.11 2715.37 552.66 2716.14 552.852 2716.88L625.314 3000H628.224L555.582 2716.19Z" fill="white"/>
<path d="M973.375 2872.83C972.877 2872.22 971.988 2872.14 971.388 2872.64L816.895 3000H821.335L973.189 2874.82C973.783 2874.32 973.873 2873.43 973.375 2872.83Z" fill="white"/>
<path d="M677.233 3000L751.069 2711.45C751.261 2710.69 750.805 2709.93 750.055 2709.74C749.287 2709.56 748.531 2710 748.339 2710.76L674.323 3000H677.233Z" fill="white"/>
<path d="M2466.39 2727.67L2419.95 2882.39L2447.8 2725.71C2432.46 2724.37 2416.99 2723.61 2401.41 2723.61C2318.35 2723.61 2238.43 2743.03 2163.64 2778.83L2194.38 2926.88L2139.17 2791.24C2049.94 2838.95 1968.58 2910.25 1898.7 2999.99H2904.13C2785.44 2847.57 2633.65 2748.26 2466.39 2727.67Z" fill="#E09881"/>
<path d="M2233.87 2808.94C2233.71 2808.06 2232.85 2807.45 2231.98 2807.66C2231.11 2807.83 2230.54 2808.68 2230.71 2809.55L2267.35 3000H2270.64L2233.87 2808.94Z" fill="white"/>
<path d="M2060.54 2917.81C2060.02 2917.07 2059 2916.93 2058.29 2917.44C2057.56 2917.95 2057.4 2918.96 2057.92 2919.69L2115.5 3000H2119.47L2060.54 2917.81Z" fill="white"/>
<path d="M2608.92 2952.91C2608.17 2952.43 2607.17 2952.67 2606.7 2953.43L2577.7 3000H2581.5L2609.44 2955.13C2609.91 2954.38 2609.68 2953.38 2608.92 2952.91Z" fill="white"/>
<path d="M2465.02 3000L2509.09 2827.77C2509.32 2826.91 2508.79 2826.03 2507.93 2825.81C2507.05 2825.6 2506.18 2826.11 2505.97 2826.97L2461.69 3000H2465.02Z" fill="white"/>
</svg>
