<svg width="1462" height="2045" viewBox="0 0 1462 2045" fill="none" xmlns="http://www.w3.org/2000/svg">
<path d="M540.833 1101.32C839.322 1112.38 1090.26 879.368 1101.32 580.879C1112.38 282.389 879.369 31.4499 580.879 20.3914C282.389 9.33287 31.4503 242.342 20.3918 540.832C9.33328 839.322 242.343 1090.26 540.833 1101.32Z" fill="white"/>
<path d="M1321.57 1992.13C1321.57 2006 1049.23 2017.25 713.285 2017.25C377.335 2017.25 105 2006 105 1992.13C105 1978.25 377.335 1967 713.285 1967C1049.23 1967 1321.57 1978.25 1321.57 1992.13Z" fill="#E09881"/>
<path d="M339.633 216.738C339.633 216.738 309.288 447.568 391.768 580.048C396.873 588.248 401.468 596.713 405.368 605.548C410.773 617.793 422.148 635.103 442.193 630.478C472.493 623.483 472.493 597.843 472.493 597.843L544.753 614.158C544.753 614.158 563.398 656.113 591.373 650.288C619.343 644.463 781.343 621.153 1020.26 471.973C1020.26 471.973 1047.07 478.968 1049.4 494.118C1049.4 494.118 865.253 616.493 770.853 664.273C676.453 712.058 648.964 712.568 599.774 764.173L355.518 731.548C355.518 731.548 350.123 664.273 329.143 611.828C308.163 559.383 280.193 457.988 279.028 412.533C277.863 367.078 312.828 205.078 312.828 205.078C312.828 205.078 329.143 213.238 339.633 216.738Z" fill="#F4957E"/>
<path d="M1127.84 475.046C1127.84 475.046 1146.53 486.941 1152.06 492.041C1157.58 497.141 1166.08 517.531 1166.08 522.631C1166.08 527.731 1158 530.706 1156.31 526.881C1154.61 523.056 1146.11 501.391 1140.16 497.141C1140.16 497.141 1146.11 514.561 1146.11 520.086C1146.11 525.611 1149.51 533.256 1144.84 532.831C1140.16 532.406 1137.61 527.306 1137.19 526.031C1136.76 524.756 1136.34 516.681 1130.39 512.011C1130.39 512.011 1137.62 525.181 1132.94 525.606C1128.27 526.031 1124.44 522.206 1122.32 516.681C1120.2 511.156 1108.73 498.411 1102.35 495.011C1095.98 491.611 1101.08 472.491 1106.6 472.491C1112.12 472.496 1123.59 471.221 1127.84 475.046Z" fill="#CE6E5B"/>
<path d="M1049.66 493.739C1049.66 493.739 1064.95 502.659 1080.25 500.114C1095.54 497.564 1102.34 500.114 1110.84 502.239C1119.33 504.364 1139.73 506.914 1141.85 503.089C1143.98 499.264 1137.18 491.194 1132.93 491.194C1128.68 491.194 1115.09 487.369 1109.56 486.094C1104.04 484.819 1102.77 478.444 1112.96 476.749C1123.16 475.049 1140.15 474.199 1146.1 474.199C1152.05 474.199 1165.65 483.119 1166.92 483.969C1168.2 484.819 1183.07 494.164 1182.64 488.219C1182.22 482.269 1168.2 472.499 1162.25 467.824C1156.3 463.149 1149.93 457.629 1143.98 457.629C1138.03 457.629 1118.06 455.504 1114.24 455.504C1110.41 455.504 1085.77 457.629 1078.12 458.904C1070.47 460.179 1043.71 464.854 1039.46 464.854C1035.21 464.854 1018.64 472.929 1017.36 473.354C1016.09 473.779 1034.36 494.589 1049.66 493.739Z" fill="#F4957E"/>
<path d="M312.483 209.038C312.608 212.188 313.723 215.313 316.558 218.508C319.888 222.258 324.308 224.838 328.653 227.353C330.188 228.243 331.808 229.158 333.583 229.198C335.798 229.248 337.783 227.933 339.658 226.758C346.873 222.233 354.893 218.993 363.228 217.238C368.928 216.038 374.773 215.528 380.398 214.023C395.588 209.973 401.883 193.953 415.008 186.073C417.958 184.303 421.498 175.453 418.548 174.863C415.598 174.273 403.798 174.273 401.438 179.583C399.078 184.893 384.328 191.973 381.968 188.433C379.608 184.893 414.413 118.818 416.183 112.918C417.953 107.018 409.693 100.528 407.923 102.298C406.153 104.068 386.683 133.563 386.683 133.563L377.833 136.513C377.833 136.513 381.963 130.613 379.603 128.843C377.243 127.073 367.213 130.023 363.083 132.383C358.953 134.743 346.563 141.823 346.563 141.823C346.563 141.823 327.683 161.293 324.733 169.553C321.933 177.398 319.273 185.298 316.578 193.183C314.678 198.783 312.283 203.938 312.483 209.038Z" fill="#F4957E"/>
<path d="M381.958 158.074L413.183 104.894" stroke="#410A1D" stroke-width="1.445" stroke-miterlimit="10" stroke-linecap="round" stroke-linejoin="round"/>
<path d="M347.752 156.576C347.752 156.576 376.067 132.976 386.687 133.566C386.687 133.566 407.927 128.256 410.282 133.566C412.642 138.876 404.382 142.416 396.122 143.006C387.862 143.596 374.882 151.266 370.162 156.576" fill="#F4957E"/>
<path d="M347.752 156.576C347.752 156.576 376.067 132.976 386.687 133.566C386.687 133.566 407.927 128.256 410.282 133.566C412.642 138.876 404.382 142.416 396.122 143.006C387.862 143.596 374.882 151.266 370.162 156.576" stroke="#410A1D" stroke-width="1.445" stroke-miterlimit="10" stroke-linecap="round" stroke-linejoin="round"/>
<path d="M381.968 188.432C381.968 188.432 364.858 186.662 351.883 199.052" stroke="#410A1D" stroke-width="1.445" stroke-miterlimit="10" stroke-linecap="round" stroke-linejoin="round"/>
<path d="M403.443 526.885C406.378 538.285 415.708 548.02 427.188 550.615C438.668 553.215 451.713 548.055 457.628 537.875C461.053 531.985 462.033 525.035 462.918 518.28C463.498 513.865 464.048 509.3 462.828 505.02C450.173 460.615 393.413 487.965 403.443 526.885Z" fill="#410A1D"/>
<path d="M470.064 550.323C464.394 544.113 456.294 540.668 450.154 534.928C444.014 529.188 440.239 518.983 445.649 512.548C433.174 508.533 428.214 490.338 436.929 480.548C436.419 468.893 447.669 460.783 456.194 452.813C467.434 442.308 475.734 428.513 488.729 420.283C496.749 415.203 506.079 412.583 515.404 410.813C529.754 408.088 544.674 407.238 558.904 410.543C573.129 413.848 586.654 421.618 595.014 433.593C605.219 448.198 606.739 467.013 607.179 484.823C607.329 490.948 607.299 497.433 604.154 502.688C601.464 507.178 596.869 510.128 592.359 512.783C583.339 518.103 574.024 522.893 564.714 527.683C545.724 537.453 526.739 547.218 507.754 556.988C503.624 559.113 484.514 572.423 480.249 571.133C476.319 569.943 474.554 555.238 470.064 550.323Z" fill="#410A1D"/>
<path d="M601.923 1554.22L571.523 1780.86C571.523 1780.86 552.173 1883.12 571.523 1971.57C571.523 1971.57 574.288 1993.68 592.253 1992.3C610.218 1990.92 582.578 1914.91 626.803 1876.21C671.023 1837.52 679.318 1858.25 654.443 1801.59C629.568 1744.93 724.923 1526.58 724.923 1526.58L601.923 1554.22Z" fill="#F4957E"/>
<path d="M712.668 1542.23L692.178 1533.94L601.923 1554.22L597.718 1585.58C613.908 1588.13 659.538 1596.46 690.748 1613.09C699.653 1588.51 708.313 1566.61 714.688 1550.99C713.473 1545.6 712.668 1542.23 712.668 1542.23Z" fill="#410A1D"/>
<path d="M355.514 731.548C347.579 759.763 340.524 820.608 364.329 856.763C388.139 892.918 473.668 1087.79 505.413 1194.49C537.158 1301.18 524.813 1287.96 537.158 1293.25C549.503 1298.54 535.394 1334.69 553.029 1357.62C570.664 1380.54 569.784 1388.48 568.899 1406.12C568.019 1423.75 581.244 1527.8 583.889 1543.68C586.534 1559.55 596.234 1580.71 608.579 1581.59C620.924 1582.47 702.049 1584.24 719.684 1571.89C737.319 1559.55 739.083 1578.95 747.903 1603.64C756.723 1628.33 851.074 1608.05 907.509 1570.13C963.944 1532.21 1038.89 1458.14 1121.78 1429.04C1204.67 1399.94 1306.08 1326.76 1336.06 1295.01C1366.04 1263.27 1377.5 1250.92 1361.63 1220.94C1345.76 1190.96 1339.58 1148.64 1367.8 1117.77C1396.01 1086.91 1434.81 1019.01 1439.22 996.088C1443.63 973.163 1443.63 949.353 1424.23 927.308C1404.83 905.263 1397.78 875.283 1410.12 838.248C1422.47 801.213 1416.29 792.393 1436.58 772.113C1456.86 751.833 1470.97 721.853 1455.1 701.568C1439.23 681.288 1403.07 660.123 1385.44 628.378C1367.8 596.633 1369.57 553.428 1281.39 536.673C1193.21 519.918 1135.01 549.018 1078.58 574.588C1022.14 600.158 978.054 631.023 970.119 635.433C962.184 639.843 956.893 661.003 946.308 690.103C935.728 719.203 825.504 772.993 809.629 785.338C793.759 797.683 753.193 819.728 753.193 819.728C753.193 819.728 689.704 847.943 678.244 852.353C666.779 856.763 628.864 855.878 617.399 857.643C605.934 859.408 582.128 876.158 575.953 876.158C569.783 876.158 566.254 807.378 599.764 764.173C599.764 764.173 573.309 757.118 560.084 739.483C546.859 721.848 508.059 682.168 478.959 675.993C449.859 669.823 367.854 722.728 367.854 722.728L355.514 731.548Z" fill="#683B2B"/>
<path d="M703.829 1577.48C710.784 1576.05 716.369 1574.23 719.699 1571.9C732.099 1563.22 736.654 1570.26 741.329 1583.77C725.604 1491.24 694.969 1326.28 662.404 1234.82C661.449 1232.15 698.864 1477.17 703.829 1577.48Z" fill="#45271C"/>
<path d="M718.343 1137.92C718.343 1137.92 874.188 1338.74 940.748 1545.83C972.343 1521.47 1008.1 1491.79 1046.7 1467.05C1006.25 1396.63 903.163 1244.49 718.343 1137.92Z" fill="#45271C"/>
<path d="M971.754 1056.89C1226.36 1121.34 1324.89 1185.11 1362.99 1223.7C1362.54 1222.79 1362.14 1221.9 1361.64 1220.95C1351.84 1202.44 1345.77 1179.22 1349.17 1156.9C1152.84 1014.61 971.754 1056.89 971.754 1056.89Z" fill="#45271C"/>
<path d="M920.509 977.305C1015.78 970.545 1061.01 1008.04 1061.01 1008.04C1121.95 1047 1172.41 1044.53 1172.41 1044.53C1137.41 1021.51 1123.5 971.34 1141.64 933.58C1160.13 895.09 1202.96 875.79 1242.45 859.535C1272.74 847.065 1303.03 834.595 1333.31 822.13C1337.42 820.44 1342.33 817.38 1341.5 813.01C1340.64 808.47 1334.6 807.59 1329.99 807.765C1268.7 810.08 1205.28 812.915 1150.35 840.185C1139.48 845.58 1128.33 852.07 1116.2 851.545C1114.11 843.35 1123.3 837.07 1131.09 833.79C1138.89 830.51 1148.29 824.975 1147.06 816.605C1126.76 818.675 1106.76 823.745 1087.92 831.6C1087.17 814.62 1096.33 798.88 1106.12 784.985C1154.26 716.595 1223.45 666.51 1289.98 615.84C1300.29 607.99 1310.64 600.03 1319.11 590.23C1327.51 580.52 1333.89 569.095 1337.85 556.88C1335.6 555.45 1333.2 554.065 1330.66 552.72L782.284 943.11C804.259 990.06 920.509 977.305 920.509 977.305Z" fill="#45271C"/>
<path d="M534.868 806.593C531.968 816.928 528.388 827.883 523.053 837.253C520.863 841.098 519.678 845.368 517.333 849.218C514.713 853.518 511.548 857.458 509.003 861.803C508.433 862.778 507.928 864.123 508.708 864.943C509.273 865.538 510.218 865.503 511.028 865.388C514.408 864.913 517.708 863.833 520.713 862.213C522.058 861.488 523.388 860.643 524.893 860.393C526.403 860.143 528.178 860.678 528.818 862.063C529.313 863.133 529.023 864.388 528.668 865.508C527.423 869.468 525.473 873.203 522.943 876.493C520.578 879.563 517.574 882.558 517.264 886.418C517.224 886.923 517.233 887.453 517.453 887.908C517.908 888.858 519.098 889.203 520.148 889.183C522.863 889.128 525.263 887.368 527.943 886.928C528.633 886.813 529.463 886.848 529.863 887.423C530.128 887.803 530.118 888.303 530.083 888.763C529.853 892.068 529.134 895.338 527.964 898.438C527.889 898.638 533.013 898.323 533.498 898.188C535.068 897.743 536.143 896.813 537.593 896.198C541.413 894.588 545.763 893.873 549.673 892.363C557.878 889.203 565.729 885.218 573.814 881.773C609.009 866.783 648.768 862.793 686.263 870.353C685.143 869.153 684.134 867.843 683.264 866.403C685.349 868.193 687.618 869.773 690.018 871.108C688.773 870.828 687.518 870.603 686.268 870.348C693.868 878.503 706.683 881.213 717.948 879.318C730.873 877.143 742.398 870.183 753.903 863.903C789.038 844.718 826.804 830.868 862.824 813.403C898.844 795.933 933.848 774.188 958.688 742.798C964.783 735.098 970.318 726.768 977.998 720.648C984.263 715.653 991.678 712.353 998.648 708.398C1017.93 697.448 1034.08 681.058 1044.75 661.623C1035.84 660.838 1028.08 667.068 1020.66 672.068C1013.25 677.068 1003.19 681.088 995.754 676.123C1023.98 632.153 1060.76 593.758 1103.3 563.418C1094.97 567.118 1086.75 570.888 1078.57 574.588C1022.14 600.158 978.048 631.023 970.113 635.433C962.178 639.843 956.889 661.003 946.304 690.103C935.724 719.203 825.499 772.993 809.624 785.338C793.754 797.683 753.189 819.728 753.189 819.728C753.189 819.728 689.698 847.943 678.238 852.353C666.773 856.763 628.858 855.878 617.393 857.643C605.928 859.408 582.124 876.158 575.949 876.158C569.779 876.158 566.248 807.378 599.758 764.173C599.758 764.173 573.303 757.118 560.078 739.483C556.033 734.093 549.588 726.638 541.773 718.713C542.088 724.188 542.349 729.668 542.469 735.153C543.014 759.158 541.383 783.393 534.868 806.593Z" fill="#45271C"/>
<path d="M555.079 561.256C555.079 561.256 549.364 580.126 544.749 614.166C540.134 648.201 471.529 625.786 471.529 625.786L472.489 597.851C472.489 597.851 483.074 550.391 481.039 515.751C479.004 481.101 555.079 561.256 555.079 561.256Z" fill="#F4957E"/>
<path d="M684.894 872.938C700.314 879.693 715.339 887.588 729.699 896.368C740.714 903.103 751.524 910.458 761.039 919.223C764.449 922.363 789.209 951.003 787.174 952.183C815.089 935.978 842.699 920.173 868.984 901.583C925.834 861.378 977.649 813.518 1026.18 763.743C1026.18 763.743 1154.7 690.498 1196.16 649.043C1237.62 607.583 1285.99 593.763 1295.66 588.238C1305.34 582.713 1382.73 516.378 1374.43 498.413C1366.14 480.448 1346.79 456.953 1327.45 470.773C1308.1 484.593 1252.82 541.253 1237.62 553.688C1222.42 566.128 1062.39 638.298 989.999 699.263C989.999 699.263 756.704 806.583 684.894 872.938Z" fill="#F4957E"/>
<path d="M418.268 938.505C430.298 934.96 442.293 931.375 454.183 927.495C466.073 923.61 477.928 919.63 489.613 915.175C501.378 910.94 512.973 906.255 524.523 901.46C536.078 896.665 547.513 891.575 558.958 886.44C548.058 892.65 536.823 898.255 525.413 903.495C514.003 908.735 502.348 913.42 490.613 917.88C478.798 922.125 466.903 926.165 454.828 929.605C442.763 933.06 430.583 936.115 418.268 938.505Z" fill="#410A1D"/>
<path d="M457.022 937.465C464.227 935.23 471.422 933.095 478.562 930.785C485.697 928.47 492.837 926.195 499.857 923.57C506.957 921.165 513.937 918.435 520.927 915.715C527.922 913 534.852 910.11 541.852 907.3C535.387 911.19 528.647 914.6 521.797 917.765C514.942 920.925 507.902 923.66 500.827 926.295C493.677 928.71 486.492 931.05 479.177 932.915C471.867 934.785 464.492 936.395 457.022 937.465Z" fill="#410A1D"/>
<path d="M631.358 868.299C656.753 862.769 684.123 868.769 705.923 882.864C727.868 896.569 750.068 910.364 769.113 928.219C773.888 932.644 778.303 937.464 782.473 942.474C784.558 944.984 786.528 947.584 788.398 950.264C789.333 951.634 790.368 952.789 791.363 954.024C792.383 955.229 793.283 956.544 794.568 957.504C803.918 966.239 816.628 970.334 829.148 972.804C854.503 977.569 880.598 976.819 906.438 976.384C932.308 975.764 958.408 974.924 984.293 978.364C1010.16 981.634 1035.46 990.129 1057.82 1003.61C1069.19 1010.16 1079 1018.8 1090.63 1024.24C1102.12 1029.99 1114.37 1034.19 1126.9 1037.2C1152.02 1042.98 1178.13 1044.75 1203.83 1042.96L1203.87 1042.95C1203.96 1042.95 1204.05 1042.96 1204.13 1042.98C1218.71 1046.67 1233.04 1051.11 1247.22 1056.05C1261.38 1061.02 1275.36 1066.53 1288.92 1072.98C1302.47 1079.42 1315.66 1086.7 1327.91 1095.4C1339.97 1104.2 1351.5 1114.44 1358.82 1127.63C1351.31 1114.55 1339.68 1104.52 1327.55 1095.92C1315.22 1087.43 1301.97 1080.36 1288.38 1074.14C1274.76 1067.96 1260.85 1062.42 1246.69 1057.57C1232.55 1052.71 1218.2 1048.34 1203.71 1044.75L1204.01 1044.77C1178.03 1046.71 1151.83 1045.06 1126.39 1039.35C1113.71 1036.36 1101.27 1032.18 1089.55 1026.38C1086.68 1024.82 1083.67 1023.5 1080.92 1021.72L1072.68 1016.38C1067.35 1012.74 1062.08 1009.05 1056.49 1005.83C1034.37 992.584 1009.44 984.544 983.908 981.174C958.338 977.644 932.378 978.344 906.478 978.844C880.598 979.149 854.428 979.799 828.733 974.849C816.053 972.274 803.028 968.074 793.263 958.884C791.938 957.874 790.983 956.489 789.918 955.219C788.888 953.929 787.773 952.649 786.888 951.334C785.058 948.689 783.128 946.114 781.083 943.624C776.993 938.659 772.653 933.874 767.943 929.469C749.183 911.664 727.033 897.904 705.338 883.804C683.938 869.519 656.833 863.134 631.358 868.299Z" fill="#410A1D"/>
<path d="M738.103 1562.28C732.698 1533.45 726.978 1504.69 720.988 1475.99C714.953 1447.3 708.713 1418.65 701.878 1390.14C695.273 1361.58 688.088 1333.16 680.683 1304.79C673.243 1276.43 665.528 1248.14 657.508 1219.93C666.553 1247.83 675.008 1275.94 682.828 1304.22C690.683 1332.49 697.853 1360.95 704.688 1389.49C711.293 1418.08 717.583 1446.75 723.158 1475.55C728.778 1504.35 733.748 1533.28 738.103 1562.28Z" fill="#410A1D"/>
<path d="M1032.76 1442.54C1011.7 1410.96 988.909 1380.58 964.599 1351.49C940.254 1322.43 914.429 1294.61 886.994 1268.45C859.724 1242.13 830.859 1217.47 800.814 1194.36C770.744 1171.28 739.434 1149.77 707.019 1130.03C739.984 1148.85 771.779 1169.76 802.159 1192.59C832.559 1215.39 861.494 1240.14 888.994 1266.37C916.334 1292.77 942.269 1320.64 966.304 1350.07C990.374 1379.48 1012.58 1410.38 1032.76 1442.54Z" fill="#410A1D"/>
<path d="M688.778 1105.62C700.618 1107.92 711.678 1113.32 721.973 1119.51C732.283 1125.78 742.033 1132.78 751.813 1139.76C761.428 1146.97 770.938 1154.32 780.108 1162.08C789.273 1169.84 798.208 1177.87 806.723 1186.34C788.108 1171.19 769.498 1156.13 750.103 1142.09C740.508 1134.94 730.738 1127.98 720.798 1121.39C710.828 1114.87 700.298 1109.08 688.778 1105.62Z" fill="#410A1D"/>
<path d="M1326.45 1195.61C1313 1185.06 1298.68 1175.71 1283.82 1167.36C1269 1158.92 1253.66 1151.43 1238.01 1144.68C1206.71 1131.14 1174.44 1119.92 1142.08 1109.04C1109.77 1098 1077.21 1087.72 1044.52 1077.88C1011.81 1068.08 978.953 1058.75 945.948 1049.93C979.213 1057.71 1012.3 1066.31 1045.14 1075.75C1078 1085.16 1110.59 1095.48 1143.01 1106.31C1175.31 1117.43 1207.67 1128.63 1238.9 1142.66C1270.11 1156.62 1300.15 1173.72 1326.45 1195.61Z" fill="#410A1D"/>
<path d="M940.165 1064.93C946.35 1065.62 952.465 1066.69 958.56 1067.87C964.66 1069.02 970.7 1070.45 976.72 1071.96C982.725 1073.53 988.705 1075.17 994.61 1077.1C1000.52 1078.99 1006.39 1081 1012.15 1083.37C1006.05 1082.15 1000.03 1080.68 994.01 1079.24L976 1074.76L958.055 1070.02C952.085 1068.39 946.105 1066.79 940.165 1064.93Z" fill="#410A1D"/>
<path d="M1445.69 763.281C1410.26 770.481 1374.98 778.361 1339.87 786.876C1304.76 795.431 1269.79 804.551 1235.1 814.621C1200.33 824.466 1165.84 835.231 1131.53 846.571C1097.24 857.946 1063.14 869.941 1029.27 882.591C1062.75 868.946 1096.61 856.216 1130.82 844.466C1165.01 832.681 1199.56 821.916 1234.3 811.846C1269.11 802.001 1304.11 792.826 1339.36 784.721C1374.6 776.576 1410.07 769.436 1445.69 763.281Z" fill="#410A1D"/>
<path d="M1291.1 782.129C1272.02 786.529 1252.99 791.134 1234.02 795.899C1215.06 800.709 1196.12 805.609 1177.32 810.994C1158.45 816.154 1139.72 821.774 1121.01 827.509C1102.32 833.279 1083.67 839.209 1065.07 845.344C1083.31 838.204 1101.73 831.539 1120.33 825.389C1138.92 819.209 1157.7 813.594 1176.54 808.209C1195.44 803.049 1214.4 798.094 1233.5 793.744C1252.6 789.349 1271.81 785.489 1291.1 782.129Z" fill="#410A1D"/>
<path d="M1242.93 821.253C1244.85 820.018 1246.87 819.078 1248.9 818.188C1250.93 817.268 1253.02 816.563 1255.11 815.858C1257.23 815.218 1259.34 814.588 1261.52 814.168C1263.7 813.723 1265.89 813.318 1268.17 813.218C1266.25 814.458 1264.23 815.393 1262.2 816.283C1260.17 817.203 1258.08 817.908 1255.99 818.608C1253.87 819.243 1251.76 819.878 1249.57 820.293C1247.4 820.748 1245.21 821.153 1242.93 821.253Z" fill="#410A1D"/>
<path d="M544.095 550.131L490.165 539.141C490.165 539.141 511.085 568.831 550.97 578.046C553.32 567.081 555.08 561.256 555.08 561.256C555.08 561.256 550.695 556.641 544.095 550.131Z" fill="#410A1D"/>
<path d="M478.508 474.758C474.943 487.943 473.818 502.508 477.058 515.873C480.818 531.398 487.753 538.948 501.388 546.233C512.938 552.398 524.868 557.713 537.293 561.863C542.873 563.728 548.633 565.383 554.518 565.318C572.488 565.128 586.408 549.293 594.238 533.118C603.368 514.258 607.678 493.093 606.663 472.168C606.248 463.633 604.898 454.948 600.823 447.433C593.903 434.673 580.308 427.188 567.168 421.008C559.348 417.328 551.128 413.798 542.483 413.828C534.443 413.853 526.703 416.988 519.748 421.023C499.718 432.653 484.558 452.403 478.508 474.758Z" fill="#F4957E"/>
<path d="M457.553 489.804C455.858 495.684 456.038 502.094 458.063 507.874C459.458 511.854 462.268 515.909 466.443 516.469C476.773 517.854 486.078 500.614 482.978 491.764C479.358 481.414 461.068 477.609 457.553 489.804Z" fill="#F4957E"/>
<path d="M468.489 487.318C467.384 487.358 466.764 488.588 466.424 489.643C464.879 494.433 464.174 499.488 464.344 504.518C464.709 502.253 465.954 499.998 468.039 499.048C470.129 498.098 473.039 498.963 473.779 501.133C474.249 502.518 473.799 504.038 473.219 505.383C472.384 507.313 471.199 509.223 469.339 510.203" stroke="#410A1D" stroke-width="2.8905" stroke-miterlimit="10" stroke-linecap="round" stroke-linejoin="round"/>
<path d="M575.249 463.066C576.334 472.986 577.419 482.906 578.504 492.831C579.024 497.596 579.464 502.751 576.999 506.861C575.784 508.881 573.549 510.601 571.239 510.146" stroke="#410A1D" stroke-width="2.8905" stroke-miterlimit="10" stroke-linecap="round" stroke-linejoin="round"/>
<path d="M540.418 512.608C540.418 512.608 535.848 523.838 551.078 529.548C566.303 535.258 568.968 527.453 568.968 527.453C568.968 527.453 549.363 523.078 540.418 512.608Z" fill="#FC5A44"/>
<path d="M541.563 512.228C541.563 512.228 557.173 511.848 571.253 527.073C571.253 527.073 551.648 525.933 541.563 512.228Z" fill="#FF7F66"/>
<path d="M572.584 527.268C569.084 527.943 565.449 527.708 561.929 527.033C558.389 526.388 554.959 525.123 551.779 523.408C548.639 521.638 545.624 519.563 543.189 516.903C540.639 514.368 538.599 511.388 536.994 508.238C539.574 510.688 541.949 513.183 544.679 515.258C547.334 517.408 550.179 519.263 553.149 520.868C559.094 524.113 565.619 526.203 572.584 527.268Z" fill="#410A1D"/>
<path d="M531.529 461.754C535.324 463.724 538.964 465.229 542.769 465.624C544.654 465.884 546.559 465.819 548.489 465.524C550.454 465.299 552.334 464.599 554.439 464.044C552.979 465.614 551.164 466.929 549.059 467.669C546.994 468.544 544.659 468.729 542.424 468.489C540.189 468.194 538.009 467.479 536.159 466.274C534.304 465.094 532.639 463.629 531.529 461.754Z" fill="#410A1D"/>
<path d="M600.329 478.876C597.829 480.566 594.529 480.826 591.544 479.961C590.094 479.416 588.674 478.661 587.614 477.531C586.509 476.456 585.749 475.111 585.284 473.701C587.524 475.646 589.574 477.376 592.159 478.061C594.649 478.991 597.389 478.971 600.329 478.876Z" fill="#410A1D"/>
<path d="M535.773 436.638C541.438 435.233 547.203 433.813 553.033 434.048C554.228 434.098 555.458 434.223 556.513 434.798C557.563 435.368 558.398 436.483 558.318 437.678C558.283 438.158 558.093 438.638 557.723 438.948C557.223 439.368 556.508 439.393 555.853 439.403C548.408 439.513 540.978 440.483 533.758 442.293C532.018 442.728 524.043 445.268 525.573 441.373C526.818 438.218 533.073 437.308 535.773 436.638Z" fill="#410A1D"/>
<path d="M593.037 458.362C595.577 460.657 598.232 462.977 601.457 464.122C601.602 464.172 601.762 464.222 601.912 464.187C602.242 464.102 602.322 463.677 602.317 463.337C602.257 460.892 600.807 458.717 599.287 456.797C597.227 454.192 590.642 445.132 586.617 447.152C581.317 449.812 591.152 456.657 593.037 458.362Z" fill="#410A1D"/>
<path d="M516.999 422.741C512.919 424.941 509.259 428.246 507.534 432.546C503.574 442.421 510.604 454.391 506.029 463.996C502.694 471.006 494.034 474.591 491.514 481.936C490.659 484.426 490.604 487.156 489.564 489.576C488.194 492.766 485.274 495.056 483.739 498.166C480.699 504.331 483.884 511.801 488.184 517.161C482.199 515.866 479.424 508.846 479.009 502.736C478.594 496.626 479.439 490.111 476.594 484.691C475.489 482.591 473.879 480.771 472.914 478.606C471.639 475.741 471.589 472.481 471.889 469.361C472.889 458.826 477.619 448.811 484.484 440.766C491.354 432.716 500.284 426.576 509.934 422.231C513.924 420.436 522.529 415.666 526.654 418.291C523.419 419.616 520.119 421.061 516.999 422.741Z" fill="#410A1D"/>
<path d="M438.218 491.948C440.053 496.623 444.183 500.138 448.583 502.778C443.573 503.888 441.293 510.268 443.463 514.798C445.633 519.333 450.943 521.868 456.083 522.228C452.908 524.693 451.758 529.308 453.418 532.938C454.358 534.998 456.108 536.813 456.258 539.053C453.138 540.128 449.668 537.503 448.723 534.413C447.778 531.323 448.618 528.033 449.458 524.933C444.888 523.828 440.893 520.623 438.928 516.478C436.963 512.333 437.068 507.343 439.208 503.318C435.038 500.003 432.633 494.718 432.933 489.543C433.108 486.558 434.188 482.398 436.763 480.733C439.388 482.683 436.978 488.783 438.218 491.948Z" fill="#FAC37A"/>
<path d="M474.658 610.669C475.788 614.404 476.658 618.159 477.523 621.914C478.423 625.664 479.148 629.434 479.923 633.199C480.633 636.979 481.383 640.744 481.968 644.554C482.578 648.359 483.198 652.164 483.553 656.049C482.028 652.454 480.868 648.759 479.798 645.039C478.698 641.324 477.868 637.544 477.093 633.754C476.383 629.949 475.728 626.139 475.343 622.279C474.928 618.434 474.608 614.569 474.658 610.669Z" fill="#410A1D"/>
<path d="M594.754 744.067C598.719 738.622 603.354 733.672 608.354 729.122C613.354 724.562 618.849 720.572 624.524 716.882C630.324 713.387 636.324 710.202 642.604 707.697C648.884 705.192 655.364 703.197 661.994 702.017C655.689 704.352 649.494 706.847 643.499 709.737C637.504 712.622 631.624 715.722 626.054 719.337C620.359 722.757 615.004 726.697 609.784 730.817C604.569 734.937 599.614 739.412 594.754 744.067Z" fill="#410A1D"/>
<path d="M561.268 668.881C568.268 664.121 575.693 660.001 583.338 656.326C590.983 652.646 598.923 649.601 606.953 646.851C615.053 644.321 623.263 642.096 631.603 640.546C639.943 638.996 648.368 637.936 656.828 637.651C648.503 639.131 640.238 640.736 632.068 642.721C623.903 644.706 615.793 646.881 607.848 649.596C599.833 652.091 592.003 655.131 584.243 658.346C576.478 661.566 568.858 665.156 561.268 668.881Z" fill="#410A1D"/>
<path d="M366.618 634.664L366.098 649.974C365.988 655.059 365.818 660.129 365.808 665.209C365.733 670.284 365.813 675.354 365.838 680.444L366.088 695.759C364.873 690.764 364.138 685.674 363.618 680.569C363.068 675.459 362.908 670.319 362.918 665.184C362.998 660.049 363.248 654.909 363.888 649.814C364.498 644.709 365.323 639.639 366.618 634.664Z" fill="#410A1D"/>
<path d="M363.704 660.736C362.094 658.591 360.774 656.311 359.499 654.016C358.194 651.731 357.094 649.361 355.999 646.986C354.964 644.581 353.934 642.176 353.109 639.681C352.259 637.196 351.449 634.696 350.934 632.061C352.549 634.206 353.864 636.481 355.144 638.776C356.449 641.061 357.544 643.431 358.639 645.811C359.669 648.216 360.699 650.621 361.524 653.116C362.374 655.601 363.184 658.106 363.704 660.736Z" fill="#410A1D"/>
<path d="M396.41 589.189C399.695 591.964 402.08 595.639 404.16 599.379C406.245 603.144 407.74 607.194 409 611.289C410.235 615.399 411.04 619.609 411.555 623.844L412.085 630.214C412.06 632.354 412.12 634.474 412 636.604L409.365 624.224C408.35 620.159 407.49 616.079 406.23 612.109C405.075 608.114 403.71 604.194 402.165 600.334C400.55 596.504 398.77 592.719 396.41 589.189Z" fill="#410A1D"/>
<path d="M645.013 2044.8L644.493 2044.78C644.748 2044.88 645.013 2044.8 645.013 2044.8Z" fill="#F4957E"/>
<path d="M571.519 1971.56C571.519 1971.56 574.284 1993.67 592.249 1992.29C610.214 1990.91 582.574 1914.9 626.799 1876.21C671.019 1837.51 679.314 1858.24 654.439 1801.58C648.254 1787.49 649.504 1763.4 654.874 1735.15C623.074 1725.35 594.499 1728.84 577.984 1732.66L571.519 1780.85C571.519 1780.85 552.174 1883.12 571.519 1971.56Z" fill="#45271C"/>
<path d="M573.278 1774.15C573.278 1774.15 622.158 1766.63 649.733 1778.74" stroke="#410A1D" stroke-width="2.8905" stroke-miterlimit="10" stroke-linecap="round" stroke-linejoin="round"/>
<path d="M579.107 1755.17C591.617 1754.07 604.227 1754.13 616.722 1755.35" stroke="#410A1D" stroke-width="2.8905" stroke-miterlimit="10" stroke-linecap="round" stroke-linejoin="round"/>
<path d="M603.038 1773.26C613.128 1791.75 621.078 1811.41 626.678 1831.71" stroke="#410A1D" stroke-width="2.8905" stroke-miterlimit="10" stroke-linecap="round" stroke-linejoin="round"/>
<path d="M658.924 1812.59C658.924 1812.59 589.573 1846.01 563.668 1905.34" stroke="#410A1D" stroke-width="2.8905" stroke-miterlimit="10" stroke-linecap="round" stroke-linejoin="round"/>
<path d="M623.053 1788.75C627.118 1796.99 630.228 1805.7 632.298 1814.65" stroke="#410A1D" stroke-width="2.8905" stroke-miterlimit="10" stroke-linecap="round" stroke-linejoin="round"/>
<path d="M622.993 1820.52C622.993 1820.52 602.523 1809.24 566.173 1819.27" stroke="#410A1D" stroke-width="2.8905" stroke-miterlimit="10" stroke-linecap="round" stroke-linejoin="round"/>
<path d="M659.388 1851.37C659.388 1851.37 592.708 1881.08 593.313 1956.85" stroke="#410A1D" stroke-width="2.8905" stroke-miterlimit="10" stroke-linecap="round" stroke-linejoin="round"/>
<path d="M1374.43 498.403C1366.14 480.438 1346.79 456.943 1327.45 470.763C1308.1 484.583 1252.82 541.243 1237.62 553.678C1233.47 557.078 1217.39 564.113 1195.41 573.838C1198.29 588.133 1206.16 607.863 1227.11 623.343C1258.94 601.343 1288.36 592.403 1295.67 588.228C1305.33 582.703 1382.72 516.368 1374.43 498.403Z" fill="#45271C"/>
<path d="M567.908 872.135L559.188 873.9C556.328 874.555 553.483 875.16 550.678 875.93C547.853 876.635 545.073 877.5 542.258 878.325L533.783 881.04C536.108 879.095 538.728 877.575 541.443 876.255C544.153 874.905 547.028 873.93 549.943 873.135C552.878 872.405 555.863 871.855 558.883 871.705C561.903 871.53 564.928 871.585 567.908 872.135Z" fill="#410A1D"/>
<path d="M563.573 867.31C561.818 867.82 560.143 868.145 558.498 868.55L553.638 869.765L548.798 871.055C547.163 871.495 545.538 872.015 543.753 872.415C544.913 870.99 546.378 869.92 547.928 869.01C549.473 868.07 551.183 867.45 552.918 866.97C554.673 866.555 556.463 866.275 558.273 866.35C560.068 866.395 561.868 866.625 563.573 867.31Z" fill="#410A1D"/>
<path d="M564.17 854.922C563.11 856.097 561.955 857.012 560.805 857.922C559.67 858.857 558.455 859.622 557.255 860.422C556.02 861.162 554.805 861.937 553.48 862.562C552.17 863.212 550.845 863.867 549.33 864.317C550.1 862.932 551.115 861.812 552.19 860.757C553.25 859.677 554.47 858.812 555.715 857.987C556.995 857.222 558.305 856.487 559.73 855.992C561.14 855.467 562.59 855.027 564.17 854.922Z" fill="#410A1D"/>
<path d="M565.088 766.138C564.278 772.223 563.233 778.243 562.213 784.258L559.023 802.278L555.608 820.258C554.418 826.248 553.258 832.243 551.848 838.218C552.068 832.083 552.683 825.988 553.413 819.908C554.113 813.823 555.113 807.783 556.183 801.758C557.323 795.743 558.538 789.743 560.048 783.808C561.523 777.863 563.118 771.953 565.088 766.138Z" fill="#410A1D"/>
<path d="M544.083 1279.77C540.068 1264.76 536.188 1249.71 532.503 1234.63L521.668 1189.31L511.488 1143.84C508.178 1128.66 505.048 1113.44 502.068 1098.19C506.093 1113.2 509.963 1128.25 513.658 1143.33L524.483 1188.65L534.658 1234.13C537.968 1249.3 541.098 1264.52 544.083 1279.77Z" fill="#410A1D"/>
<path d="M576.384 1382.32C576.549 1368.24 576.459 1354.19 575.849 1340.16C575.234 1326.14 574.309 1312.13 572.679 1298.2C571.284 1284.24 569.204 1270.35 566.804 1256.52C564.404 1242.69 561.494 1228.94 558.329 1215.22C562.654 1228.62 566.124 1242.3 568.989 1256.1C571.854 1269.91 573.924 1283.87 575.549 1297.88C576.944 1311.92 577.914 1326 578.059 1340.1C578.209 1354.2 577.744 1368.3 576.384 1382.32Z" fill="#410A1D"/>
<path d="M756.678 938.589C764.863 948.669 774.808 957.109 785.748 963.839C796.698 970.569 808.533 975.829 820.853 979.479C833.123 983.354 845.843 985.699 858.638 987.394C871.443 989.094 884.373 989.964 897.323 990.839C884.353 991.164 871.348 990.849 858.388 989.599C845.433 988.349 832.543 985.959 820.008 982.239C807.548 978.294 795.453 972.964 784.553 965.699C773.673 958.469 763.913 949.399 756.678 938.589Z" fill="#410A1D"/>
<path d="M994.969 761.715C1005.98 753.635 1017 745.56 1028.01 737.48" stroke="#410A1D" stroke-width="2.8905" stroke-miterlimit="10" stroke-linecap="round" stroke-linejoin="round"/>
<path d="M981.483 714.083C989.478 710.323 998.218 708.154 1007.04 707.729" stroke="#410A1D" stroke-width="2.8905" stroke-miterlimit="10" stroke-linecap="round" stroke-linejoin="round"/>
<path d="M1228.16 560.972C1228.16 560.972 1235.21 586.627 1255.09 605.227" stroke="#410A1D" stroke-width="2.8905" stroke-miterlimit="10" stroke-linecap="round" stroke-linejoin="round"/>
<path d="M1233.29 570.593C1233.29 570.593 1251.89 565.463 1269.84 542.373C1287.8 519.283 1291.01 507.738 1303.19 518.003C1315.38 528.263 1311.53 548.148 1289.72 561.613C1267.92 575.083 1240.98 589.193 1240.98 589.193" stroke="#410A1D" stroke-width="2.8905" stroke-miterlimit="10" stroke-linecap="round" stroke-linejoin="round"/>
<path d="M1280.11 568.028C1280.11 568.028 1289.09 582.778 1296.78 585.988" stroke="#410A1D" stroke-width="2.8905" stroke-miterlimit="10" stroke-linecap="round" stroke-linejoin="round"/>
<path d="M1289.73 561.611C1289.73 561.611 1294.86 573.796 1307.04 577.006" stroke="#410A1D" stroke-width="2.8905" stroke-miterlimit="10" stroke-linecap="round" stroke-linejoin="round"/>
<path d="M1266 543.656L1263.43 529.546" stroke="#410A1D" stroke-width="2.8905" stroke-miterlimit="10" stroke-linecap="round" stroke-linejoin="round"/>
<path d="M1273.05 534.68L1268.56 522.495" stroke="#410A1D" stroke-width="2.8905" stroke-miterlimit="10" stroke-linecap="round" stroke-linejoin="round"/>
<path d="M1322.44 473.75C1322.44 473.75 1321.15 503.255 1345.53 509.665C1369.9 516.08 1373.75 505.175 1373.75 505.175" stroke="#410A1D" stroke-width="2.8905" stroke-miterlimit="10" stroke-linecap="round" stroke-linejoin="round"/>
<path d="M1371.82 495.557C1371.82 495.557 1325.64 571.877 1290.37 591.762" stroke="#410A1D" stroke-width="2.8905" stroke-miterlimit="10" stroke-linecap="round" stroke-linejoin="round"/>
</svg>
