<svg width="2171" height="1517" viewBox="0 0 2171 1517" fill="none" xmlns="http://www.w3.org/2000/svg">
<path d="M2132.29 1516.15H141.95C120.77 1516.15 103.595 1498.98 103.595 1477.79C103.595 1456.61 120.765 1439.44 141.95 1439.44H2132.29C2153.47 1439.44 2170.65 1456.61 2170.65 1477.79C2170.64 1498.98 2153.47 1516.15 2132.29 1516.15Z" fill="#45271C"/>
<path d="M1940.81 1056.08H689.755C628.705 1056.08 579.21 1006.59 579.21 945.53V110.545C579.21 49.495 628.7 0 689.755 0H1940.81C2001.86 0 2051.35 49.49 2051.35 110.545V945.53C2051.35 1006.58 2001.86 1056.08 1940.81 1056.08Z" fill="#FEEDE4"/>
<path opacity="0.5" d="M2051.35 160.51H579.205V110.545C579.205 49.495 628.695 0 689.75 0H1940.8C2001.85 0 2051.34 49.49 2051.34 110.545V160.51H2051.35Z" fill="#D6D6D6"/>
<path d="M1805.02 104.491H934.143C920.758 104.491 909.908 93.6405 909.908 80.2555C909.908 66.8705 920.758 56.0205 934.143 56.0205H1805.03C1818.41 56.0205 1829.26 66.8705 1829.26 80.2555C1829.26 93.6405 1818.41 104.491 1805.02 104.491Z" fill="#FEEDE4"/>
<path d="M684.923 80.2561C684.923 91.1911 676.058 100.056 665.123 100.056C654.188 100.056 645.323 91.1911 645.323 80.2561C645.323 69.321 654.188 60.4561 665.123 60.4561C676.058 60.4561 684.923 69.321 684.923 80.2561Z" fill="#FEEDE4"/>
<path d="M758.845 80.2551C758.845 91.1901 749.98 100.055 739.045 100.055C728.11 100.055 719.245 91.1901 719.245 80.2551C719.245 69.3201 728.11 60.4551 739.045 60.4551C749.98 60.4551 758.845 69.3201 758.845 80.2551Z" fill="#FEEDE4"/>
<path d="M831.55 80.2551C831.55 91.1901 822.685 100.055 811.75 100.055C800.815 100.055 791.95 91.1901 791.95 80.2551C791.95 69.3201 800.815 60.4551 811.75 60.4551C822.685 60.4551 831.55 69.3201 831.55 80.2551Z" fill="#FEEDE4"/>
<path d="M1420.36 391.695L1295.89 516.16L1171.42 391.695L1096.31 466.805L1220.78 591.27L1096.31 715.735L1171.42 790.845L1295.89 666.375L1420.36 790.845L1495.47 715.735L1371 591.27L1495.47 466.8L1420.36 391.695Z" fill="#D6D6D6"/>
<path d="M1812.62 1439.45H1302.81L1343.09 862.721C1345.49 828.316 1375.33 800.426 1409.73 800.426H1794.96C1829.36 800.426 1855.3 828.316 1852.9 862.721L1812.62 1439.45Z" fill="#321C14"/>
<path d="M1737.62 1439.45H1227.81L1268.09 862.721C1270.49 828.316 1300.33 800.426 1334.73 800.426H1719.96C1754.36 800.426 1780.3 828.316 1777.9 862.721L1737.62 1439.45Z" fill="#D64D43"/>
<path d="M1531.02 800.43C1550.05 818.155 1557.54 834.955 1560.68 847.765C1567.1 873.93 1561.62 908.955 1561.6 909.275C1571.44 920.95 1583.98 936.68 1597.43 956.045C1597.43 956.045 1627.52 999.35 1648.74 1044.29C1675.18 1100.29 1718.04 1191.05 1698.04 1287.62C1682.71 1361.61 1630.39 1439.45 1630.39 1439.45H1340.33L1375.87 800.355L1531.02 800.43Z" fill="#321C14"/>
<path d="M988.278 438.66C989.703 434.09 1013.04 362.36 1067.85 337.935C1094.08 326.25 1123.64 325.13 1123.64 325.13C1126.7 325.015 1139.32 324.635 1156.32 327.425C1156.32 327.425 1195.55 332.175 1224.15 352.455C1274.49 388.15 1303.66 477.52 1298.29 555.245C1296.38 582.88 1289.83 611.265 1307.8 632.5C1317.49 643.955 1333.57 647.76 1356.38 654.75C1403.77 669.27 1481.73 687.615 1513.07 751.055C1544.41 814.495 1548.23 903.92 1527.59 928.381C1506.95 952.841 1014.44 950.545 997.003 931.435C979.563 912.325 947.463 819.845 943.638 746.465C940.238 681.24 985.933 654.225 997.003 573.825C1004.71 517.835 996.428 470.12 988.278 438.66Z" fill="#262626"/>
<path d="M1269.25 431.565C1278.69 449.985 1292.24 479.69 1302.11 518.13C1317.71 578.865 1305.39 588.555 1319.69 611.945C1351.44 663.89 1420.37 632.17 1486.32 691.435C1523.3 724.675 1536.11 765.655 1540.43 780.1C1559.18 842.805 1541.69 896.59 1534.29 916.01" stroke="#262626" stroke-width="5" stroke-miterlimit="10" stroke-linecap="round" stroke-linejoin="round"/>
<path d="M1006.32 553.095C997.086 573.905 982.206 606.85 962.751 647.11C927.216 720.64 917.301 734 919.986 760.22C924.641 805.64 963.381 853.21 963.381 853.21" stroke="#262626" stroke-width="5" stroke-miterlimit="10" stroke-linecap="round" stroke-linejoin="round"/>
<path d="M1081.65 712.57C1081.65 712.57 1208.05 712.57 1208.6 712.57C1308.98 712.57 1418.93 784.41 1484.95 854.595C1537.76 910.74 1576.4 978.99 1605.72 1050.28C1643.91 1143.13 1681.31 1271.78 1634.6 1367.87C1627.62 1382.21 1611.81 1413.68 1578.28 1430.66C1541.39 1449.34 1502.85 1438.18 1490.9 1438.18C1412.94 1438.18 721.988 1438.39 721.988 1438.39C703.523 1258.91 739.098 1123.68 764.793 1049.9C788.663 981.355 816.583 903.965 889.448 830.475C959.233 760.1 1036.17 727.665 1081.65 712.57Z" fill="#45271C"/>
<path d="M1075.87 712.57L987.208 1441.5L929.888 1441.06L1018.68 735.31L1075.87 712.57Z" fill="#321C14"/>
<path d="M1144.88 766.216C1180.44 766.351 1209.37 737.636 1209.51 702.076L1210.03 563.526L1081.27 563.036L1080.74 701.591C1080.61 737.146 1109.32 766.081 1144.88 766.216Z" fill="#F7A99C"/>
<path d="M1080.89 662.806L1164.75 619.721C1163.9 626.981 1159.14 660.996 1129.22 684.486C1110.12 699.486 1090.05 702.911 1080.78 703.881L1080.89 662.806Z" fill="#FF7769"/>
<path d="M1213.16 520.6C1213.56 518.505 1219.08 515.346 1220.77 514.261C1223.64 512.431 1226.73 510.97 1229.97 509.925C1236.25 507.905 1243.15 507.436 1249.61 508.916C1262.45 511.861 1273.83 522.646 1275.96 535.856C1277.2 543.531 1275.43 551.465 1272.14 558.51C1267.2 569.1 1258.81 578 1248.68 583.835C1240.29 588.67 1230.74 591.405 1221.08 591.98C1219.15 592.095 1199.36 591.635 1199.51 590.88C1204.06 567.455 1208.61 544.03 1213.16 520.6Z" fill="#F7A99C"/>
<path d="M1230.81 521.941C1229.29 532.281 1220.2 586.806 1171.06 625.331C1162 632.426 1101.81 679.606 1046.75 656.581C975.983 626.996 983.703 510.766 984.203 504.471C985.888 483.191 990.858 420.516 1042.76 387.076C1085.12 359.786 1131.03 369.821 1137.54 371.351C1144.4 372.966 1188.1 383.991 1214.84 426.836C1239.1 465.716 1233.3 505.026 1230.81 521.941Z" fill="#F7A99C"/>
<path d="M1024.36 504.551C1023.22 513.626 1016.22 520.216 1008.73 519.276C1001.23 518.336 996.089 510.216 997.229 501.141C998.369 492.066 1005.36 485.471 1012.86 486.416C1020.35 487.361 1025.5 495.476 1024.36 504.551Z" fill="#262626"/>
<path d="M1106.13 514.82C1104.99 523.895 1097.99 530.485 1090.5 529.545C1083.01 528.605 1077.86 520.485 1079 511.41C1080.14 502.335 1087.14 495.745 1094.63 496.685C1102.12 497.625 1107.27 505.745 1106.13 514.82Z" fill="#262626"/>
<path d="M1049.05 518.131L1036.51 535.061C1034.21 538.171 1035.07 542.591 1038.38 544.606L1049.89 551.611" stroke="#262626" stroke-width="6.739" stroke-miterlimit="10" stroke-linecap="round" stroke-linejoin="round"/>
<path d="M1133.56 557.56C1132.28 567.74 1122.99 574.96 1112.81 573.68C1102.63 572.4 1095.41 563.11 1096.69 552.93C1097.97 542.75 1107.26 535.53 1117.44 536.81C1127.62 538.09 1134.84 547.38 1133.56 557.56Z" fill="#FF7769"/>
<path d="M1221.8 567.161C1221.74 565.121 1221.56 551.296 1232.66 541.321C1241.35 533.506 1251.46 532.996 1254.22 532.946" stroke="#262626" stroke-width="6.739" stroke-miterlimit="10" stroke-linecap="round" stroke-linejoin="round"/>
<path d="M1231.58 544.051C1232.2 543.956 1239.64 542.921 1244.83 548.546C1249.1 553.166 1248.71 558.886 1248.63 559.836" stroke="#262626" stroke-width="6.739" stroke-miterlimit="10" stroke-linecap="round" stroke-linejoin="round"/>
<path d="M993.832 528.176C990.312 527.736 986.922 528.366 983.907 529.726C984.267 539.701 985.227 551.801 987.417 564.636C988.012 564.771 988.582 564.966 989.202 565.046C999.382 566.326 1008.68 559.106 1009.95 548.926C1011.23 538.746 1004.02 529.456 993.832 528.176Z" fill="#FF7769"/>
<path d="M1032.01 585.555C1034.16 582.95 1040.83 575.54 1052.36 572.655C1065.43 569.39 1075.92 574.14 1078.73 575.52" stroke="#262626" stroke-width="6.739" stroke-miterlimit="10" stroke-linecap="round" stroke-linejoin="round"/>
<path d="M978.419 472.456H1059.44C1059.44 472.456 1062.49 446.086 1070.52 433.091C1078.55 420.096 1090.78 412.071 1090.78 412.071C1088.94 416.726 1086.84 422.891 1085.24 430.321C1084.09 435.621 1082.57 442.651 1082.66 451.816C1082.66 451.816 1082.69 455.286 1084.66 472.451H1154.98C1153.37 468.171 1149.9 457.271 1152.88 443.791C1155.48 432.026 1161.66 424.276 1164.75 420.861C1162.37 441.961 1165.04 458.771 1167.59 469.396C1172.04 487.921 1179.45 501.546 1184.98 511.721C1190.3 521.496 1195.51 529.301 1199.52 534.871C1199.52 534.871 1209.06 522.816 1216.8 518.131C1224.54 513.446 1232.44 509.226 1232.44 509.226C1234.22 500.011 1235.81 486.011 1233.33 469.401C1228.22 435.211 1209.25 412.871 1201.32 404.531C1174.43 376.241 1142.25 369.886 1130.53 367.746C1105.52 363.181 1085.47 366.991 1078.55 368.511C1073.14 369.701 1060.59 372.826 1045.97 380.456C1035.83 385.746 1007.11 401.156 990.084 434.916C986.049 442.901 980.779 455.616 978.419 472.456Z" fill="#262626"/>
<path d="M1064.5 718.601C1064.5 718.601 986.064 1039.97 976.894 1147.74C967.724 1255.51 964.284 1441.49 964.284 1441.49L721.989 1438.4C717.054 1403.6 712.639 1356.27 714.344 1300.23C718.339 1169.24 753.324 1071.82 767.084 1036.53C799.474 953.456 838.584 853.136 940.204 779.716C987.194 745.771 1032.9 728.151 1064.5 718.601Z" fill="#E09881"/>
<path d="M904.661 921.501L803.761 1439.45H864.151L904.661 921.501Z" fill="#E28E64"/>
<path d="M922.241 829.016C916.701 860.171 908.041 912.246 900.296 977.316C890.811 1057.01 892.236 1076.13 876.636 1279.82C871.961 1340.88 864.151 1439.45 864.151 1439.45" stroke="#262626" stroke-width="5" stroke-miterlimit="10" stroke-linecap="round" stroke-linejoin="round"/>
<path d="M1142.27 1323.73C1151.43 1333.23 1156.71 1342.35 1159.76 1348.67C1169.32 1368.52 1169.65 1387.39 1169.89 1400.74C1170.03 1408.69 1169.57 1415.29 1169.12 1419.85C1169.12 1419.85 1050.65 1381.63 1033.07 1383.16C1017.58 1384.5 940.393 1404.24 922.248 1408.92C919.728 1409.57 917.103 1409.5 914.613 1408.74L888.613 1400.74L864.098 1401.78C855.298 1402.16 849.268 1393.16 852.853 1385.11C853.743 1383.11 854.938 1380.94 856.513 1378.57C867.213 1362.52 877.913 1351.06 877.913 1351.06L838.628 1358.14C834.818 1358.16 828.578 1357.63 826.438 1353.81C823.248 1348.11 831.088 1338.49 836.448 1332.05C848.883 1317.1 862.473 1309.06 866.828 1306.54C882.178 1297.64 896.493 1289.34 919.948 1282.27C938.433 1276.7 989.333 1260.54 1051.99 1276.44C1093.05 1286.86 1123.2 1307.46 1142.27 1323.73Z" fill="#F7A99C"/>
<path d="M1136.01 1318.57C1136.53 1322.58 1139.28 1346.99 1121.73 1367.87C1102.18 1391.14 1073.77 1390.57 1070.32 1390.44L1169.12 1419.85C1169.12 1419.85 1169.85 1384.51 1168.11 1375.82C1166.36 1367.13 1160.28 1347.06 1154.01 1338.47C1147.74 1329.89 1136.01 1318.57 1136.01 1318.57Z" fill="#FF7769"/>
<path d="M888.614 1400.74C899.984 1388.3 919.594 1369.9 948.679 1355.38C976.089 1341.69 1001.07 1336.87 1017.4 1335" stroke="#262626" stroke-width="5" stroke-miterlimit="10" stroke-linecap="round" stroke-linejoin="round"/>
<path d="M864.098 1401.78C882.023 1371.22 901.863 1355.32 916.508 1346.47C916.508 1346.47 927.328 1339.94 984.153 1318.57" stroke="#262626" stroke-width="5" stroke-miterlimit="10" stroke-linecap="round" stroke-linejoin="round"/>
<path d="M876.129 1351.38C890.544 1330.1 905.594 1320.22 916.514 1315.13C935.934 1306.07 965.429 1301.37 965.429 1301.37" stroke="#262626" stroke-width="5" stroke-miterlimit="10" stroke-linecap="round" stroke-linejoin="round"/>
<path d="M1221.79 712.57C1221.79 712.57 1197.02 896.655 1193.58 1006.72C1190.14 1116.79 1186.62 1304.81 1186.62 1304.81L1142.27 1323.73C1142.27 1323.73 1163.44 1386.22 1164.75 1405.71C1166.06 1425.2 1164.75 1441.5 1164.75 1441.5C1229.6 1440.23 1282.31 1441.84 1318.54 1443.54C1349.37 1445 1395.27 1445.28 1487.08 1445.84C1519.72 1446.04 1547.31 1445.89 1578.28 1430.67C1581.94 1428.86 1613.05 1413.17 1636.12 1381.63C1651.06 1361.22 1674.5 1317.95 1661.34 1210.8C1655.81 1165.72 1636.6 1024.67 1527.2 890.925C1464.7 814.515 1403.02 777.47 1385.87 767.605C1333.83 737.695 1288.06 725.51 1278.55 723.05C1255.91 717.205 1236.32 714.215 1221.79 712.57Z" fill="#E09881"/>
<path d="M1370.66 1064.43C1371.84 1093.24 1369.87 1144.93 1343.39 1200.87C1329.22 1230.79 1312.01 1253.52 1297.53 1269.62C1329.12 1261.48 1360.71 1253.34 1392.31 1245.2L1370.66 1064.43Z" fill="#E28E64"/>
<path d="M1500.08 1221.12C1500.08 1221.12 1223.35 1289.15 1186.62 1304.82C1149.89 1320.49 1142.27 1323.74 1142.27 1323.74" stroke="#262626" stroke-width="5" stroke-miterlimit="10" stroke-linecap="round" stroke-linejoin="round"/>
<path d="M1521.48 934.495C1521.48 934.495 1657.53 1190.55 1617.02 1295.26C1610.82 1311.27 1597.14 1345.91 1562.92 1371.07C1530.82 1394.66 1496.24 1398.39 1436.64 1399.98C1384.52 1401.36 1315.2 1401.06 1232.56 1394.63" stroke="#FEEDE4" stroke-width="5" stroke-miterlimit="10" stroke-linecap="round" stroke-linejoin="round"/>
<path d="M1481.69 841.315C1425.56 863.54 1399.41 893.5 1386.19 913.86C1386.19 913.86 1345.64 976.32 1395.6 1247.27" stroke="#262626" stroke-width="5" stroke-miterlimit="10" stroke-linecap="round" stroke-linejoin="round"/>
<path d="M1154.9 1445.87H783.518V1401.38H1174.09V1426.68C1174.09 1437.28 1165.5 1445.87 1154.9 1445.87Z" fill="#321C14"/>
<path d="M824.163 1445.87H311.683C299.968 1445.87 289.313 1436.37 287.878 1424.66L241.343 1044.02C239.913 1032.31 248.248 1022.81 259.958 1022.81H772.443C784.158 1022.81 794.813 1032.31 796.248 1044.02L842.778 1424.66C844.213 1436.37 835.878 1445.87 824.163 1445.87Z" fill="#321C14"/>
<path d="M794.163 1445.87H281.683C269.968 1445.87 259.313 1436.37 257.878 1424.66L211.343 1044.02C209.913 1032.31 218.248 1022.81 229.958 1022.81H742.443C754.158 1022.81 764.813 1032.31 766.248 1044.02L812.778 1424.66C814.213 1436.37 805.878 1445.87 794.163 1445.87Z" fill="#EAAC9D"/>
<path d="M211.343 1044.02C215.053 1043.01 228.633 1161.68 306.188 1268.51C319.603 1286.98 343.803 1319.82 384.913 1351.82C384.913 1351.82 426.718 1384.36 582.493 1445.86C574.098 1445.86 565.698 1445.86 557.303 1445.86C536.648 1445.86 515.993 1445.86 495.333 1445.86C469.188 1445.86 443.043 1445.86 416.898 1445.86C392.038 1445.86 367.178 1445.86 342.313 1445.86C328.973 1445.86 315.638 1445.88 302.298 1445.87C291.673 1445.87 278.453 1448.24 268.968 1442.31C261.118 1437.4 257.688 1427.69 256.563 1418.5C255.768 1411.99 255.858 1405.42 255.128 1398.91C254.403 1392.47 253.158 1386.08 252.373 1379.63C250.653 1365.55 248.928 1351.46 247.208 1337.38C244.393 1314.35 241.578 1291.32 238.758 1268.28C235.723 1243.44 232.683 1218.6 229.648 1193.77C226.828 1170.7 224.008 1147.64 221.188 1124.58C219.023 1106.87 217.178 1089.12 214.693 1071.45C211.848 1051.18 210.438 1044.27 211.343 1044.02Z" fill="#E09881"/>
<path d="M229.963 1022.81H742.448C754.163 1022.81 764.818 1032.31 766.253 1044.02L812.783 1424.66" stroke="#262626" stroke-width="5" stroke-miterlimit="10" stroke-linecap="round" stroke-linejoin="round"/>
<path d="M526.893 1223.74C526.893 1240.04 513.678 1253.26 497.373 1253.26C481.068 1253.26 467.853 1240.04 467.853 1223.74C467.853 1207.43 481.068 1194.22 497.373 1194.22C513.673 1194.21 526.893 1207.43 526.893 1223.74Z" fill="#45271C"/>
<path d="M1620.84 835.13H1677.75C1702.73 835.13 1722.43 856.37 1720.56 881.28L1703.19 1112.58" stroke="#FEEDE4" stroke-width="5" stroke-miterlimit="10" stroke-linecap="round" stroke-linejoin="round"/>
<path d="M647.11 1102.99H55.295C26.415 1102.99 3 1079.59 3 1050.7V655.71C3 626.83 26.415 603.415 55.295 603.415H647.11C675.99 603.415 699.405 626.83 699.405 655.71V1050.7C699.405 1079.59 675.99 1102.99 647.11 1102.99Z" fill="#FEEDE4"/>
<path opacity="0.5" d="M699.405 679.345H3V655.71C3 626.83 26.415 603.415 55.295 603.415H647.11C675.99 603.415 699.405 626.83 699.405 655.71V679.345Z" fill="#D6D6D6"/>
<path d="M582.88 652.845H170.905C164.575 652.845 159.44 647.71 159.44 641.38C159.44 635.05 164.575 629.915 170.905 629.915H582.88C589.21 629.915 594.345 635.05 594.345 641.38C594.345 647.715 589.215 652.845 582.88 652.845Z" fill="#FEEDE4"/>
<path d="M53.0133 641.381C53.0133 646.556 48.8183 650.751 43.6483 650.751C38.4733 650.751 34.2783 646.556 34.2783 641.381C34.2783 636.206 38.4733 632.016 43.6483 632.016C48.8183 632.016 53.0133 636.211 53.0133 641.381Z" fill="#FEEDE4"/>
<path d="M87.9801 641.38C87.9801 646.555 83.7851 650.75 78.6101 650.75C73.4351 650.75 69.2451 646.555 69.2451 641.38C69.2451 636.205 73.4401 632.015 78.6101 632.015C83.7851 632.015 87.9801 636.21 87.9801 641.38Z" fill="#FEEDE4"/>
<path d="M122.374 641.381C122.374 646.556 118.179 650.751 113.009 650.751C107.834 650.751 103.639 646.556 103.639 641.381C103.639 636.206 107.834 632.016 113.009 632.016C118.179 632.016 122.374 636.211 122.374 641.381Z" fill="#FEEDE4"/>
<path d="M400.908 788.711L342.028 847.591L283.148 788.711L247.618 824.241L306.498 883.121L247.618 941.996L283.148 977.531L342.028 918.651L400.908 977.531L436.438 941.996L377.558 883.121L436.438 824.241L400.908 788.711Z" fill="#D6D6D6"/>
<path d="M647.11 1102.99H55.295C26.415 1102.99 3 1079.59 3 1050.7V655.71C3 626.83 26.415 603.415 55.295 603.415H647.11C675.99 603.415 699.405 626.83 699.405 655.71V1050.7C699.405 1079.59 675.99 1102.99 647.11 1102.99Z" stroke="#262626" stroke-width="5" stroke-miterlimit="10" stroke-linecap="round" stroke-linejoin="round"/>
<path d="M891.173 332.146L968.523 364.236" stroke="#45271C" stroke-width="5" stroke-miterlimit="10" stroke-linecap="round" stroke-linejoin="round"/>
<path d="M887.828 247.48L985.728 340.455" stroke="#45271C" stroke-width="5" stroke-miterlimit="10" stroke-linecap="round" stroke-linejoin="round"/>
<path d="M972.887 246.101L1008.92 321.696" stroke="#45271C" stroke-width="5" stroke-miterlimit="10" stroke-linecap="round" stroke-linejoin="round"/>
<path d="M1909.64 661.45C1916.66 643.06 1923.71 628.785 1930.8 618.635C1937.88 608.485 1947.26 600.275 1958.93 594.02C1965.75 590.19 1972.89 587.385 1980.36 585.59C1987.82 583.8 1994.92 581.595 2001.63 578.975C2008.34 576.36 2014.48 572.895 2020.05 568.595C2025.62 564.29 2030.13 557.625 2033.58 548.58C2039.41 533.31 2039.27 521.025 2033.17 511.735C2027.07 502.445 2018.25 495.6 2006.73 491.2C1990.2 484.895 1977.07 485.16 1967.33 491.975C1957.58 498.795 1948.96 509.7 1941.46 524.69L1881.15 501.68C1886.97 486.41 1894.75 473.485 1904.5 462.915C1914.24 452.35 1925.38 444.455 1937.91 439.235C1950.43 434.015 1964.05 431.535 1978.78 431.795C1993.49 432.05 2008.65 435.155 2024.24 441.1C2057.9 453.94 2081.86 470.94 2096.11 492.085C2110.36 513.235 2111.6 539.235 2099.83 570.1C2096.02 580.08 2091.68 588.415 2086.81 595.125C2081.92 601.83 2076.3 607.45 2069.93 611.985C2063.56 616.515 2056.4 620.305 2048.46 623.345C2040.51 626.39 2031.73 629.285 2022.11 632.04C2013.22 634.725 2005.82 637.525 1999.89 640.435C1993.95 643.35 1988.94 646.89 1984.86 651.04C1980.78 655.195 1977.38 659.885 1974.68 665.1C1971.97 670.32 1969.31 676.36 1966.7 683.215L1909.64 661.45ZM1873.35 750.985L1896.72 689.73L1959.84 713.81L1936.48 775.065L1873.35 750.985Z" fill="#E09881"/>
<path d="M282.005 344.78C277.535 333.345 274.805 323.8 273.82 316.14C272.835 308.48 273.725 300.76 276.49 292.975C278.035 288.35 280.15 284.06 282.85 280.095C285.545 276.14 287.895 272.145 289.9 268.12C291.9 264.1 293.285 259.925 294.055 255.605C294.82 251.285 294.11 246.315 291.91 240.69C288.195 231.195 282.985 225.58 276.27 223.845C269.555 222.11 262.615 222.65 255.45 225.455C245.175 229.475 239.22 235.1 237.58 242.33C235.94 249.565 236.53 258.215 239.35 268.285L201.85 282.95C198.135 273.455 196.31 264.225 196.38 255.26C196.45 246.3 198.28 237.985 201.875 230.32C205.47 222.66 210.72 215.8 217.625 209.745C224.525 203.695 232.825 198.77 242.52 194.98C263.45 186.795 281.64 184.6 297.09 188.385C312.535 192.18 324.015 203.665 331.515 222.85C333.94 229.055 335.43 234.725 335.995 239.87C336.55 245.015 336.31 249.97 335.27 254.735C334.225 259.5 332.51 264.25 330.115 268.985C327.72 273.725 324.88 278.74 321.595 284.05C318.62 289.015 316.375 293.415 314.855 297.245C313.34 301.08 312.505 304.815 312.365 308.44C312.22 312.075 312.62 315.665 313.555 319.2C314.49 322.745 315.8 326.65 317.465 330.91L282.005 344.78ZM302.785 401.345L287.89 363.265L327.135 347.915L342.03 385.995L302.785 401.345Z" fill="#E09881"/>
<path d="M2034.99 1439.45H1875.47L1864.82 1269.62H2045.62L2034.99 1439.45Z" fill="#45271C"/>
<path d="M2023.98 1269.62H1886.46V1124.84C1886.46 1086.86 1917.25 1056.08 1955.22 1056.08C1993.2 1056.08 2023.98 1086.86 2023.98 1124.84V1269.62Z" fill="#E28E64"/>
<mask id="mask0_768_6" style="mask-type:luminance" maskUnits="userSpaceOnUse" x="1886" y="1056" width="138" height="214">
<path d="M2023.98 1269.62H1886.46V1124.84C1886.46 1086.86 1917.25 1056.08 1955.22 1056.08C1993.2 1056.08 2023.98 1086.86 2023.98 1124.84V1269.62V1269.62Z" fill="white"/>
</mask>
<g mask="url(#mask0_768_6)">
<path d="M1911.59 1077.04C1911.59 1096.29 1900.03 1096.29 1900.03 1115.54C1900.03 1134.8 1911.59 1134.8 1911.59 1154.06C1911.59 1173.31 1900.03 1173.31 1900.03 1192.56C1900.03 1211.83 1911.59 1211.83 1911.59 1231.09C1911.59 1250.36 1900.03 1250.36 1900.03 1269.62" stroke="#262626" stroke-width="2.5" stroke-miterlimit="10" stroke-linecap="round" stroke-linejoin="round"/>
<path d="M1941.83 1058.95C1941.83 1080.01 1929.19 1080.01 1929.19 1101.07C1929.19 1122.14 1941.83 1122.14 1941.83 1143.21C1941.83 1164.27 1929.19 1164.27 1929.19 1185.33C1929.19 1206.4 1941.83 1206.4 1941.83 1227.48C1941.83 1248.55 1929.19 1248.55 1929.19 1269.63" stroke="#262626" stroke-width="2.5" stroke-miterlimit="10" stroke-linecap="round" stroke-linejoin="round"/>
<path d="M1986.32 1060.7C1986.32 1081.59 1973.79 1081.59 1973.79 1102.47C1973.79 1123.36 1986.32 1123.36 1986.32 1144.26C1986.32 1165.14 1973.79 1165.14 1973.79 1186.03C1973.79 1206.93 1986.32 1206.93 1986.32 1227.83C1986.32 1248.73 1973.79 1248.73 1973.79 1269.63" stroke="#262626" stroke-width="2.5" stroke-miterlimit="10" stroke-linecap="round" stroke-linejoin="round"/>
<path d="M2017.4 1085.88C2017.4 1104.25 2006.37 1104.25 2006.37 1122.62C2006.37 1140.99 2017.4 1140.99 2017.4 1159.36C2017.4 1177.73 2006.37 1177.73 2006.37 1196.1C2006.37 1214.48 2017.4 1214.48 2017.4 1232.86C2017.4 1251.24 2006.37 1251.24 2006.37 1269.62" stroke="#262626" stroke-width="2.5" stroke-miterlimit="10" stroke-linecap="round" stroke-linejoin="round"/>
</g>
<path d="M2045.62 1269.62L2034.99 1439.45H1875.47C1896.77 1433.67 1938.7 1419.21 1978.03 1382.22C2023.32 1339.62 2039.75 1291.04 2045.62 1269.62Z" fill="#321C14"/>
<path d="M2036.48 1296.61C2030 1312.7 2019.07 1334.86 2000.65 1357.75C1982.25 1380.62 1962.97 1396.02 1948.64 1405.79" stroke="#262626" stroke-width="2.5" stroke-miterlimit="10" stroke-linecap="round" stroke-linejoin="round"/>
</svg>
