<svg width="1303" height="1263" viewBox="0 0 1303 1263" fill="none" xmlns="http://www.w3.org/2000/svg">
<path d="M263.993 579.25C98.293 667.224 19.579 846.447 65.5375 995.062C106.445 1127.34 242.665 1224.19 365.584 1221.87C545.423 1218.47 609.255 1004.43 767.22 1028.14C878.105 1044.78 962.084 1167.57 986.316 1146.67C1002.5 1132.71 965.051 1077.9 987.132 1055.01C1012.59 1028.63 1086.43 1076.52 1095.62 1063.58C1109.85 1043.51 986.826 852.021 826.788 842.269C628.889 830.21 547.274 1106.59 360.302 1083.08C268.464 1071.53 180.235 991.277 156.914 893.284C133.065 793.075 178.822 681.567 273.82 611.328C270.544 600.636 267.269 589.943 263.993 579.25Z" fill="#45271C"/>
<path d="M1065.29 1060.03C1029.99 998.327 976.299 936.56 897.668 915.554C800.5 889.596 705.346 936.593 644.366 966.711C479.542 1048.12 473.42 1145.82 372.022 1155.51C259.068 1166.3 153.11 1055.9 105.701 971.437C79.3744 924.536 66.4174 877.267 61.3854 833.481C48.6614 887.617 49.4999 943.203 65.5369 995.062C106.444 1127.34 242.664 1224.19 365.583 1221.87C545.422 1218.47 609.254 1004.43 767.219 1028.14C878.104 1044.78 962.083 1167.57 986.315 1146.67C1002.5 1132.71 965.05 1077.9 987.131 1055.01C1003.31 1038.24 1039.04 1051.48 1065.29 1060.03Z" fill="#683B2B"/>
<path d="M1065.49 556.118C1082.85 558.862 1184.81 573.433 1251.55 508.374C1325.03 436.732 1301.08 321.874 1288.37 260.977C1259.58 122.919 1165.14 22.5472 1147.59 31.1357C1134.3 37.6432 1171.18 103.751 1142.87 132.726C1106.09 170.357 996.959 106.861 986.558 124.282C969.905 152.176 1254.54 306.86 1227.92 420.959C1220.05 454.671 1184.54 486.861 1154.68 503.649C1115.2 525.841 1077.06 525.918 1060.18 524.912C1061.95 535.314 1063.72 545.716 1065.49 556.118Z" fill="url(#paint0_linear_760_11)"/>
<path opacity="0.3" d="M1232.64 234.316C1186.53 191.873 1135.78 213.775 1071.99 170.526C1053.7 158.125 1038.86 143.425 1026.77 128.022C1006.11 122.044 990.219 118.15 986.559 124.281C969.905 152.175 1254.54 306.859 1227.92 420.958C1220.05 454.67 1184.54 486.86 1154.68 503.648C1115.2 525.84 1077.06 525.917 1060.18 524.911C1061.95 535.313 1063.72 545.715 1065.49 556.117C1081.76 558.689 1172.38 571.653 1238.63 519.679C1258.45 486.627 1273.68 447.349 1277.53 402.057C1279.85 374.911 1287.52 284.819 1232.64 234.316Z" fill="url(#paint1_linear_760_11)"/>
<path d="M625.121 78.0221C621.377 47.1966 598.56 22.1046 568.234 15.4271C473.955 -5.33439 385.048 -3.87739 301.009 17.7096C216.485 37.3081 136.923 77.0141 62.841 138.913C39.011 158.822 30.3355 191.609 41.2285 220.688C138.46 480.22 236.211 738.823 477.711 740.903C691.041 627.692 658.527 353.149 625.121 78.0221ZM243.419 381.14C193.807 380.798 153.881 338.074 153.881 338.074C153.881 338.074 194.392 295.904 244.004 296.246C293.615 296.588 333.54 339.312 333.54 339.312C333.54 339.312 293.03 381.482 243.419 381.14ZM449.243 624.39C382.578 640.679 297.699 527.68 297.699 527.68C297.699 527.68 359.676 546.951 426.341 530.662C493.006 514.373 539.114 468.694 539.114 468.694C539.114 468.694 515.908 608.102 449.243 624.39ZM519.704 313.634C475.84 336.815 420.448 318.078 420.448 318.078C420.448 318.078 436.173 261.756 480.037 238.574C523.9 215.393 579.293 234.13 579.293 234.13C579.293 234.13 563.567 290.452 519.704 313.634Z" fill="#E09881"/>
<path d="M55.5364 145.945C54.9409 146.602 54.3589 147.268 53.7899 147.943C36.9859 167.89 31.8519 195.659 41.2284 220.688C138.46 480.22 236.21 738.823 477.711 740.903L477.712 740.902C482.278 738.479 486.692 735.955 491.035 733.385C484.673 717.377 479.181 700.664 474.825 683.177C468.787 658.941 465.924 637.494 464.878 617.967C459.953 620.844 454.749 623.045 449.243 624.39C382.578 640.679 297.699 527.68 297.699 527.68C297.699 527.68 359.676 546.951 426.341 530.662C442.135 526.803 456.756 521.285 469.902 515.126C471.641 483.013 469.311 451.743 450.266 413.291C384.994 281.508 239.262 299.196 183.175 175.075C167.579 140.559 163.111 104.325 165.095 69.2139C163.067 70.3079 161.041 71.4199 159.019 72.5424C158.762 72.6854 158.503 72.8274 158.245 72.9714C156.34 74.0329 154.439 75.1084 152.54 76.1949C152.174 76.4044 151.807 76.6139 151.441 76.8249C149.595 77.8869 147.751 78.9599 145.911 80.0454C145.515 80.2789 145.118 80.5149 144.723 80.7494C142.888 81.8379 141.055 82.9349 139.227 84.0469C138.871 84.2629 138.517 84.4824 138.162 84.6994C136.278 85.8499 134.396 87.0084 132.519 88.1844C132.382 88.2704 132.244 88.3589 132.107 88.4449C126.038 92.2529 120.002 96.1969 113.999 100.271C113.693 100.478 113.387 100.68 113.083 100.888C111.638 101.872 110.197 102.874 108.756 103.875C107.92 104.455 107.082 105.031 106.247 105.617C104.969 106.512 103.696 107.421 102.422 108.328C101.422 109.041 100.422 109.753 99.4239 110.474C98.2439 111.325 97.0664 112.185 95.8899 113.046C94.7909 113.851 93.6924 114.659 92.5959 115.472C91.4924 116.291 90.3909 117.114 89.2894 117.942C88.1114 118.828 86.9354 119.721 85.7599 120.618C84.7284 121.404 83.6979 122.191 82.6689 122.986C81.3929 123.972 80.1199 124.968 78.8474 125.967C77.9169 126.697 76.9849 127.423 76.0554 128.16C74.5964 129.318 73.1399 130.491 71.6844 131.666C70.9394 132.267 70.1914 132.862 69.4479 133.468C67.2409 135.265 65.0389 137.077 62.8414 138.913C61.3524 140.158 59.9219 141.452 58.5519 142.793C57.5079 143.814 56.5104 144.871 55.5364 145.945ZM244.004 296.246C293.615 296.588 333.54 339.312 333.54 339.312C333.54 339.312 293.029 381.482 243.418 381.14C193.807 380.798 153.881 338.074 153.881 338.074C153.881 338.074 194.392 295.904 244.004 296.246Z" fill="#45271C"/>
<path d="M1237.94 125.564C1161.75 66.2679 1080.87 29.3409 995.713 12.6814C910.978 -5.98362 822.074 -4.36112 728.57 19.6529C698.493 27.3769 676.558 53.2434 673.884 84.1799C650.026 360.299 627.036 635.803 844.159 741.559C1085.44 731.119 1174.18 469.286 1262.37 206.542C1272.25 177.103 1262.44 144.637 1237.94 125.564ZM824.442 239.612C869.081 261.261 886.747 317.004 886.747 317.004C886.747 317.004 832.037 337.648 787.397 315.999C742.757 294.351 725.091 238.607 725.091 238.607C725.091 238.607 779.801 217.964 824.442 239.612ZM880.435 567.092C813.246 553.121 753.724 566.104 753.724 566.104C753.724 566.104 827.835 482.964 895.023 496.935C962.212 510.905 997.038 616.696 997.038 616.696C997.038 616.696 947.624 581.062 880.435 567.092ZM1065.85 373.899C1016.28 375.959 974.337 335.217 974.337 335.217C974.337 335.217 1012.76 291.136 1062.33 289.076C1111.9 287.017 1153.85 327.758 1153.85 327.758C1153.85 327.758 1115.42 371.839 1065.85 373.899Z" fill="#45271C"/>
<path d="M844.159 741.559C844.164 741.559 844.169 741.558 844.174 741.558C849.333 741.334 854.399 740.954 859.42 740.504C860.563 723.316 862.794 705.866 866.384 688.206C876.565 638.103 893.711 604.228 910.591 575.036C901.056 572.003 890.965 569.281 880.436 567.092C813.246 553.122 753.725 566.104 753.725 566.104C753.725 566.104 827.835 482.965 895.023 496.935C912.289 500.525 927.412 510.186 940.361 522.55C952.518 497.773 960.863 470.961 960.301 433.998C958.061 286.953 818.892 240.237 821.649 104.059C822.415 66.1918 833.968 31.5593 850.862 0.715332C848.559 0.830332 846.251 0.96333 843.942 1.10733C843.649 1.12533 843.356 1.14232 843.063 1.16132C840.887 1.29982 838.707 1.45334 836.525 1.61734C836.103 1.64884 835.682 1.68084 835.26 1.71384C833.139 1.87784 831.016 2.05333 828.891 2.24133C828.428 2.28233 827.965 2.32584 827.502 2.36734C825.378 2.56034 823.253 2.76234 821.125 2.97934C820.717 3.02084 820.307 3.06633 819.899 3.10883C817.697 3.33783 815.493 3.57482 813.287 3.82932C813.14 3.84632 812.992 3.86532 812.845 3.88232C805.691 4.71332 798.508 5.68232 791.299 6.78482C790.963 6.83582 790.627 6.88281 790.291 6.93481C788.552 7.20381 786.809 7.49083 785.067 7.77533C784.072 7.93783 783.078 8.09582 782.082 8.26382C780.54 8.52382 778.995 8.79632 777.451 9.06882C776.245 9.28132 775.04 9.49332 773.834 9.71332C772.396 9.97532 770.956 10.2463 769.516 10.5193C768.188 10.7713 766.859 11.0263 765.529 11.2873C764.173 11.5533 762.816 11.8238 761.458 12.0993C760.02 12.3913 758.58 12.6903 757.14 12.9928C755.866 13.2603 754.593 13.5283 753.317 13.8043C751.747 14.1443 750.175 14.4948 748.602 14.8478C747.441 15.1078 746.28 15.3648 745.118 15.6318C743.33 16.0423 741.541 16.4683 739.752 16.8953C738.787 17.1258 737.824 17.3483 736.858 17.5833C734.142 18.2448 731.422 18.9223 728.698 19.6213C728.656 19.6323 728.613 19.6423 728.571 19.6533C726.691 20.1363 724.843 20.6898 723.029 21.3108C722.122 21.6213 721.225 21.9488 720.335 22.2933C716.778 23.6698 713.365 25.3103 710.118 27.1898C707.681 28.5998 705.339 30.1438 703.099 31.8108C700.858 33.4783 698.718 35.2693 696.691 37.1728C696.015 37.8073 695.352 38.4548 694.702 39.1138C684.94 49.0028 678.036 61.6213 675.136 75.6233C674.556 78.4238 674.136 81.2798 673.885 84.1798C673.512 88.4943 673.14 92.8083 672.768 97.1218C649.367 368.867 630.429 637.455 844.159 741.559ZM824.442 239.612C869.081 261.261 886.748 317.004 886.748 317.004C886.748 317.004 832.037 337.648 787.397 315.999C742.757 294.351 725.091 238.607 725.091 238.607C725.091 238.607 779.801 217.964 824.442 239.612Z" fill="#E09881"/>
<path d="M905.744 555.463C906.324 559.096 906.905 562.728 907.486 566.361C833.175 609.84 820.294 625.967 822.954 632.516C825.879 639.718 847.149 634.234 887.534 644.067C913.37 650.358 928.615 654.07 933.738 665.069C943.904 686.895 912.727 734.228 873.292 745.195C818.069 760.552 746.519 704.633 746.298 655.093C746.087 607.913 810.504 551.515 905.744 555.463Z" fill="#45271C"/>
<path opacity="0.3" d="M839.23 671.895C808.149 651.356 780.443 652.034 773.075 632.517C769.717 623.622 770.611 610.591 784.008 590.707C759.885 609.573 746.201 633.313 746.298 655.093C746.519 704.633 818.068 760.552 873.291 745.195C880.02 743.324 886.499 740.375 892.583 736.693C881.401 712.505 864.688 688.718 839.23 671.895Z" fill="#45271C"/>
<path d="M878.822 1203L840.989 1225.03L913.22 1219.64L908.933 1198.82L878.822 1203Z" fill="url(#paint2_linear_760_11)"/>
<path d="M999.636 573.823C1008.15 578.335 1011.79 579.799 1017.56 582.654C1019.72 583.724 1059.8 603.77 1078.12 623.066C1103.7 649.991 1083.01 671.351 1102.8 709.697C1129.87 762.152 1186.41 756.729 1194.16 796.854C1200.06 827.446 1172 855.461 1166.57 860.619C1120.34 904.53 1026.49 895.262 983.616 846.733C952.116 811.08 952.556 759.253 952.639 749.6C953.038 702.677 975.011 680.802 959.989 644.066C953.325 627.768 944.081 620.045 943.713 601.013C943.333 581.292 952.659 558.551 965.24 556.385C971.95 555.229 974.937 560.729 999.636 573.823Z" fill="#683B2B"/>
<path d="M1003.25 616.686C1009.97 620.427 1012.83 621.641 1017.38 624.008C1019.08 624.894 1050.68 641.514 1065.13 657.512C1085.29 679.836 1068.98 697.546 1084.59 729.339C1105.93 772.829 1150.5 768.332 1156.61 801.6C1161.27 826.964 1139.14 850.192 1134.86 854.469C1098.42 890.876 1024.43 883.191 990.624 842.955C965.79 813.396 966.138 770.427 966.203 762.423C966.517 723.52 983.84 705.383 971.997 674.925C966.743 661.412 959.456 655.01 959.166 639.23C958.866 622.879 966.219 604.025 976.137 602.228C981.427 601.269 983.781 605.83 1003.25 616.686Z" fill="#E09881"/>
<path d="M948.18 633.298C956.551 662.581 948.187 671.397 957.642 681.197C972.769 696.876 1010.18 687.718 1032.74 672.327C1041 666.695 1059.07 654.393 1058.17 639.211C1057.17 622.294 1033.74 620.643 1027.46 598.652C1022.11 579.929 1036.47 571.946 1032.18 553.761C1026.98 531.694 999.058 517.509 976.266 515.17C974.414 514.98 934.962 511.427 922.129 534.416C915.337 546.585 919.27 560.337 924.842 579.817C932.638 607.074 941.061 608.397 948.18 633.298Z" fill="#683B2B"/>
<path d="M887.533 644.067C918.686 650.542 949.838 657.018 980.991 663.493C984.241 670.595 988.414 681.945 988.866 696.046C989.905 728.446 970.274 743.499 962.615 767.451C948.591 811.305 981.046 865.13 1008.29 891.886C1050.11 932.944 1084.1 914.614 1124.33 956.466C1149.44 982.592 1143.65 997.489 1167.38 1048.35C1216.03 1152.59 1280.23 1175.44 1268.71 1207.44C1256.47 1241.47 1173.18 1245.24 1126.43 1240.51C1052.74 1233.05 1033.98 1200.84 959.26 1200.33C900.685 1199.94 894.167 1219.62 869.158 1209.54C791.438 1178.21 798.405 965.587 827.155 826.78C844.235 744.316 870.456 680.891 887.533 644.067Z" fill="#E09881"/>
<path d="M1057.12 1079.85C1014.49 1082.33 1008.68 1147.13 962.09 1154.41C899.682 1164.15 838.387 1059.09 835.555 1054.12C821.809 1030.02 813.11 1005.25 807.992 980.984C803.199 1087.34 817.383 1188.67 869.158 1209.54C894.168 1219.62 900.685 1199.94 959.26 1200.33C1033.98 1200.84 1052.74 1233.06 1126.43 1240.51C1173.18 1245.25 1256.47 1241.47 1268.71 1207.44C1269.84 1204.29 1270.24 1201.24 1269.99 1198.19C1240.74 1197.32 1208.77 1191.21 1178.41 1174.36C1113.71 1138.45 1098.89 1077.43 1057.12 1079.85Z" fill="#683B2B"/>
<path d="M1120.79 918.657C1120.79 918.657 1164.76 903.509 1170.27 901.11C1175.78 898.712 1150.53 923.177 1139.55 923.792C1128.58 924.406 1130.63 927.963 1133.78 935.914C1136.93 943.865 1126.17 932.314 1120.79 929.164C1115.4 926.014 1112.54 919.801 1112.54 919.801V911.735L1120.79 918.657Z" fill="url(#paint3_linear_760_11)"/>
<path d="M1111.2 928.639C1113.65 922.689 1116.1 916.738 1118.55 910.788C1108.76 893.534 1092.96 864.533 1076.02 827.306C1032.13 730.803 1021.79 669.438 985.716 663.494C973.133 661.42 958.223 664.645 950.538 673.994C929.032 700.158 969.955 765.309 989.127 795.831C1011.46 831.387 1048.95 880.718 1111.2 928.639Z" fill="#45271C"/>
<path d="M944.453 628.069C944.453 628.069 929.624 649.788 907.941 648.309L893.574 680.295C893.574 680.295 954.484 694.1 954.086 691.66C953.689 689.221 964.498 660.065 964.498 660.065C964.498 660.065 957.871 651.525 968.636 624.296L944.453 628.069Z" fill="url(#paint4_linear_760_11)"/>
<path d="M971.497 627.617C971.497 627.617 946.328 647.89 920.342 629.618C897.071 613.256 930.42 550.76 952.936 548.669C960.444 547.974 972.68 552.471 979.652 559.956C984.556 565.22 995.03 589.011 980.107 608.492C987.135 608.359 992.409 611.619 992.975 615.235C993.699 619.82 986.674 623.909 985.087 624.836C979.573 628.049 974.014 627.866 971.497 627.617Z" fill="url(#paint5_linear_760_11)"/>
<path d="M933.534 510.873C933.534 510.873 942.402 535.132 937.413 548.956C932.424 562.781 907.486 566.362 907.486 566.362L905.744 555.463C905.744 555.463 925.354 550.161 922.454 543.489C919.554 536.817 926.023 514.847 933.534 510.873Z" fill="url(#paint6_linear_760_11)"/>
<path d="M683.207 555.914C667.331 579.512 642.01 611.551 604.077 641.978C567.364 671.425 531.821 688.947 505.875 699.363C490.607 747.193 495.225 766.078 504.374 773.484C530.077 794.288 619.637 747.245 662.862 674.686C687.665 633.052 692.355 591.171 692.79 564.952C689.595 561.939 686.401 558.926 683.207 555.914Z" fill="#DADFE5"/>
<path d="M682.656 564.029C682.656 564.029 691.69 554.245 690.105 546.279C688.519 538.314 697.514 539.953 704.865 549.827C712.215 559.701 709.192 566.912 709.192 566.912C709.192 566.912 690.516 564.427 686.927 569.152C683.338 573.877 682.656 564.029 682.656 564.029Z" fill="url(#paint7_linear_760_11)"/>
<path d="M705.39 530.795L841.879 357.465L925.405 313.958L900.698 406.389L715.89 539.35L705.39 530.795Z" fill="white"/>
<path d="M917.959 323.958L713.266 531.805L715.89 535.103L894.845 403.764L917.959 323.958Z" fill="url(#paint8_linear_760_11)"/>
<path d="M677.392 530.922C677.392 530.922 697.513 509.556 715.89 527.803C734.267 546.051 718.539 563.377 712.752 569.153L677.392 530.922Z" fill="url(#paint9_linear_760_11)"/>
<path opacity="0.3" d="M638.71 676.261C618.069 683.839 604.892 677.505 583.58 680.986C559.214 684.967 528.211 701.144 496.013 752.466C496.546 763.534 499.918 769.877 504.374 773.483C530.076 794.288 619.636 747.245 662.862 674.686C668.843 664.645 673.645 654.593 677.509 644.747C667.567 658.764 654.919 670.309 638.71 676.261Z" fill="#C1CAD4"/>
<path d="M436.269 573.631C434.357 571.321 430.758 571.513 429.103 574.013L427.527 576.394C426.148 578.476 426.745 581.284 428.851 582.626L439.016 589.104L445.373 584.634L436.269 573.631Z" fill="url(#paint10_linear_760_11)"/>
<path d="M524.8 1097.55L519.355 1113.44C519.355 1113.44 550.343 1116.08 559.255 1130.6L510.125 1129.42C505.237 1129.31 502.211 1124.05 504.563 1119.77L515.113 1100.54L524.8 1097.55Z" fill="#45271C"/>
<path d="M456.52 890.477C502.149 890.874 538.016 889.295 562.62 887.749C583.064 886.464 598.9 885.003 606.005 894.444C616.388 908.241 600.911 935.74 592.505 951.382C574.188 985.465 550.603 1035.53 527.241 1106.22C520.294 1106.59 513.346 1106.95 506.399 1107.32C505.797 1095.35 505.381 1078.35 506.399 1057.96C507.922 1027.45 508.792 1010.04 516.34 989.99C520.969 977.696 530.45 958.194 551.064 938.335C470.982 959.711 427.194 962.91 419.693 947.934C414.486 937.539 426.761 918.387 456.52 890.477Z" fill="#45271C"/>
<path opacity="0.3" d="M531.602 999.16C544.676 978.159 571.706 971.722 579.643 940.093C582.522 928.621 586.398 913.175 578.856 906.228C562.316 890.995 516.133 939.895 470.172 926.705C457.557 923.084 447.579 915.531 439.814 907.199C422.313 926.185 415.602 939.764 419.694 947.933C427.196 962.91 470.984 959.711 551.065 938.335C530.45 958.194 520.97 977.695 516.341 989.989C508.793 1010.04 507.923 1027.45 506.4 1057.96C505.382 1078.35 505.798 1095.35 506.4 1107.32C513.347 1106.95 520.295 1106.59 527.242 1106.22C529.905 1098.16 532.57 1090.39 535.23 1082.86C517.795 1038.91 522.307 1014.09 531.602 999.16Z" fill="url(#paint11_linear_760_11)"/>
<path d="M377.24 1026.46C369.372 1035.91 341.839 1068.96 305.834 1068.47C275.066 1068.04 268.119 1043.53 233.378 1028.56C170.879 1001.64 131.577 1054.36 74.8161 1032.76C22.4356 1012.84 -12.8914 941.769 4.46107 912.004C21.8076 882.25 82.3136 910.028 154.622 888.902C236.313 865.035 215.447 795.383 316.335 735.59C371.775 702.734 421.522 694.971 454.365 690.18C473.675 687.363 534.613 678.474 540.372 694.157C546.557 711.002 477.82 725.514 437.094 785.995C380.348 870.266 442.012 948.702 377.24 1026.46Z" fill="#683B2B"/>
<path d="M439.016 709.792C412.167 726.608 409.306 745.152 364.182 778.706C315.897 814.609 303.925 804.716 269.081 832.198C208.066 880.319 227.094 924.6 173.523 958.208C169.528 960.714 108.832 997.408 46.4635 968.708C25.9275 959.258 10.905 945.337 0.0305176 931.192C0.177518 965.339 31.705 1016.36 74.8155 1032.76C131.576 1054.36 170.878 1001.64 233.378 1028.56C268.118 1043.53 275.065 1068.04 305.833 1068.47C341.838 1068.96 369.371 1035.91 377.239 1026.46C442.012 948.702 380.348 870.265 437.094 785.994C477.237 726.378 544.593 711.425 540.587 694.877C490.91 687.142 459.563 696.923 439.016 709.792Z" fill="#E09881"/>
<path d="M319.175 1225.8L311.747 1243.75C311.747 1243.75 346.439 1250.61 346.788 1262.21H297.554C293.217 1262.21 290.442 1257.59 292.479 1253.76L305.141 1229.96L319.175 1225.8Z" fill="#45271C"/>
<path d="M464.582 909.876C438.368 965.98 412.25 1023.32 386.304 1081.9C362.825 1134.91 340.189 1187.34 318.364 1239.14C311.737 1238.43 305.111 1237.72 298.484 1237C292.289 1208.5 288.314 1167.83 304.267 1125.94C316.093 1094.88 326.84 1094.74 341.012 1061.64C368.259 998.003 344.21 961.913 369.364 932.48C381.645 918.11 406.832 903.948 464.582 909.876Z" fill="#45271C"/>
<path d="M424.493 700.412C426.384 699.427 441.706 699.041 472.272 698.312C530.627 696.918 532.931 697.069 535.809 699.892C559.343 722.979 510.572 816.243 471.508 870.958C469.889 873.226 468.535 875.08 467.637 876.302C482.531 879.291 486.985 883.901 488.023 887.852C492.094 903.357 451.522 939.157 405.104 946.796C379.561 950.999 362.158 945.044 343.555 959.45C329.329 970.467 325.078 985.124 322.109 983.934C318.055 982.309 322.991 953.777 335.261 926.429C349.762 894.108 365.153 884.294 379.339 864.225C426.788 797.1 386.614 720.146 424.493 700.412Z" fill="#CCB6AE"/>
<path d="M488.563 662.082C488.563 662.082 481.085 693.431 460.494 696.575C439.903 699.719 496.137 711.852 504.782 711.301C513.427 710.75 512.432 698.681 504.782 696.575C497.132 694.469 507.665 670.521 507.665 670.521L488.563 662.082Z" fill="url(#paint12_linear_760_11)"/>
<path d="M510.899 595.227C513.87 601.367 545.945 653.041 528.01 673.314C510.075 693.587 477.446 664.875 477.446 664.875C477.446 664.875 472.28 668.837 461.771 660.528C451.262 652.22 510.899 595.227 510.899 595.227Z" fill="url(#paint13_linear_760_11)"/>
<path d="M454.907 658.409C453.37 656.834 416.023 616.176 436.009 583.738C455.995 551.3 499.404 582.487 499.404 582.487L454.907 658.409Z" fill="#683B2B"/>
<path d="M449.642 658.409L460.529 665.682C460.529 665.682 471.8 636.336 500.438 614.809C522.179 598.465 539.146 583.32 546.057 576.973C547.493 575.654 546.837 573.27 544.931 572.857L515.956 566.581C507.725 564.798 499.191 567.762 493.86 574.282C480.154 591.043 455.187 625.305 449.642 658.409Z" fill="#45271C"/>
<path d="M435.242 575.942C432.42 565.596 426.901 549.979 415.435 534.009C409.021 525.077 400.86 516.193 367.696 492.029C335.081 468.266 318.772 456.384 308.629 454.435C292.407 451.319 276.382 455.025 231.278 480.945C158.918 522.527 122.737 543.318 124.17 566.526C125.908 594.68 169.328 624.394 203.45 619.03C239.85 613.309 256.958 569.041 271.959 575.179C285.845 580.86 271.432 618.894 292.708 636.882C307.579 649.455 336.248 649.157 353.612 636.357C385.403 612.92 370.03 554.404 389.84 548.675C397.621 546.425 408.689 557.183 419.566 567.166C425.278 572.409 429.487 577.431 432.369 581.228C433.326 579.466 434.285 577.704 435.242 575.942Z" fill="#683B2B"/>
<path d="M397.191 530.824C388.136 527.444 375.347 526.34 363.063 530.824C333.779 541.513 331.245 577.845 315.802 578.681C294.476 579.835 289.97 511.066 259.105 504.047C221.665 495.533 183.417 586.519 148.321 577.552C138.543 575.054 131.748 565.492 126.971 554.28C124.868 558.372 123.916 562.412 124.17 566.526C125.908 594.68 169.328 624.394 203.45 619.03C239.85 613.309 256.958 569.041 271.959 575.179C285.845 580.86 271.432 618.894 292.708 636.882C307.579 649.455 336.248 649.157 353.612 636.357C385.403 612.92 370.03 554.404 389.84 548.675C397.621 546.425 408.689 557.183 419.566 567.166C425.278 572.409 429.487 577.431 432.369 581.228C432.544 580.904 432.72 580.581 432.896 580.258C427.766 555.827 414.599 537.321 397.191 530.824Z" fill="#683B2B"/>
<path d="M378.027 909.378C397.781 884.122 440.388 892.751 448.12 870C453.422 854.403 436.792 840.36 426.069 819.596C413.812 795.863 407.041 758.973 427.07 699.906C425.716 700.057 424.855 700.224 424.494 700.412C386.616 720.146 426.789 797.1 379.34 864.224C365.154 884.293 349.764 894.107 335.262 926.429C322.992 953.776 318.056 982.309 322.111 983.934C325.08 985.124 329.33 970.467 343.557 959.45C351.971 952.933 360.142 950.588 368.93 949.579C367.115 929.281 371.977 917.113 378.027 909.378Z" fill="#683B2B"/>
<path d="M358.338 881.551C353.957 881.077 308.41 875.457 291.658 839.548C281.829 818.48 286.996 797.883 289.265 789.353C305.713 727.543 389.456 683.332 442.428 702.905C450.893 706.033 460.037 709.411 461.771 716.688C468.512 744.966 350.027 776.109 347.68 831.014C346.917 848.886 358.688 863.889 367.789 873.15C364.639 875.951 361.488 878.751 358.338 881.551Z" fill="#CCB6AE"/>
<path d="M358.988 883.231C358.988 883.231 363.491 889.7 372.402 886.681C381.314 883.661 384.594 874.22 389.314 874.901C394.035 875.583 410.131 872.449 410.131 872.449C410.131 872.449 402.575 866.953 389.107 865.701C375.638 864.449 366.032 871.872 366.032 871.872C366.032 871.872 352.85 876.001 358.988 883.231Z" fill="url(#paint14_linear_760_11)"/>
<path d="M1229.66 406.866C1254.32 401.677 1278.67 394.787 1302.06 385.504C1304.54 338.521 1294.95 292.513 1288.37 260.977C1259.58 122.919 1165.14 22.5467 1147.59 31.1352C1134.3 37.6427 1171.18 103.75 1142.87 132.726C1106.09 170.356 996.959 106.861 986.559 124.281C970.582 151.043 1231.91 294.503 1229.66 406.866Z" fill="url(#paint15_linear_760_11)"/>
<path opacity="0.3" d="M1229.66 406.865C1246.03 403.42 1262.27 399.225 1278.18 394.079C1280.69 360.269 1282.98 280.641 1232.64 234.316C1186.53 191.873 1135.78 213.775 1071.99 170.526C1053.7 158.125 1038.86 143.425 1026.77 128.022C1006.11 122.044 990.219 118.15 986.559 124.281C970.582 151.042 1231.91 294.503 1229.66 406.865Z" fill="url(#paint16_linear_760_11)"/>
<path d="M826.789 842.269C768.047 838.69 719.55 860.524 675.503 892.384C682.654 939.498 689.714 986.642 695.409 1033.96C717.398 1026.85 741.008 1024.2 767.22 1028.14C878.106 1044.78 962.085 1167.57 986.316 1146.67C1002.5 1132.71 965.051 1077.9 987.133 1055.01C1012.59 1028.63 1086.43 1076.52 1095.62 1063.58C1109.85 1043.51 986.827 852.021 826.789 842.269Z" fill="#F6EAE6"/>
<path opacity="0.3" d="M1065.29 1060.03C1029.99 998.327 976.3 936.56 897.668 915.554C819.487 894.668 742.614 921.013 683.791 947.794C687.985 976.472 691.945 1005.18 695.409 1033.96C717.397 1026.85 741.007 1024.2 767.219 1028.14C878.105 1044.78 962.084 1167.57 986.315 1146.67C1002.5 1132.71 965.051 1077.9 987.132 1055.01C1003.31 1038.24 1039.04 1051.48 1065.29 1060.03Z" fill="#683B2B"/>
<defs>
<linearGradient id="paint0_linear_760_11" x1="1132.88" y1="133.331" x2="1184.85" y2="622.383" gradientUnits="userSpaceOnUse">
<stop stop-color="#FFC444"/>
<stop offset="0.9964" stop-color="#F36F56"/>
</linearGradient>
<linearGradient id="paint1_linear_760_11" x1="985.855" y1="340.306" x2="1279.25" y2="340.306" gradientUnits="userSpaceOnUse">
<stop stop-color="#FFC444"/>
<stop offset="0.9964" stop-color="#F36F56"/>
</linearGradient>
<linearGradient id="paint2_linear_760_11" x1="840.988" y1="1211.93" x2="913.22" y2="1211.93" gradientUnits="userSpaceOnUse">
<stop stop-color="#444B8C"/>
<stop offset="0.9964" stop-color="#26264F"/>
</linearGradient>
<linearGradient id="paint3_linear_760_11" x1="1124.78" y1="934.001" x2="867.26" y2="1349.81" gradientUnits="userSpaceOnUse">
<stop stop-color="#FFC444"/>
<stop offset="0.9964" stop-color="#F36F56"/>
</linearGradient>
<linearGradient id="paint4_linear_760_11" x1="920.288" y1="695.011" x2="975.417" y2="554.825" gradientUnits="userSpaceOnUse">
<stop stop-color="#FFC444"/>
<stop offset="0.9964" stop-color="#F36F56"/>
</linearGradient>
<linearGradient id="paint5_linear_760_11" x1="930.147" y1="598.857" x2="1265.34" y2="502.905" gradientUnits="userSpaceOnUse">
<stop stop-color="#FFC444"/>
<stop offset="0.9964" stop-color="#F36F56"/>
</linearGradient>
<linearGradient id="paint6_linear_760_11" x1="806.595" y1="736.946" x2="549.075" y2="1152.76" gradientUnits="userSpaceOnUse">
<stop stop-color="#FFC444"/>
<stop offset="0.9964" stop-color="#F36F56"/>
</linearGradient>
<linearGradient id="paint7_linear_760_11" x1="692.287" y1="574.673" x2="718.276" y2="505.368" gradientUnits="userSpaceOnUse">
<stop stop-color="#FFC444"/>
<stop offset="0.9964" stop-color="#F36F56"/>
</linearGradient>
<linearGradient id="paint8_linear_760_11" x1="713.266" y1="429.531" x2="917.959" y2="429.531" gradientUnits="userSpaceOnUse">
<stop offset="0.494" stop-color="#EBEFF2"/>
<stop offset="1" stop-color="white"/>
</linearGradient>
<linearGradient id="paint9_linear_760_11" x1="677.392" y1="544.791" x2="724.541" y2="544.791" gradientUnits="userSpaceOnUse">
<stop offset="0.494" stop-color="#EBEFF2"/>
<stop offset="1" stop-color="white"/>
</linearGradient>
<linearGradient id="paint10_linear_760_11" x1="426.784" y1="580.558" x2="445.373" y2="580.558" gradientUnits="userSpaceOnUse">
<stop stop-color="#444B8C"/>
<stop offset="0.9964" stop-color="#26264F"/>
</linearGradient>
<linearGradient id="paint11_linear_760_11" x1="511.863" y1="914.018" x2="420.506" y2="1169.19" gradientUnits="userSpaceOnUse">
<stop stop-color="#444B8C"/>
<stop offset="0.9964" stop-color="#26264F"/>
</linearGradient>
<linearGradient id="paint12_linear_760_11" x1="478.822" y1="733.258" x2="489.061" y2="663.953" gradientUnits="userSpaceOnUse">
<stop stop-color="#FFC444"/>
<stop offset="0.9964" stop-color="#F36F56"/>
</linearGradient>
<linearGradient id="paint13_linear_760_11" x1="509.69" y1="659.394" x2="402.581" y2="515.27" gradientUnits="userSpaceOnUse">
<stop stop-color="#FFC444"/>
<stop offset="0.9964" stop-color="#F36F56"/>
</linearGradient>
<linearGradient id="paint14_linear_760_11" x1="403.167" y1="851.524" x2="319.686" y2="953.12" gradientUnits="userSpaceOnUse">
<stop stop-color="#FFC444"/>
<stop offset="0.9964" stop-color="#F36F56"/>
</linearGradient>
<linearGradient id="paint15_linear_760_11" x1="1132.88" y1="133.331" x2="1184.85" y2="622.383" gradientUnits="userSpaceOnUse">
<stop stop-color="#FFC444"/>
<stop offset="0.9964" stop-color="#F36F56"/>
</linearGradient>
<linearGradient id="paint16_linear_760_11" x1="985.855" y1="264.026" x2="1279.25" y2="264.026" gradientUnits="userSpaceOnUse">
<stop stop-color="#FFC444"/>
<stop offset="0.9964" stop-color="#F36F56"/>
</linearGradient>
</defs>
</svg>
