<svg width="1064" height="975" viewBox="0 0 1064 975" fill="none" xmlns="http://www.w3.org/2000/svg">
<path d="M609.759 345.32C616.413 338.474 623.172 331.484 627.426 322.937C636.606 304.49 624.243 273.335 600.246 274.208C586.569 274.706 576.075 285.824 570.054 295.001C567.69 298.604 567.486 301.676 569.334 305.852C574.095 316.598 581.634 327.404 592.713 334.481C609.981 345.512 606.591 339.638 609.981 345.512" fill="#E09881"/>
<path d="M588.087 394.963C592.026 389.05 595.104 382.642 597.765 376.099C600.468 369.571 602.709 362.86 604.524 356.038C606.276 349.204 607.95 342.346 609.096 335.38C610.347 328.39 611.661 321.316 613.551 314.434C617.298 300.628 622.572 287.389 626.13 273.76C629.805 260.14 630.906 245.942 630.342 231.74C631.158 238.796 631.587 245.927 631.302 253.07C630.933 260.204 629.928 267.316 628.374 274.303C626.874 281.308 624.645 288.106 622.509 294.871C620.346 301.636 618.24 308.386 616.446 315.211C614.487 322.003 613.119 328.892 611.778 335.861C610.485 342.884 608.856 349.858 606.729 356.68C602.478 370.267 596.853 383.701 588.087 394.963Z" fill="#242424"/>
<path d="M630.393 244.868C630.393 244.868 641.832 230.879 648.642 219.008C655.452 207.137 650.55 188.036 646.899 182.36C643.248 176.684 636.342 174.596 634.233 173.813C632.124 173.03 624.759 176.054 624.759 176.054C624.759 176.054 622.338 176.114 618.336 176.546C614.334 176.981 599.922 195.524 603.633 203.621C607.344 211.721 607.779 215.72 609.705 226.037C611.631 236.354 629.694 240.287 630.393 244.868Z" fill="#E09881"/>
<path d="M619.107 301.352C622.845 291.668 627.135 282.215 631.695 272.888C636.24 263.552 641.241 254.426 646.884 245.636C649.758 241.277 652.755 236.966 656.439 233.084C660.159 229.298 663.903 225.884 667.614 222.248C671.322 218.654 674.937 214.967 678.384 211.133C681.894 207.35 685.173 203.363 688.056 199.046C683.301 208.334 676.278 216.233 669.267 223.859C665.82 227.714 661.917 231.305 658.506 235.031C655.113 238.721 652.173 242.963 649.398 247.271C643.782 255.875 638.745 264.902 633.735 273.944C631.239 278.471 628.791 283.031 626.397 287.618L619.107 301.352Z" fill="#242424"/>
<path d="M679.314 211.473C679.314 211.473 676.458 203.718 675.066 194.595C673.674 185.472 683.34 172.329 695.151 175.284C706.962 178.239 706.122 177.927 712.173 183.519C718.221 189.114 720.219 205.797 700.398 208.953C680.577 212.106 679.314 211.473 679.314 211.473Z" fill="#E09881"/>
<path d="M593.691 392.822C596.892 387.728 600.384 382.826 604.14 378.131C607.872 373.412 611.865 368.893 616.218 364.66C618.432 362.578 620.7 360.536 623.352 358.811C626.007 357.167 628.533 355.783 631.128 354.256C636.225 351.184 641.4 348.233 645.957 344.312C642.219 349.073 637.317 352.807 632.391 356.23C629.97 357.979 627.27 359.533 624.924 361.18C622.596 362.785 620.4 364.775 618.294 366.83C614.022 370.904 609.978 375.284 605.916 379.652L593.691 392.822Z" fill="#242424"/>
<path d="M639.402 350.153C639.402 350.153 638.814 345.413 639.231 340.094C639.648 334.775 658.083 324.224 664.344 327.44C670.602 330.656 670.173 330.371 672.84 334.316C675.51 338.261 663.171 352.34 651.6 351.509C640.029 350.675 639.402 350.153 639.402 350.153Z" fill="#E09881"/>
<path d="M577.827 397.685C578.85 391.568 578.904 385.361 578.589 379.211C578.319 373.055 577.575 366.929 576.564 360.857C574.458 348.725 571.413 336.758 567.354 325.118C563.511 313.349 559.47 301.565 556.533 289.463C555.084 283.412 553.758 277.304 553.119 271.073C552.816 267.962 552.756 264.803 553.074 261.68C553.386 258.566 554.379 255.431 556.335 252.998C552.975 258.386 553.686 264.932 554.577 270.89C555.495 276.962 557.058 282.944 558.762 288.872C562.134 300.752 566.121 312.446 570.192 324.161C574.056 336.005 577.191 348.137 578.835 360.515C580.32 372.854 580.917 385.589 577.827 397.685Z" fill="#242424"/>
<path d="M555.498 287.804C555.498 287.804 571.071 268.448 577.698 256.244C584.328 244.04 586.353 230.129 581.727 220.028C577.101 209.93 556.248 192.755 549.696 193.46C533.847 195.167 520.863 210.796 513.201 223.499C510.195 228.482 509.721 232.598 511.539 238.022C516.219 251.99 524.109 265.823 536.379 274.412C555.498 287.804 552.027 280.229 555.498 287.804Z" fill="#E09881"/>
<path d="M519.036 531.017C524.904 523.829 531.207 517.013 537.702 510.383C544.188 503.738 551.016 497.42 558.3 491.567C561.978 488.687 565.746 485.885 569.988 483.638C574.23 481.487 578.364 479.666 582.549 477.653C586.716 475.673 590.832 473.591 594.849 471.338C598.908 469.154 602.826 466.721 606.516 463.91C599.892 470.483 591.699 475.217 583.605 479.708C579.597 482.009 575.259 483.953 571.329 486.143C567.423 488.3 563.73 491.06 560.16 493.919C552.963 499.607 546.129 505.82 539.298 512.036C535.887 515.153 532.509 518.309 529.167 521.504L519.036 531.017Z" fill="#242424"/>
<path d="M586.209 475.615C586.209 475.615 588.312 464.71 592.851 452.173C597.39 439.636 616.167 423.289 626.613 429.019C637.056 434.749 636.381 434.203 639.045 442.657C641.712 451.108 643.341 485.731 620.484 487.084C597.627 488.434 586.209 475.615 586.209 475.615Z" fill="#E09881"/>
<path d="M506.586 572.692C507.3 558.439 511.812 544.594 517.464 531.526C520.311 524.971 523.626 518.626 527.235 512.461C530.769 506.308 534.231 500.197 537.183 493.774C540.279 487.435 543.093 480.946 545.871 474.412C548.673 467.893 551.424 461.287 554.859 455.002C558.243 448.696 562.128 442.651 566.505 437.008C570.954 431.41 575.934 426.289 581.16 421.48C571.461 431.869 563.022 443.341 556.914 456.055C550.71 468.7 546.057 482.173 539.883 495.073C536.82 501.523 533.196 507.736 529.578 513.847C525.897 519.871 522.687 526.159 519.552 532.477C516.471 538.828 513.786 545.374 511.572 552.082C509.316 558.778 507.462 565.639 506.586 572.692Z" fill="#242424"/>
<path d="M564.057 433.518C564.057 433.518 564.654 410.667 567.933 393.672C571.212 376.677 591.687 362.424 599.871 360.003C608.058 357.579 616.395 361.284 619.062 362.277C621.729 363.267 626.286 372.246 626.286 372.246C626.286 372.246 628.557 374.304 632.031 378.024C635.505 381.744 638.28 395.523 628.035 400.218C617.79 404.913 614.07 408.387 603.705 416.679C593.343 424.971 568.509 429.708 564.057 433.518Z" fill="#E09881"/>
<path d="M544.215 481.535L547.662 466.376C548.844 461.336 549.966 456.287 551.031 451.229C553.14 441.113 555.219 430.985 556.584 420.8C557.295 415.724 557.838 410.591 557.679 405.581C557.529 400.532 556.92 395.264 556.824 390.092C556.491 379.739 556.332 369.17 558.795 359.03C558.159 364.181 558.039 369.344 558.228 374.498C558.336 379.652 558.669 384.806 559.128 389.948C559.563 395.123 560.172 400.157 560.517 405.452C560.772 410.798 560.229 416.018 559.557 421.196C558.093 431.537 555.921 441.716 553.266 451.754C550.629 461.801 547.71 471.761 544.215 481.535Z" fill="#242424"/>
<path d="M557.562 375.296C557.562 375.296 567.039 370.037 576.234 362.168C585.429 354.296 587.085 332.966 572.823 325.784C558.561 318.602 559.662 319.013 548.862 319.388C538.062 319.766 501.285 329.3 518.268 349.406C535.254 369.515 557.562 375.296 557.562 375.296Z" fill="#E09881"/>
<path opacity="0.29" d="M892.161 810.235L214.98 768.673L0 927.907L717.828 974.956L892.161 810.235Z" fill="#321B14"/>
<path d="M729.396 961.978L192.759 928.228L360.342 769.918L903.375 795.103L902.811 804.034L729.396 961.978Z" fill="#321C14"/>
<path d="M729.396 961.978L192.759 928.228L194.079 814.117L736.551 848.233L730.464 887.812C726.687 912.367 726.327 937.327 729.396 961.978Z" fill="#683B2B"/>
<path d="M708.888 960.598L665.094 957.844L671.772 844.069L716.04 846.853L713.244 886.639C711.513 911.323 710.046 936.211 708.888 960.598Z" fill="#321C14"/>
<path d="M643.881 956.313L600.09 953.559L606.768 839.784L651.036 842.568L648.24 882.351C646.506 907.035 645.039 931.926 643.881 956.313Z" fill="#321C14"/>
<path d="M910.881 683.515L409.056 654.883L194.079 814.117L736.548 848.236L910.881 683.515Z" fill="#683B2B"/>
<path d="M899.625 732.886L856.524 767.938L900.402 724.474C901.998 714.085 905.07 700.453 908.355 692.629L735.834 859.627L730.224 948.853L898.14 793.003C898.14 793.003 896.55 762.739 899.625 732.886Z" fill="#DEDEDE"/>
<path d="M910.881 683.515L910.023 697.126L735.834 859.627L736.548 848.236L910.881 683.515Z" fill="#683B2B"/>
<path d="M902.811 804.033L903.375 795.102L730.221 948.852L729.396 961.977L902.811 804.033Z" fill="#683B2B"/>
<path d="M735.834 859.627L730.224 948.853C730.224 948.853 742.302 909.124 735.834 859.627Z" fill="#BDBDBD"/>
<path d="M900.402 724.473L899.625 732.885L805.215 810.039L900.402 724.473Z" fill="white"/>
<path d="M277.863 908.599C306.27 908.599 329.298 894.953 329.298 878.119C329.298 861.286 306.27 847.639 277.863 847.639C249.456 847.639 226.428 861.286 226.428 878.119C226.428 894.953 249.456 908.599 277.863 908.599Z" fill="#321C14"/>
<path opacity="0.07" d="M200.49 809.103L740.778 842.541L759.339 825.024C571.569 831.486 292.038 799.569 224.418 791.403L200.49 809.103Z" fill="#321B14"/>
<path d="M813.888 676.741L841.842 748.903L912.573 682.99L813.888 676.741Z" fill="#E09881"/>
<path d="M912.573 682.99V695.059L841.842 761.134V748.903L912.573 682.99Z" fill="#962F26"/>
<path opacity="0.25" d="M192.759 928.229L594.63 953.504L642.351 842.879L637.806 842.027L194.079 814.118L192.759 928.229Z" fill="#321B14"/>
<path d="M595.557 885.738L58.9169 851.991L226.5 693.678L769.533 718.863L768.972 727.794L595.557 885.738Z" fill="#683B2B"/>
<path d="M595.557 885.739L58.9199 851.989L60.2399 737.878L602.712 771.994L596.625 811.57C592.848 836.128 592.488 861.088 595.557 885.739Z" fill="#E09881"/>
<path d="M777.039 607.279L275.217 578.647L60.2369 737.881L602.709 771.997L777.039 607.279Z" fill="#EDCACA"/>
<path d="M765.786 656.647L722.685 691.702L766.563 648.235C768.159 637.846 771.231 624.214 774.516 616.39L601.995 783.388L596.385 872.614L764.301 716.764C764.301 716.764 762.711 686.5 765.786 656.647Z" fill="#DEDEDE"/>
<path d="M777.039 607.28L776.184 620.888L601.992 783.389L602.709 771.998L777.039 607.28Z" fill="#E09881"/>
<path d="M768.972 727.794L769.533 718.863L596.382 872.616L595.557 885.738L768.972 727.794Z" fill="#E09881"/>
<path d="M601.992 783.388L596.382 872.614C596.382 872.614 608.46 832.885 601.992 783.388Z" fill="#BDBDBD"/>
<path d="M681.219 633.293L287.754 611.093L170.706 701.948L574.065 726.158L681.219 633.293Z" fill="#E09881"/>
<path opacity="0.15" d="M292.194 620.321L671.622 641.597L681.219 633.293L287.754 611.093L170.706 701.948L185.652 703.019L292.194 620.321Z" fill="#321B14"/>
<path d="M766.563 648.234L765.786 656.646L671.373 733.8L766.563 648.234Z" fill="white"/>
<path d="M144.024 832.36C172.431 832.36 195.459 818.714 195.459 801.88C195.459 785.047 172.431 771.4 144.024 771.4C115.617 771.4 92.589 785.047 92.589 801.88C92.589 818.714 115.617 832.36 144.024 832.36Z" fill="#683B2B"/>
<path opacity="0.07" d="M66.6509 732.865L606.939 766.303L625.5 748.786C437.727 755.248 158.199 723.331 90.5789 715.162L66.6509 732.865Z" fill="#321B14"/>
<path d="M215.931 706.258L675.813 786.124L955.857 616.681L763.713 598.261L637.584 672.13L328.494 632.329L523.671 549.511L464.751 537.544L200.937 642.139L215.931 706.258Z" fill="#E09881"/>
<path d="M637.584 672.131L539.436 659.492L219.198 699.425L680.427 781.502L955.857 616.682L792.141 604.037L730.911 617.474L637.584 672.131Z" fill="#E09881"/>
<path d="M675.813 786.124V790.358L216.807 710.515L215.949 706.259L675.813 786.124Z" fill="#962F26"/>
<path d="M675.813 790.358L955.761 621.977V616.682L675.813 786.125V790.358Z" fill="#962F26"/>
<path d="M226.809 700.268L673.839 774.509L933.615 619.796L535.83 507.374L226.809 700.268Z" fill="#DEDEDE"/>
<path d="M226.809 700.267L667.479 764.71L926.634 612.388C923.916 607.168 921.66 601.72 919.893 596.107L919.488 594.823L226.809 700.267Z" fill="white"/>
<path d="M236.733 694.421L221.238 638.12L206.298 645.41L219.597 704.177L226.809 700.268L236.733 694.421Z" fill="#962F26"/>
<path d="M664.296 757.007L226.809 700.268L213.963 640.649L674.754 701.135L664.296 757.007Z" fill="#DEDEDE"/>
<path d="M213.963 640.649C213.963 640.649 245.679 666.8 226.809 700.268L213.963 640.649Z" fill="#BDBDBD"/>
<path d="M667.479 764.708C667.479 764.708 669.6 772.175 673.842 774.509L933.615 619.793L926.634 612.383L667.479 764.708Z" fill="#BDBDBD"/>
<path d="M924.45 607.948C924.45 607.948 922.647 603.664 922.662 603.865L800.016 670.198L920.232 597.148C913.128 578.215 921.729 567.25 921.729 567.25L669.681 705.701C669.681 705.701 648.393 732.974 664.296 757.01" fill="#BDBDBD"/>
<path d="M675.813 710.515L928.485 562.361L534.513 507.427L200.937 642.139L675.813 710.515Z" fill="#E09881"/>
<path d="M200.937 642.14L202.353 647.633L675.813 715.841V710.516L200.937 642.14Z" fill="#E09881"/>
<path d="M675.813 715.841V710.515L928.485 562.364V567.503L675.813 715.841Z" fill="#962F26"/>
<path d="M346.728 746.983L882.114 697.183L709.869 543.961L167.832 585.388L168.66 594.298L346.728 746.983Z" fill="#321B14"/>
<path d="M346.728 746.983L882.114 697.186L877.377 583.166L336.171 633.506L343.44 672.884C347.952 697.313 349.056 722.248 346.728 746.983Z" fill="#45271C"/>
<path d="M156.99 474.077L657.732 430.436L877.38 583.166L336.174 633.503L156.99 474.077Z" fill="#683B2B"/>
<path d="M169.716 523.088L213.846 556.835L168.687 514.703C166.779 504.368 163.302 490.832 159.786 483.11L337.23 644.87L345.51 733.889L173.004 583.136C173.004 583.136 173.685 552.836 169.716 523.088Z" fill="#DEDEDE"/>
<path d="M156.99 474.077L158.253 487.655L337.23 644.87L336.174 633.503L156.99 474.077Z" fill="#321C14"/>
<path d="M168.66 594.299L167.832 585.389L345.51 733.889L346.728 746.984L168.66 594.299Z" fill="#321C14"/>
<path d="M337.23 644.87L345.51 733.889C345.51 733.889 332.247 694.538 337.23 644.87Z" fill="#BDBDBD"/>
<path d="M168.69 514.703L169.716 523.088L266.397 597.38L168.69 514.703Z" fill="white"/>
<path opacity="0.07" d="M870.819 578.344L331.773 627.94L312.696 610.987C500.577 611.824 779.025 571.555 846.372 561.367L870.819 578.344Z" fill="#321B14"/>
<path d="M246.927 498.106L340.215 487.96L447.927 563.875L342.255 576.37L246.927 498.106Z" fill="#45271C"/>
<path opacity="0.15" d="M336.651 496.339L255.522 505.162L246.927 498.106L340.215 487.96L447.927 563.875L434.694 565.441L336.651 496.339Z" fill="#321B14"/>
<path opacity="0.29" d="M662.817 958.034L731.22 937.154L790.242 824.423L863.01 970.787L662.817 958.034Z" fill="#321B14"/>
<path d="M790.242 824.423L991.233 745.553L1064 891.914L863.01 970.787L790.242 824.423Z" fill="#E09881"/>
<path d="M790.242 824.423L991.233 745.553L936.645 873.713L790.242 824.423Z" fill="#321C14"/>
<path d="M790.242 824.423L991.233 745.553L844.146 692.453L790.242 824.423Z" fill="#321C14"/>
<path d="M965.805 805.25L858.438 847.385L936.645 873.713L965.805 805.25Z" fill="#DEDEDE"/>
<path opacity="0.43" d="M446.7 525.818C479.841 525.818 508.65 523.31 523.353 519.62C517.551 513.983 485.445 509.669 446.7 509.669C407.955 509.669 375.849 513.983 370.047 519.62C384.747 523.31 413.559 525.818 446.7 525.818Z" fill="#321B14"/>
<path d="M513.9 372.677C513.9 380.444 483.813 386.741 446.7 386.741C409.587 386.741 379.5 380.444 379.5 372.677C379.5 364.91 409.587 358.613 446.7 358.613C483.813 358.613 513.9 364.91 513.9 372.677Z" fill="#321C14"/>
<path d="M446.178 516.976C494.513 516.976 533.697 482.925 533.697 440.92C533.697 398.916 494.513 364.865 446.178 364.865C397.843 364.865 358.659 398.916 358.659 440.92C358.659 482.925 397.843 516.976 446.178 516.976Z" fill="#321C14"/>
<path d="M513.9 372.677C513.9 380.444 483.813 386.741 446.7 386.741C409.587 386.741 379.5 380.444 379.5 372.677C379.5 364.91 409.587 358.613 446.7 358.613C483.813 358.613 513.9 364.91 513.9 372.677Z" fill="#321C14"/>
<path d="M446.7 380.493C468.138 380.493 486.774 377.985 496.284 374.295C492.531 368.658 471.762 364.344 446.7 364.344C421.638 364.344 400.869 368.658 397.116 374.295C406.623 377.985 425.262 380.493 446.7 380.493Z" fill="#E09881"/>
<path d="M508.515 410.199C512.706 415.998 513.162 422.823 509.535 425.445C505.908 428.067 499.569 425.493 495.378 419.694C491.187 413.895 490.731 407.07 494.358 404.448C497.985 401.826 504.324 404.4 508.515 410.199Z" fill="#45271C"/>
<path d="M222.618 116.693C222.618 116.693 211.248 148.982 190.761 164.183C215.67 164.81 235.914 153.26 222.618 116.693Z" fill="#EDCACA"/>
<path d="M147.018 164.213C164.319 176.009 179.028 172.889 190.761 164.186C170.169 163.667 146.391 154.832 135.726 144.914C136.503 152.723 140.013 159.434 147.018 164.213Z" fill="#683B2B"/>
<path d="M441.858 166.373L445.503 136.796C408.978 60.6765 295.242 -2.07447 244.218 0.0525288C192.378 2.21253 116.778 116.693 131.898 140.453C132.849 141.947 134.145 143.441 135.726 144.914C131.235 99.7515 218.826 17.5395 259.338 56.2125C269.976 66.3675 285.06 82.8105 302.076 102.641L333.57 114.026L315.525 118.529C372.831 187.166 443.547 283.154 445.098 311.096C445.098 311.096 477.675 228.638 452.529 154.064L441.858 166.373Z" fill="#EDCACA"/>
<path d="M446.7 380.491C446.697 364.417 446.247 348.352 445.371 332.314C444.537 316.276 443.343 300.259 441.561 284.311C439.767 268.366 437.643 252.457 434.607 236.719C431.613 220.981 427.851 205.372 422.622 190.276C420.099 182.698 417.123 175.279 413.652 168.118C410.283 160.876 406.065 154.162 401.322 147.754C391.893 134.8 381.378 122.674 370.554 110.857C359.661 99.0973 348.123 87.9253 336.048 77.3563C324.018 66.7363 311.466 56.6773 298.218 47.5723C325.311 64.9243 349.887 86.0863 372.231 109.276C383.379 120.904 393.9 133.168 403.509 146.125C408.36 152.59 412.77 159.532 416.223 166.858C419.796 174.136 422.868 181.648 425.451 189.307C430.659 204.625 434.358 220.372 437.28 236.218C440.199 252.07 442.401 268.045 443.841 284.08C446.826 316.135 447.855 348.358 446.7 380.491Z" fill="#242424"/>
<path opacity="0.07" d="M244.218 0.0524072C229.062 0.682407 211.881 10.9514 195.525 25.7084C200.412 36.0164 197.574 48.8834 192.498 60.5234C215.946 45.3614 241.605 39.7964 258.909 55.8284C250.803 32.2304 261.192 12.6734 268.482 2.75841C259.461 0.733408 251.232 -0.241593 244.218 0.0524072Z" fill="#321B14"/>
<path d="M402.543 90.6677C414.171 102.296 421.374 113.945 418.635 116.687C415.893 119.429 404.244 112.223 392.616 100.595C380.988 88.9667 373.785 77.3176 376.524 74.5756C379.263 71.8366 390.912 79.0397 402.543 90.6677Z" fill="white"/>
<path d="M388.758 289.133C400.818 292.013 437.538 293.093 442.938 299.213C442.938 299.213 423.498 248.993 393.258 253.853C393.258 253.853 393.798 280.852 429.438 290.572C429.438 290.572 358.56 270.709 378.534 297.922C379.188 292.333 382.515 287.642 388.758 289.133Z" fill="#EDCACA"/>
<path d="M378.678 298.133C378.624 298.058 378.588 297.995 378.534 297.923C377.925 303.131 379.629 309.116 383.538 311.633C386.421 313.49 387.783 311.81 388.362 308.909C386.493 307.742 383.457 304.547 378.678 298.133Z" fill="#683B2B"/>
<path d="M386.778 311.993C395.958 305.693 387.858 294.353 387.858 294.353C387.858 294.353 387.825 306.743 386.778 311.993Z" fill="#EDCACA"/>
<path d="M502.233 276.388C502.248 276.298 502.251 276.226 502.266 276.136C505.155 280.51 506.328 286.624 503.973 290.629C502.236 293.587 500.262 292.699 498.438 290.371C499.581 288.487 500.853 284.269 502.233 276.388Z" fill="#683B2B"/>
<path d="M501.243 292.411C490.209 290.92 492.336 277.147 492.336 277.147C492.336 277.147 497.943 288.196 501.243 292.411Z" fill="#EDCACA"/>
<path d="M489.18 272.893C479.709 280.897 447.411 298.396 445.344 306.292C445.344 306.292 459.111 208.051 488.298 198.772C488.298 198.772 480.951 267.769 453.507 292.498C453.507 292.498 500.718 241.972 504.318 280.222C501.216 275.524 494.082 268.75 489.18 272.893Z" fill="#EDCACA"/>
<path d="M466.365 225.644C463.707 231.644 461.307 238.205 459.165 244.934C458.388 247.823 457.494 250.82 456.483 253.874C453.531 264.299 451.17 274.64 449.403 283.349C457.047 273.509 458.058 266.813 466.365 225.644Z" fill="#683B2B"/>
<path d="M453.507 292.499C457.827 281.42 463.158 270.776 469.137 260.477C475.17 250.205 481.806 240.215 490.287 231.362C492.423 229.169 494.772 227.114 497.352 225.245C499.95 223.427 502.812 221.633 506.481 221.003C513.726 220.124 520.476 223.493 524.472 228.773C528.474 233.966 530.301 240.638 529.083 247.004C528.399 250.13 526.779 253.247 524.094 255.071C521.478 257 518.214 257.366 515.301 257.096C518.229 256.742 521.121 255.764 523.035 253.787C525.009 251.888 525.975 249.23 526.17 246.56C526.575 241.172 524.364 235.667 520.878 231.776C519.096 229.847 516.954 228.344 514.638 227.411C513.459 226.997 512.262 226.622 511.011 226.526C509.754 226.34 508.479 226.43 507.498 226.592C505.311 227.036 502.95 228.374 500.79 229.994C498.615 231.626 496.524 233.507 494.562 235.571C490.524 239.576 486.897 244.136 483.36 248.75C479.778 253.346 476.451 258.167 473.079 262.976C466.434 272.666 460.026 282.572 453.507 292.499Z" fill="#EDCACA"/>
<path d="M434.298 285.172C427.446 275.176 420.636 265.249 413.52 255.61C409.908 250.831 406.338 246.043 402.486 241.519C398.682 236.968 394.74 232.54 390.42 228.658C386.214 224.716 381.462 221.206 376.533 219.805C374.088 219.16 371.736 219.289 369.642 220.348L368.838 220.717L368.112 221.287C367.623 221.707 367.14 221.956 366.624 222.502C365.571 223.489 364.572 224.509 363.645 225.568C361.803 227.653 360.279 230.071 360.057 232.201C359.745 234.241 361.548 236.11 364.092 237.316C369.219 239.692 375.396 240.4 381.378 240.892C378.375 241.33 375.327 241.534 372.255 241.456C369.183 241.384 366.087 241.033 362.973 240.043C361.434 239.494 359.871 238.741 358.503 237.454C357.123 236.206 356.133 234.157 356.124 232.174C356.16 228.19 358.143 225.244 359.979 222.658C360.945 221.365 361.965 220.144 363.03 218.98C363.507 218.386 364.308 217.804 364.947 217.225L365.976 216.37L367.182 215.701C370.383 213.841 374.433 213.496 377.844 214.279C384.657 216.049 389.817 220.093 394.461 224.23C403.593 232.795 410.841 242.71 417.366 252.976C423.858 263.263 429.618 273.973 434.298 285.172Z" fill="#EDCACA"/>
</svg>
