<svg width="1342" height="1208" viewBox="0 0 1342 1208" fill="none" xmlns="http://www.w3.org/2000/svg">
<path d="M800.478 790.185C824.838 917.952 835.266 1048.37 831.459 1178.38C794.847 1167.14 758.247 1155.92 721.632 1144.68C729.78 1079.38 737.307 1014 744.204 948.555C751.005 883.956 757.194 818.817 751.053 754.158C768.195 766.992 780.054 776.238 800.478 790.185Z" fill="#D49E8D"/>
<path d="M831.459 1178.38C835.266 1048.37 824.838 917.952 800.478 790.182C874.335 764.616 951.129 747.522 1028.86 739.314C1062.73 786.723 1082.12 842.757 1099.24 898.446C1126.66 987.729 1149.39 1078.47 1167.3 1170.13C1055.6 1161.97 941.907 1153.95 831.45 1178.68C831.447 1178.58 831.447 1178.47 831.459 1178.38Z" fill="#F1DFDA"/>
<path d="M972.636 717.996C992.25 720.06 1008.7 732.825 1028.86 739.314C951.129 747.522 874.335 764.616 800.478 790.182C780.054 776.235 768.195 766.992 751.053 754.155C751.041 753.963 751.029 753.762 751.005 753.57C816.846 742.344 882.675 731.106 948.504 719.88C956.484 718.521 964.584 717.15 972.636 717.996Z" fill="#D49E8D"/>
<path d="M957.057 919.536C931.161 924.093 903.087 911.61 889.122 889.332C875.157 867.051 876.162 836.343 891.552 815.025C896.595 808.041 902.991 802.062 910.164 797.292C923.76 788.253 940.377 783.606 956.637 785.079C972.897 786.552 988.65 794.307 999.144 806.811C1005.28 814.119 1009.55 822.846 1012.56 831.897C1015.84 841.761 1017.69 852.21 1016.85 862.572C1015.6 877.935 1008.22 892.716 996.696 902.952C985.173 913.188 969.459 917.352 957.057 919.536Z" fill="#683B2B"/>
<path d="M976.711 897.032C955.864 909.581 926.506 906.14 909.634 888.608C892.762 871.076 890.656 841.031 905.476 821.735C912.115 813.089 921.526 806.774 931.759 803.015C951.901 795.617 976.999 799.166 990.922 815.495C1003.7 830.483 1004.62 852.932 997.855 871.43C993.82 882.461 985.501 891.74 976.711 897.032Z" fill="#FAC4AA"/>
<path d="M1038.62 1125.88C1012.64 1137.48 982.77 1140.15 955.146 1133.35C937.545 1129.01 920.262 1120.42 909.558 1105.78C900.882 1093.93 897.207 1079.03 896.388 1064.35C894.489 1030.28 907.692 995.643 931.794 971.484C941.211 962.046 952.278 954.117 964.671 949.194C993.681 937.671 1028.72 944.415 1052.39 964.764C1076.06 985.113 1087.95 1017.84 1084.41 1048.85C1080.86 1079.87 1065.56 1113.86 1038.62 1125.88Z" fill="#FAC4AA"/>
<path d="M1042.08 1104.03C1027 1120.34 1002.76 1124.64 980.586 1123.29C966.255 1122.42 951.366 1119.28 940.395 1110.02C928.326 1099.83 922.821 1083.74 920.883 1068.07C917.262 1038.8 925.095 1007.39 945.507 986.108C965.919 964.826 999.597 955.829 1026.48 967.946C1041.82 974.861 1054.04 987.959 1061 1003.28C1067.96 1018.6 1069.82 1035.99 1067.52 1052.66C1064.72 1072.86 1053.94 1091.2 1042.08 1104.03Z" fill="#683B2B"/>
<path d="M1137.68 1128.24C1131.33 1128.24 1126.19 1133.39 1126.19 1139.74C1126.19 1146.08 1131.33 1151.22 1137.68 1151.22C1144.02 1151.22 1149.17 1146.08 1149.17 1139.74C1149.17 1133.39 1144.02 1128.24 1137.68 1128.24ZM863.76 1132.62C857.415 1132.62 852.27 1137.76 852.27 1144.11C852.27 1150.45 857.415 1155.6 863.76 1155.6C870.105 1155.6 875.25 1150.45 875.25 1144.11C875.247 1137.76 870.105 1132.62 863.76 1132.62ZM831.48 799.331C825.135 799.331 819.99 804.476 819.99 810.821C819.99 817.166 825.135 822.311 831.48 822.311C837.825 822.311 842.97 817.166 842.97 810.821C842.97 804.473 837.825 799.331 831.48 799.331ZM1021.87 755.459C1015.53 755.459 1010.38 760.604 1010.38 766.949C1010.38 773.294 1015.53 778.439 1021.87 778.439C1028.22 778.439 1033.36 773.294 1033.36 766.949C1033.36 760.601 1028.22 755.459 1021.87 755.459Z" fill="black"/>
<path d="M1127.91 728.343C1150.48 704.325 1172.04 679.365 1192.53 653.547C1191.33 664.233 1190.14 674.922 1188.94 685.608C1213.61 658.116 1237.15 629.622 1259.5 600.216C1238.37 613.647 1219.69 630.537 1201.13 647.34C1200.32 636.75 1201.33 626.115 1202.33 615.543L1134.21 704.529C1134.36 695.592 1134.51 686.652 1134.65 677.715C1117.96 703.023 1103.16 729.582 1090.43 757.098C1103.14 741.315 1115.87 724.641 1128.01 707.55C1127.97 714.483 1127.94 721.413 1127.91 728.343ZM1334.01 735.198C1304.97 742.125 1275.93 749.049 1246.89 755.976C1246.1 756.165 1245.17 756.333 1244.52 755.835C1243.43 755.001 1244.09 753.279 1244.84 752.124C1249.74 744.459 1254.65 736.794 1259.56 729.129C1230.95 740.076 1204.87 756.609 1179.02 773.031C1181.04 765.324 1183.07 757.617 1185.09 749.907C1162.79 765.924 1140.83 782.415 1119.23 799.365C1137.66 791.205 1155.31 782.616 1172.96 774.027C1170.19 781.674 1167.42 789.318 1164.66 796.965C1188.93 784.737 1212.6 771.312 1235.55 756.759C1230.79 767.631 1226.03 778.5 1221.28 789.372C1258.85 771.312 1296.43 753.255 1334.01 735.198ZM1106.42 643.272L1085.34 699.474L1086.1 699.759L1107.18 643.557L1106.42 643.272ZM1146.2 537.57L1145.43 537.291L1111.59 629.946L1112.35 630.225L1146.2 537.57ZM1195.92 574.101L1195.21 573.717L1178.17 605.457L1178.89 605.841L1195.92 574.101ZM1124.01 767.721C1153.42 746.49 1183.02 724.653 1212 702.819L1211.51 702.171C1182.53 724.002 1152.94 745.836 1123.53 767.064L1124.01 767.721ZM1223.7 695.475L1250.68 678.519L1250.24 677.832L1223.27 694.788L1223.7 695.475Z" fill="#683B2B"/>
<path d="M11.874 345.486C15.27 344.376 18.801 343.647 22.248 342.777C28.869 341.106 35.751 340.41 42.504 339.501C86.106 333.648 131.025 336.027 173.328 348.444C225.594 363.789 273.657 394.821 306.57 438.225C311.355 444.534 315.78 453.69 310.665 459.732C308.817 461.916 306.066 463.104 303.357 464.019C286.65 469.671 268.41 467.628 250.989 464.859C185.295 454.416 121.116 434.475 61.071 405.849C45.903 398.616 30.9 390.774 17.628 380.469C10.287 374.772 0.371986 367.329 0.0119863 357.432C-0.0510137 355.704 0.116995 353.916 0.932995 352.392C1.83 350.718 3.414 349.527 5.034 348.537C7.2 347.22 9.50399 346.26 11.874 345.486Z" fill="#683B2B"/>
<path d="M199.132 322.218C198.217 321.735 197.083 322.083 196.597 322.998C148.153 414.435 103.333 509.205 63.3877 604.674C62.9887 605.628 63.4387 606.726 64.3927 607.125C64.6717 607.242 64.9657 607.286 65.2477 607.266C65.9317 607.217 66.5617 606.795 66.8467 606.12C106.747 510.756 151.519 416.091 199.909 324.753C200.395 323.838 200.047 322.704 199.132 322.218ZM124.981 1093.03C99.9517 936.048 80.0137 774.588 65.7217 613.113C65.6287 612.081 64.7047 611.316 63.6877 611.412C62.6557 611.505 61.8937 612.414 61.9867 613.446C76.2517 774.597 96.1387 935.739 121.093 1092.43C121.066 1092.48 121.03 1092.52 121.006 1092.57C110.413 1114.8 99.4897 1137.32 88.9297 1159.1L88.8277 1159.31C88.3747 1160.24 88.7647 1161.36 89.6947 1161.81C90.0007 1161.96 90.3277 1162.02 90.6427 1162C91.2907 1161.95 91.8967 1161.57 92.1967 1160.94L92.2987 1160.74C102.274 1140.16 112.567 1118.94 122.608 1097.91L144.199 1162.81C144.475 1163.64 145.276 1164.15 146.11 1164.09C146.263 1164.08 146.419 1164.05 146.569 1164C147.55 1163.67 148.081 1162.61 147.757 1161.63L127.609 1101.07L176.758 1151.24C177.481 1151.98 178.669 1151.99 179.407 1151.27C180.145 1150.55 180.16 1149.36 179.434 1148.62L124.981 1093.03Z" fill="black"/>
<path d="M175.59 351.435C176.673 348.315 178.071 345.306 179.757 342.465C180.072 341.934 180.432 341.379 180.996 341.13C181.428 340.941 181.923 340.959 182.394 340.998C186.942 341.355 191.373 343.056 194.991 345.834C195.201 345.996 195.426 346.185 195.474 346.449C195.519 346.701 195.393 346.947 195.267 347.169C193.704 349.989 192.141 352.806 190.575 355.626C190.452 355.848 190.317 356.082 190.095 356.202C189.834 356.346 189.513 356.304 189.222 356.253C184.254 355.41 179.463 353.523 175.59 351.435Z" fill="#321C14"/>
<path d="M248.505 362.928C279.054 378.069 304.284 403.698 318.942 434.484C317.37 428.256 314.814 422.316 311.937 416.574C305.244 403.212 296.646 390.654 285.519 380.679C274.392 370.701 260.616 363.396 248.505 362.928Z" fill="#683B2B"/>
<path d="M44.295 381.312C114.321 389.982 182.832 410.781 245.862 442.503C263.643 451.452 281.724 461.94 292.329 478.785C295.281 483.477 297.45 489.969 293.898 494.226C291.423 497.19 287.148 497.769 283.29 497.961C264.321 498.915 245.4 495.711 226.797 491.886C176.139 481.473 126.447 466.365 78.567 446.82C55.917 437.574 33.303 427.101 14.967 410.904C11.943 408.234 8.93698 405.24 7.75498 401.385C5.23498 393.171 12.429 384.54 20.715 382.272C29.001 380.004 37.758 380.502 44.295 381.312Z" fill="#D49E8D"/>
<path d="M173.331 348.444C131.031 336.024 86.112 333.648 42.507 339.501C35.751 340.407 28.872 341.103 22.251 342.777C18.801 343.647 15.27 344.379 11.877 345.486C9.50704 346.26 7.20004 347.22 5.03704 348.54C3.41704 349.53 1.83304 350.721 0.936036 352.395C0.120036 353.919 -0.0479615 355.707 0.0150385 357.435C0.0630385 358.707 0.270034 359.934 0.606034 361.128C59.61 350.1 120.774 365.232 177.996 384.195C226.692 400.332 276.561 420.753 309.642 459.96C309.768 460.11 309.897 460.263 310.023 460.416C310.248 460.2 310.464 459.978 310.668 459.738C315.783 453.696 311.358 444.537 306.573 438.231C273.66 394.824 225.597 363.789 173.331 348.444Z" fill="#D49E8D"/>
<path d="M60.27 623.331C54.783 623.997 49.563 619.23 48.732 613.764C47.901 608.298 50.799 602.724 55.128 599.286C56.829 597.936 58.764 596.847 60.864 596.301C66.555 594.822 73.023 597.876 75.699 603.114C78.372 608.352 77.154 615.231 73.002 619.395C68.853 623.559 62.145 624.834 60.27 623.331Z" fill="#0B0301"/>
<path d="M61.395 617.433C58.329 617.805 55.4099 615.141 54.9479 612.087C54.4829 609.033 56.103 605.916 58.521 603.996C59.472 603.24 60.552 602.634 61.728 602.328C64.908 601.5 68.523 603.21 70.017 606.135C71.511 609.06 70.8299 612.906 68.5109 615.234C66.1889 617.559 62.442 618.273 61.395 617.433Z" fill="#130602"/>
<path d="M146.415 1157.5C142.398 1157.79 139.371 1161.28 139.656 1165.3C139.941 1169.31 143.43 1172.34 147.447 1172.05C151.464 1171.77 154.491 1168.28 154.206 1164.26C153.924 1160.24 150.435 1157.22 146.415 1157.5ZM89.5439 1155.51C85.5269 1155.8 82.4999 1159.29 82.7849 1163.3C83.0699 1167.32 86.5589 1170.35 90.5759 1170.06C94.5929 1169.78 97.6199 1166.29 97.3349 1162.27C97.0499 1158.25 93.5609 1155.22 89.5439 1155.51ZM179.466 1143.81C175.449 1144.09 172.422 1147.58 172.707 1151.6C172.992 1155.62 176.481 1158.64 180.498 1158.36C184.515 1158.07 187.542 1154.59 187.257 1150.57C186.972 1146.55 183.483 1143.52 179.466 1143.81Z" fill="#E63271"/>
<path d="M190.914 1125.06C189.09 1124.39 187.14 1125.72 186.189 1127.89C179.394 1143.41 173.556 1159.35 168.717 1175.59C168.363 1176.77 168.012 1178.01 168.198 1179.24C168.384 1180.46 169.269 1181.68 170.499 1181.82C172.338 1182.04 173.553 1180.01 174.258 1178.3C180.492 1163.19 186.45 1147.97 192.132 1132.65C192.63 1131.31 193.134 1129.92 193.077 1128.49C193.02 1127.05 192.261 1125.55 190.914 1125.06ZM469.791 1163.32C463.308 1148.58 456.825 1133.84 450.345 1119.1C449.316 1116.76 448.107 1114.23 445.791 1113.15C443.475 1112.06 438.288 1114.04 439.989 1117.84C446.976 1133.45 454.614 1148.76 462.879 1163.73C463.695 1165.21 464.601 1166.77 466.104 1167.54C467.607 1168.3 469.863 1167.82 470.328 1166.2C470.601 1165.24 470.193 1164.23 469.791 1163.32Z" fill="#683B2B"/>
<path d="M276.273 1157.14C223.494 1152.31 170.454 1130.96 136.563 1090.21C119.442 1069.63 107.799 1044.94 99.6723 1019.43C88.0773 983.019 83.3763 944.103 88.8603 906.291C98.1033 842.589 138.126 783.405 195.309 753.855C222.495 739.809 252.771 732.426 283.218 729.381C356.553 722.049 435.876 742.257 485.328 796.905C531.666 848.112 545.604 923.37 532.044 991.086C526.572 1018.4 516.897 1045.1 501.465 1068.3C476.568 1105.72 437.514 1132.43 395.118 1147.37C352.728 1162.3 308.199 1160.06 276.273 1157.14Z" fill="#683B2B"/>
<path d="M81.4413 884.079L80.4062 883.812C70.3322 923.238 70.2423 965.784 80.1483 1006.84C90.0543 1047.91 109.53 1085.73 136.473 1116.23L137.274 1115.52C82.2693 1053.26 60.8733 964.575 81.4413 884.079ZM99.6452 832.272L98.6822 831.81L85.0982 860.16L86.0612 860.622L99.6452 832.272Z" fill="black"/>
<path d="M105.996 959.607C98.655 892.38 133.827 823.782 189.414 785.271C245.004 746.76 318.18 737.34 383.649 754.293C402.729 759.234 421.431 766.359 437.778 777.369C461.274 793.194 479.046 816.555 491.283 842.106C518.241 898.395 518.799 965.397 499.017 1024.59C489.9 1051.87 476.25 1078.31 455.127 1097.84C433.425 1117.9 405.126 1129.5 376.437 1136.6C313.29 1152.22 243.195 1146.7 188.067 1112.17C132.939 1077.64 111.738 1012.2 105.996 959.607Z" fill="#F1DFDA"/>
<path opacity="0.33" d="M407.939 762.035C400.016 758.96 391.868 756.422 383.645 754.292C378.092 752.855 372.482 751.622 366.836 750.566C282.065 839.624 200.195 931.442 121.409 1025.84C125.789 1037.5 131.171 1048.95 137.705 1059.81C223.145 956.339 311.18 854.828 407.939 762.035ZM491.282 842.105C479.885 818.306 463.679 796.415 442.523 780.734C345.62 880.925 250.871 983.198 158.363 1087.46C166.958 1096.73 176.792 1105.11 188.069 1112.17C213.074 1127.83 241.163 1137.51 270.281 1141.97C346.553 1052.48 420.674 960.767 504.926 879.221C501.524 866.489 497.003 854.054 491.282 842.105Z" fill="white"/>
<path d="M1091.25 107.351C1090.9 106.517 1089.94 106.118 1089.11 106.466C1088.27 106.814 1087.88 107.771 1088.22 108.605L1096.22 127.874C1096.48 128.504 1097.09 128.885 1097.73 128.885C1097.94 128.885 1098.15 128.846 1098.36 128.759C1099.2 128.411 1099.59 127.454 1099.25 126.62L1091.25 107.351ZM1111.94 97.6704C1111.71 96.7944 1110.82 96.2694 1109.94 96.4914C1109.07 96.7164 1108.54 97.6074 1108.77 98.4834C1110.8 106.403 1113.05 114.389 1115.45 122.216C1115.66 122.921 1116.31 123.374 1117.01 123.374C1117.17 123.374 1117.33 123.35 1117.49 123.302C1118.35 123.038 1118.84 122.12 1118.58 121.256C1116.19 113.48 1113.96 105.542 1111.94 97.6704ZM1139.7 108.917L1135.19 90.4884C1134.97 89.6094 1134.09 89.0724 1133.21 89.2884C1132.33 89.5044 1131.79 90.3894 1132.01 91.2684L1136.7 110.402C1136.96 111.479 1137.75 111.782 1138.07 111.863C1138.19 111.893 1138.32 111.905 1138.44 111.905C1138.94 111.905 1139.46 111.686 1139.79 111.32C1140.22 110.825 1140.35 110.141 1140.12 109.538C1140.03 109.301 1139.88 109.088 1139.7 108.917ZM1160.73 102.83C1160.64 102.596 1160.5 102.386 1160.31 102.215L1155.8 83.7834C1155.58 82.9044 1154.7 82.3674 1153.82 82.5834C1152.94 82.7994 1152.4 83.6844 1152.62 84.5634L1157.3 103.682C1157.56 104.768 1158.35 105.074 1158.68 105.158C1158.8 105.188 1158.93 105.2 1159.05 105.2C1159.55 105.2 1160.07 104.978 1160.4 104.615C1160.84 104.117 1160.97 103.436 1160.73 102.83Z" fill="#130602"/>
<path d="M1177.35 94.8113C1175.62 92.4533 1171.98 93.0863 1169.24 94.0913C1156.58 98.7413 1145.1 106.052 1133.27 112.526C1121.44 118.997 1108.86 124.772 1095.41 125.906C1089.73 126.386 1082.92 126.584 1079.98 131.462C1078.93 133.196 1078.59 135.26 1078.3 137.27C1076.68 147.965 1075.44 158.705 1073.35 172.229C1054 188.972 1034.3 205.289 1014.37 221.333C1017.28 223.712 1019.56 226.922 1021.17 230.336C1023.55 235.346 1024.68 240.836 1025.78 246.26C1024.59 240.215 1023.59 234.122 1022.78 227.999C1022.52 225.992 1023.09 223.076 1025.11 223.316C1025.69 223.382 1026.18 223.742 1026.64 224.102C1032.09 228.458 1035.34 234.995 1037.67 241.565C1039.05 245.408 1040.16 249.326 1041.09 253.31C1060.49 235.247 1079.34 216.713 1097.25 197.363C1107.68 188.849 1121.92 186.077 1132.21 177.401C1137.45 172.97 1141.39 167.219 1145.15 161.465C1156.68 143.774 1167.09 125.339 1175.82 106.109C1176.98 103.544 1178.14 100.88 1178.18 98.0663C1178.2 96.9173 1178.01 95.7293 1177.35 94.8113ZM1003.6 229.94C1004.71 230.858 1005.76 231.86 1006.72 232.931C1010.57 237.209 1013.22 242.426 1015.5 247.721C1015.06 240.167 1011.03 233.444 1007.88 226.526C1006.45 227.681 1005.03 228.818 1003.6 229.94ZM986.576 243.419C992.774 246.026 998.354 250.121 1002.58 255.371C1001.65 248.801 997.394 243.497 993.083 238.289C990.92 240.005 988.748 241.718 986.576 243.419ZM988.748 294.347C985.124 289.043 979.994 285.833 974.657 283.826C969.308 281.819 963.644 280.847 958.133 279.362C956.462 278.903 954.716 278.357 953.516 277.112C952.304 275.867 951.869 273.707 953.024 272.408C953.102 272.321 953.189 272.234 953.276 272.156C953.897 271.622 954.728 271.358 955.523 271.142C966.404 268.085 978.215 268.412 988.898 272.081C986.651 264.692 980.231 259.397 973.727 255.218C973.322 254.957 972.908 254.693 972.494 254.432C965.639 259.769 958.775 265.073 951.887 270.356C916.721 297.422 881.207 324.053 845.921 350.99C814.979 374.609 784.232 398.468 754.055 423.047C744.386 430.916 734.78 438.863 725.21 446.861C717.44 453.356 709.691 459.881 701.951 466.421C707.933 463.802 714.011 461.369 720.155 459.131C721.88 458.498 723.908 457.919 725.459 458.903C726.932 459.83 727.337 461.894 726.833 463.553C726.332 465.224 725.12 466.565 723.908 467.81C716.324 475.547 706.979 481.562 696.785 485.261C706.619 485.042 716.474 485.315 726.275 486.08C734.264 486.713 742.241 487.661 750.023 489.518C752.162 490.031 754.652 490.982 755.099 493.13C755.711 496.022 752.207 497.933 749.348 498.674C734.165 502.604 718.286 502.778 702.602 502.943C717.413 503.588 732.212 504.23 747.011 504.887C748.856 504.962 750.755 505.061 752.402 505.892C754.04 506.72 755.348 508.499 755.042 510.311C754.736 512.102 753.035 513.29 751.406 514.121C737.534 521.204 720.485 516.839 705.5 521.084C716.798 519.839 728.192 519.566 739.532 520.253C741.452 520.373 743.408 520.526 745.154 521.291C745.766 521.564 746.345 521.924 746.858 522.35C751.103 518.192 755.339 514.055 759.584 509.93C765.566 504.092 771.569 498.275 777.572 492.455C812.891 458.294 848.558 424.514 884.936 391.508C896.078 381.38 907.298 371.339 918.596 361.373C942.149 340.592 966.062 320.162 989.681 299.501C989.42 298.094 989.168 296.675 988.907 295.265C988.856 294.956 988.802 294.653 988.748 294.347ZM729.098 538.499C729.503 538.52 729.905 538.544 730.31 538.565C731.87 537.038 733.43 535.499 734.993 533.981C723.839 535.835 712.499 536.492 701.201 537.146C710.498 537.593 719.798 538.052 729.098 538.499ZM705.947 553.658C692.39 553.778 678.824 553.898 665.27 554.018C665.129 554.159 664.997 554.312 664.856 554.456C657.446 562.304 649.511 569.834 641.138 576.971C627.746 588.398 613.208 598.799 597.884 607.847C576.776 620.291 553.844 630.254 529.604 633.8C520.154 635.186 510.482 635.537 500.942 634.706C498.575 634.511 496.226 634.226 493.892 633.878C479.768 643.733 465.407 653.285 450.758 662.462C472.586 687.302 494.414 712.145 516.254 736.985C530.9 725.972 545.144 714.437 559.061 702.539C572.432 691.124 585.506 679.367 598.397 667.373C622.508 644.987 645.95 621.839 669.35 598.7C682.676 585.527 696.002 572.354 709.349 559.19C711.314 557.258 713.267 555.326 715.232 553.394C712.919 553.535 710.582 553.601 708.257 553.622C707.486 553.646 706.712 553.646 705.947 553.658Z" fill="#F1DFDA"/>
<path d="M1077.66 176.891L466.843 681.32L467.569 682.136L1078.35 177.737L1077.66 176.891ZM1081.08 181.079L484.159 700.793L484.885 701.609L1081.77 181.928L1081.08 181.079ZM1090.63 192.8C894.088 366.77 698.35 546.857 508.597 728.276L509.323 729.092C699.064 547.682 894.79 367.607 1091.32 193.646L1090.63 192.8ZM1085.87 186.959C886.588 357.932 688.405 535.466 496.618 714.806L497.344 715.622C689.119 536.294 887.29 358.769 1086.56 187.805L1085.87 186.959Z" fill="black"/>
<path d="M1178.18 98.0639C1178.2 96.9209 1178.01 95.7269 1177.34 94.8059C1175.61 92.4479 1171.98 93.0839 1169.23 94.0919C1156.58 98.7449 1145.1 106.05 1133.28 112.527C1121.45 119.001 1108.85 124.773 1095.42 125.904C1089.73 126.381 1082.93 126.588 1079.98 131.466C1078.93 133.203 1078.59 135.267 1078.29 137.274C1076.7 147.882 1075.46 158.55 1073.4 171.924C1081.4 180.627 1088.43 189.696 1095.62 199.095C1096.16 198.516 1096.71 197.946 1097.25 197.364C1107.67 188.85 1121.92 186.081 1132.21 177.396C1137.45 172.965 1141.4 167.214 1145.15 161.463C1156.69 143.778 1167.1 125.337 1175.82 106.107C1176.99 103.545 1178.14 100.878 1178.18 98.0639Z" fill="#F6EAE6"/>
<path d="M559.064 702.54C561.791 705.936 564.5 709.362 567.194 712.788C550.31 729.204 532.868 745.029 514.892 760.233C513.245 761.631 511.367 763.104 509.207 762.993C507.047 762.873 505.322 761.214 503.837 759.642C476.498 731.013 450.98 700.65 427.46 668.802C426.686 667.731 425.867 666.585 425.789 665.265C425.669 663.3 427.187 661.662 428.606 660.288C441.113 648.249 454.373 636.996 468.29 626.628C476.432 630.174 485.066 632.556 493.895 633.876C479.771 643.731 465.41 653.283 450.761 662.46C472.589 687.3 494.417 712.143 516.257 736.983C530.906 725.973 545.147 714.438 559.064 702.54Z" fill="#130602"/>
<path d="M762.659 591.03C760.487 589.743 757.769 589.971 755.258 590.244C744.05 591.435 732.839 592.623 721.631 593.823C720.092 593.988 718.4 594.108 717.146 593.19C715.892 592.272 715.508 590.592 715.202 589.065C713.258 579.111 711.305 569.145 709.352 559.194C696.005 572.355 682.679 585.531 669.353 598.704C645.953 621.843 622.508 644.991 598.4 667.377C601.283 679.851 600.278 693.234 598.007 705.969C595.181 721.926 590.486 737.61 589.418 753.786C589.298 755.544 589.244 757.377 589.976 758.982C592.454 764.385 600.65 762.606 605.528 759.222C619.607 749.487 628.568 733.989 635.378 718.293C640.508 706.506 644.744 694.194 651.935 683.541C676.688 646.869 728.423 639.435 759.845 608.298C764.657 603.528 768.488 594.48 762.659 591.03ZM630.65 502.374C639.479 497.637 648.266 492.846 657.773 489.78C657.806 489.768 657.848 489.759 657.881 489.747C666.383 484.422 675.203 479.412 684.272 474.795C687.449 459.789 689.129 444.453 689.27 429.12C689.312 424.917 687.83 419.274 683.639 419.439C682.166 419.505 680.855 420.366 679.688 421.263C660.926 435.573 656.768 463.218 638.519 478.17C627.986 486.792 614.192 490.002 601.715 495.435C588.935 500.991 577.277 509.088 567.563 519.087C570.14 519.294 572.735 519.327 575.3 519.249C587.831 518.889 600.305 516.249 611.918 511.521C618.35 508.899 624.518 505.647 630.65 502.374Z" fill="white"/>
<path d="M703.799 263.919C709.814 288.051 711.722 313.209 709.43 337.983C699.083 344.565 689.369 352.194 680.213 360.51C685.877 328.476 685.595 295.395 679.373 263.472C687.47 263.919 695.633 263.874 703.799 263.919Z" fill="#0B0301"/>
<path d="M819.938 539.534C816.752 537.362 812.462 539.108 809.045 540.887C796.199 547.556 783.353 554.225 770.519 560.882C763.511 564.527 756.506 568.163 749.498 571.796C746.573 558.842 743.636 545.876 740.723 532.907C740.483 532.961 740.255 533.015 740.015 533.06C738.344 533.399 736.676 533.705 734.996 533.978C733.436 535.496 731.873 537.035 730.313 538.562C731.951 538.67 733.586 538.901 735.038 539.63C736.85 540.548 738.302 542.51 737.963 544.508C737.648 546.407 735.923 547.727 734.231 548.654C728.456 551.864 721.898 552.977 715.241 553.391C713.276 555.323 711.323 557.255 709.358 559.187C711.311 569.141 713.267 579.107 715.208 589.058C715.514 590.585 715.895 592.268 717.152 593.183C718.406 594.101 720.098 593.981 721.637 593.816C732.845 592.616 744.056 591.425 755.264 590.237C757.775 589.964 760.493 589.736 762.665 591.023C768.494 594.473 764.663 603.521 759.848 608.288C728.426 639.428 676.691 646.859 651.938 683.531C644.747 694.184 640.511 706.493 635.381 718.283C628.571 733.979 619.61 749.477 605.531 759.212C600.653 762.596 592.457 764.375 589.979 758.972C589.247 757.367 589.301 755.534 589.421 753.776C590.492 737.6 595.184 721.916 598.01 705.959C600.281 693.221 601.283 679.841 598.403 667.367C585.512 679.361 572.438 691.115 559.067 702.533C561.794 705.926 564.503 709.355 567.197 712.781C550.313 729.197 532.871 745.022 514.895 760.226C513.248 761.624 511.37 763.097 509.21 762.989C507.05 762.869 505.325 761.21 503.84 759.638C476.501 731.009 450.983 700.646 427.463 668.798C426.689 667.727 425.87 666.581 425.792 665.261C425.672 663.296 427.19 661.658 428.609 660.284C441.116 648.245 454.376 636.992 468.293 626.624C464.954 625.163 461.69 623.513 458.525 621.647C425.879 602.417 408.92 564.905 398.039 528.614C397.046 525.296 396.086 521.966 395.159 518.627C379.334 527.369 365.102 538.676 353.903 552.866C332.894 579.476 324.173 614.204 323.888 648.104C323.396 705.503 346.886 763.283 389.318 801.917C431.753 840.566 492.938 858.572 548.993 846.251C554.189 845.105 559.328 843.698 564.383 842.039C613.826 825.776 655.376 785.405 670.01 735.44C673.394 723.869 675.533 711.626 682.136 701.54C685.16 696.914 688.904 693.026 693.128 689.621C703.682 681.098 717.149 675.575 729.362 669.113C754.529 655.796 776.336 636.404 792.917 613.265C806.297 594.614 816.296 573.527 821.906 551.261C822.938 547.154 823.43 541.925 819.938 539.534ZM550.868 513.92C555.8 517.172 561.617 518.603 567.566 519.083C577.28 509.084 588.935 500.987 601.718 495.431C614.192 489.995 627.989 486.788 638.522 478.166C656.771 463.214 660.929 435.569 679.691 421.259C680.858 420.365 682.169 419.501 683.642 419.435C687.833 419.27 689.318 424.913 689.273 429.116C689.132 444.449 687.449 459.785 684.275 474.791C690.071 471.821 695.963 469.028 701.957 466.421C709.694 459.884 717.446 453.356 725.216 446.861C721.244 432.083 729.713 415.778 736.862 401.513C746.303 382.697 753.692 362.855 758.864 342.455C760.163 337.358 761.222 331.595 758.426 327.152C753.701 319.643 742.316 321.476 734.141 324.926C725.519 328.571 717.29 332.981 709.43 337.979C699.083 344.561 689.369 352.19 680.213 360.506C669.734 370.013 659.978 380.414 650.855 391.163C627.695 418.46 607.853 448.442 584.966 475.967C580.37 481.49 575.405 487.1 568.748 489.818C563.204 492.089 557.036 492.11 551.045 492.11C546.416 492.11 541.79 492.098 537.152 492.131C537.251 492.578 537.359 493.025 537.467 493.472C539.504 501.566 543.905 509.336 550.868 513.92Z" fill="#683B2B"/>
<path d="M1091.43 98.6821C1087.83 99.0421 1084.34 100.521 1081.58 102.867C1080.27 103.977 1079.08 105.345 1078.66 107.007C1078.23 108.669 1078.75 110.661 1080.22 111.549C1081.51 112.326 1083.15 112.107 1084.61 111.714C1087.28 110.991 1089.82 109.761 1092.04 108.111C1092.63 107.673 1094.23 105.963 1095.38 103.992C1096 102.918 1096.49 101.604 1096.02 100.458C1095.34 98.8351 1093.18 98.5081 1091.43 98.6821ZM1114.55 89.8411C1111.94 89.8621 1109.3 90.1321 1106.86 91.0651C1104.42 91.9981 1102.2 93.6511 1100.95 95.9401C1100.2 97.3171 1099.89 99.2071 1101 100.32C1101.5 100.83 1102.22 101.079 1102.92 101.22C1106.15 101.88 1109.44 100.665 1112.52 99.4711C1114.07 98.8681 1115.82 97.4401 1117.24 95.7841C1118.37 94.4521 1119.24 92.4271 1118.19 91.0291C1117.39 89.9731 1115.88 89.8291 1114.55 89.8411ZM1139.22 83.9851C1138.38 83.5561 1137.42 83.4271 1136.47 83.3941C1133.51 83.2861 1130.52 84.0511 1127.97 85.5661C1126.54 86.4181 1125.19 87.5761 1124.63 89.1451C1124.07 90.7141 1124.55 92.7331 1126.02 93.5071C1127.04 94.0441 1128.28 93.8941 1129.41 93.6691C1131.47 93.2611 1133.48 92.6521 1135.41 91.8481C1136.14 91.5451 1137.61 90.7681 1138.9 89.7301C1140.03 88.8271 1141.11 87.5491 1140.9 86.1271C1140.76 85.1941 1140.06 84.4141 1139.22 83.9851ZM1160.57 78.3961C1159.46 77.8081 1158.17 77.6881 1156.92 77.6281C1154.93 77.5321 1152.88 77.5741 1151.04 78.3331C1149.4 79.0111 1148.02 80.2351 1146.99 81.6781C1146.09 82.9561 1145.46 84.7921 1146.44 86.0221C1147.16 86.9311 1148.45 87.1111 1149.61 87.1231C1152.53 87.1531 1155.45 86.5561 1158.12 85.3771C1158.48 85.2181 1159.53 84.7321 1160.51 84.1141C1161.49 83.4961 1162.38 82.5511 1162.47 81.3961C1162.56 80.1481 1161.68 78.9841 1160.57 78.3961Z" fill="#683B2B"/>
<path d="M1103.23 136.932C1100.5 136.932 1098.28 139.146 1098.28 141.873C1098.28 144.603 1100.5 146.817 1103.23 146.817C1105.96 146.817 1108.17 144.603 1108.17 141.873C1108.17 139.146 1105.96 136.932 1103.23 136.932ZM1121.82 129.891C1119.09 129.891 1116.88 132.105 1116.88 134.835C1116.88 137.565 1119.09 139.776 1121.82 139.776C1124.55 139.776 1126.76 137.562 1126.76 134.835C1126.77 132.102 1124.55 129.891 1121.82 129.891ZM1139.72 120.879C1136.99 120.879 1134.77 123.093 1134.77 125.82C1134.77 128.55 1136.99 130.764 1139.72 130.764C1142.45 130.764 1144.66 128.55 1144.66 125.82C1144.66 123.093 1142.45 120.879 1139.72 120.879ZM1158.49 110.994C1155.76 110.994 1153.54 113.208 1153.54 115.938C1153.54 118.668 1155.76 120.882 1158.49 120.882C1161.22 120.882 1163.43 118.668 1163.43 115.938C1163.43 113.208 1161.22 110.994 1158.49 110.994Z" fill="black"/>
<path d="M694.325 27.9842C694.325 28.3562 694.346 28.7252 694.367 29.1092C694.358 28.7372 694.346 28.3652 694.325 27.9842ZM604.511 143.49C603.311 137.28 599.369 131.529 593.684 128.799C587.726 125.961 579.944 126.945 575.39 131.736C573.578 133.635 572.333 136.014 571.427 138.48C568.469 146.634 569.387 156.249 574.397 163.32C579.419 170.403 588.554 174.519 597.83 173.199C598.715 186.153 598.322 199.185 596.642 212.064C585.302 198.15 569.303 188.445 557.537 174.804C533.723 147.18 531.038 103.458 551.294 73.1373C555.953 66.1533 561.869 59.7333 569.444 56.1213C577.028 52.5093 586.481 52.1163 593.564 56.6223C593.957 37.0533 606.965 17.9763 625.511 11.7003C644.054 5.42426 666.746 13.3593 676.274 30.4503C676.166 27.2193 676.067 23.9012 677.126 20.8472C678.185 17.7812 680.672 14.9972 683.882 14.5622C687.233 14.0912 690.53 16.3413 692.21 19.2873C693.695 21.8523 694.163 24.8643 694.316 27.8343C694.109 13.0353 708.56 0.210255 723.512 0.00325462C738.878 -0.215745 752.99 10.6442 759.704 24.4742C766.418 38.3013 766.679 54.5103 763.82 69.6273C760.655 86.4033 753.191 103.233 739.295 113.154C735.41 115.926 730.946 117.99 726.275 119.223C714.257 122.454 700.868 120.357 692.342 111.495C690.203 116.058 684.059 117.453 679.223 116.025C674.387 114.585 670.49 111.093 666.539 107.97C658.811 101.859 649.796 96.6752 639.953 96.2582C628.514 95.7782 617.327 102.183 610.931 111.669C604.742 120.849 602.834 132.537 604.622 143.472L604.511 143.49Z" fill="#683B2B"/>
<path d="M593.912 1131.88C587.921 1146.95 582.32 1162.64 581.339 1178.71C584.156 1180.42 587.048 1182.02 589.982 1183.52C591.629 1156.46 602.543 1130.63 615.128 1106.36C612.902 1105.37 610.709 1104.27 608.558 1103.09C602.24 1111.71 597.896 1121.87 593.912 1131.88ZM733.562 1073.99C724.745 1106.36 718.829 1139.53 715.88 1172.95C718.97 1174.29 722.102 1175.56 725.255 1176.73C728.858 1142.87 734.675 1109.24 742.697 1076.15C739.652 1075.52 736.607 1074.8 733.562 1073.99Z" fill="#FAC4AA"/>
<path d="M608.56 1103.09C602.425 1099.74 596.575 1095.72 591.163 1091.03C586.525 1097.4 582.727 1104.4 579.157 1111.44C571.9 1125.73 565.384 1140.38 559.63 1155.33C559.105 1156.68 558.592 1158.13 558.889 1159.55C559.183 1160.92 560.188 1162 561.181 1162.98C565 1166.81 569.137 1170.35 573.526 1173.53C576.058 1175.37 578.668 1177.09 581.341 1178.71C582.322 1162.64 587.923 1146.94 593.914 1131.87C597.895 1121.87 602.239 1111.71 608.56 1103.09ZM692.893 1189.33C681.139 1178.18 671.152 1165.16 663.424 1150.93C657.367 1139.77 652.63 1127.04 654.157 1114.58C640.843 1114.82 627.505 1111.95 615.127 1106.36C602.542 1130.63 591.628 1156.46 589.981 1183.52C594.871 1186.03 599.902 1188.29 604.978 1190.41C631.315 1201.38 659.692 1208.62 688.177 1207.12C692.203 1206.9 696.931 1206.05 698.665 1202.41C699.766 1200.1 699.232 1197.28 697.957 1195.06C696.682 1192.84 694.75 1191.1 692.893 1189.33ZM717.19 1068.59C705.262 1096.48 696.508 1125.72 691.138 1155.57C690.931 1156.76 690.724 1158.03 691.183 1159.14C691.708 1160.42 692.962 1161.21 694.153 1161.92C701.17 1166.06 708.43 1169.73 715.882 1172.95C718.828 1139.53 724.744 1106.36 733.564 1073.98C728.092 1072.52 722.623 1070.72 717.19 1068.59ZM835.618 1171.01C822.979 1161.25 809.632 1152.03 799.537 1139.65C785.785 1122.77 779.041 1100.42 781.015 1078.77C768.31 1079.56 755.485 1078.73 742.696 1076.15C734.674 1109.24 728.857 1142.87 725.254 1176.73C755.737 1188.22 788.95 1192.71 821.626 1191.82C826.723 1191.68 831.952 1191.39 836.623 1189.35C839.275 1188.19 841.828 1186.29 842.647 1183.51C844.09 1178.62 839.659 1174.12 835.618 1171.01Z" fill="#0B0301"/>
<path d="M733.562 1073.99C728.093 1072.52 722.627 1070.72 717.191 1068.59C716.579 1068.35 715.979 1068.11 715.367 1067.86C714.908 1058.77 715.487 1049.63 717.071 1040.65C742.238 1009.35 765.857 977.109 785.996 942.564C799.595 919.23 811.841 893.701 811.328 866.701C810.815 839.523 797.423 814.312 782.492 791.599C757.586 753.694 727.418 719.293 693.125 689.626C703.679 681.103 717.146 675.58 729.359 669.118C754.526 655.801 776.333 636.409 792.914 613.27C817.307 639.343 839.759 667.425 856.37 698.979C874.607 733.62 885.545 772.803 882.803 811.854C881.132 835.527 874.541 858.546 867.524 881.214C846.395 949.461 820.811 1016.84 782.951 1078.63C782.306 1078.69 781.664 1078.73 781.019 1078.76C768.314 1079.56 755.489 1078.73 742.7 1076.15C739.652 1075.52 736.607 1074.8 733.562 1073.99Z" fill="#321C14"/>
<path d="M615.131 1106.36C612.905 1105.37 610.712 1104.27 608.561 1103.09C602.426 1099.74 596.576 1095.72 591.164 1091.03C590.729 1090.66 590.312 1090.29 589.886 1089.92C599.513 1025.92 636.227 969.798 670.421 914.856C674.786 907.839 679.262 899.346 676.019 891.75C673.061 884.841 665.006 881.916 657.77 879.864C625.268 870.609 590.156 862.959 564.377 842.046C613.817 825.783 655.37 785.412 670.004 735.447C673.388 723.879 675.527 711.633 682.13 701.547C685.154 696.921 688.898 693.033 693.122 689.628C727.415 719.292 757.583 753.694 782.489 791.602C797.42 814.314 810.812 839.526 811.325 866.703C811.838 893.706 799.592 919.233 785.993 942.567C765.857 977.112 742.238 1009.35 717.068 1040.66C696.974 1065.66 675.89 1090.07 654.803 1114.57C654.584 1114.58 654.377 1114.58 654.158 1114.58C640.844 1114.82 627.506 1111.95 615.131 1106.36Z" fill="#45271C"/>
<path d="M656.516 505.047C656.636 499.938 657.05 494.832 657.77 489.777C648.263 492.843 639.479 497.634 630.647 502.371C629.882 510.645 629.762 518.97 630.275 527.256C631.313 544.26 634.958 561.102 641.135 576.972C649.505 569.835 657.44 562.302 664.853 554.457C658.952 538.719 656.135 521.844 656.516 505.047ZM1044.97 275.04C1030.16 277.866 1015.67 282.471 1001.95 288.705C997.523 290.724 993.167 292.908 988.91 295.263C989.171 296.67 989.423 298.089 989.684 299.499C991.004 306.867 992.249 314.277 993.089 321.699C1013.68 314.658 1035.13 310.131 1056.82 308.274C1054 296.826 1050.15 285.672 1044.97 275.04Z" fill="#45271C"/>
<path d="M746.867 522.348C747.848 523.155 748.571 524.226 748.766 525.459C749.105 527.586 747.794 529.695 746.039 530.916C744.467 531.996 742.589 532.521 740.723 532.914C743.636 545.88 746.573 558.846 749.498 571.803C756.506 568.167 763.511 564.534 770.519 560.889C763.883 544.725 760.163 527.382 759.593 509.931C755.345 514.053 751.112 518.187 746.867 522.348ZM1056.82 308.274C1035.13 310.128 1013.69 314.658 993.092 321.699C994.172 331.206 994.586 340.734 993.647 350.241C991.802 368.916 984.011 387.84 968.915 398.985C951.485 411.864 926.993 412.125 906.89 404.007C899.021 400.83 891.74 396.552 884.942 391.509C848.564 424.515 812.897 458.295 777.578 492.456C805.736 514.83 840.008 529.443 875.642 534.258C912.815 539.268 951.365 533.58 985.517 518.04C998.144 512.298 1010.25 505.182 1020.52 495.861C1036.99 480.909 1048.15 460.728 1054.66 439.455C1061.16 418.194 1063.21 395.787 1063.43 373.542C1063.65 351.669 1062.03 329.457 1056.82 308.274ZM678.662 263.439C676.949 263.34 675.191 263.211 673.466 262.926C670.106 268.797 664.385 273.195 658.142 275.937C651.113 279.036 643.409 280.227 635.768 281.046C628.007 281.877 620.042 282.324 612.521 280.239C603.428 277.719 595.583 271.551 590.048 263.901C586.064 258.399 583.217 252.168 581.219 245.673C580.619 245.694 580.007 245.685 579.407 245.661C559.487 244.941 541.643 233.688 522.434 228.351C497.594 221.442 470.045 224.892 447.683 237.705C408.107 260.385 389.291 307.59 382.613 352.698C374.426 407.967 380.213 464.745 395.153 518.64C396.08 521.979 397.04 525.309 398.033 528.627C408.914 564.918 425.876 602.43 458.519 621.66C461.684 623.526 464.948 625.176 468.287 626.637C476.429 630.183 485.063 632.565 493.892 633.885C496.229 634.233 498.575 634.518 500.942 634.713C510.482 635.544 520.151 635.193 529.604 633.807C553.844 630.261 576.776 620.295 597.884 607.854C613.208 598.806 627.746 588.405 641.138 576.978C634.961 561.108 631.316 544.269 630.278 527.262C629.765 518.979 629.885 510.651 630.65 502.377C624.515 505.65 618.35 508.902 611.921 511.524C600.308 516.249 587.834 518.892 575.303 519.252C572.738 519.33 570.14 519.297 567.566 519.09C561.617 518.61 555.8 517.179 550.868 513.927C543.905 509.343 539.507 501.573 537.464 493.485C537.356 493.038 537.245 492.591 537.149 492.144C541.787 492.111 546.416 492.123 551.042 492.123C557.033 492.123 563.201 492.102 568.745 489.831C575.402 487.113 580.37 481.503 584.963 475.98C607.85 448.455 627.692 418.473 650.852 391.176C659.975 380.424 669.734 370.023 680.21 360.519C685.874 328.485 685.589 295.404 679.37 263.481C679.133 263.46 678.902 263.448 678.662 263.439ZM845.924 350.994C835.991 338.322 826.421 325.347 815.396 313.623C805.823 303.429 795.194 294.228 783.746 286.218C773.279 278.883 762.005 272.499 749.759 268.809C734.927 264.333 719.396 263.985 703.799 263.919C709.814 288.051 711.722 313.209 709.43 337.983C717.287 332.985 725.519 328.575 734.141 324.93C742.316 321.48 753.701 319.647 758.426 327.156C761.219 331.599 760.163 337.362 758.864 342.459C753.692 362.859 746.303 382.701 736.862 401.517C729.713 415.782 721.244 432.087 725.216 446.865C734.789 438.864 744.392 430.92 754.061 423.051C784.235 398.469 814.982 374.61 845.924 350.994Z" fill="#E09881"/>
<path d="M755.105 493.128C754.658 490.977 752.168 490.029 750.029 489.516C742.247 487.662 734.27 486.711 726.281 486.078C716.48 485.313 706.625 485.04 696.791 485.259C706.985 481.56 716.327 475.545 723.914 467.808C725.126 466.563 726.338 465.222 726.839 463.551C727.34 461.892 726.938 459.828 725.465 458.901C723.914 457.92 721.886 458.496 720.161 459.129C714.017 461.367 707.936 463.8 701.957 466.419C695.966 469.026 690.071 471.822 684.275 474.789C675.206 479.406 666.386 484.416 657.884 489.741C657.851 489.753 657.809 489.762 657.776 489.774C657.056 494.826 656.642 499.935 656.522 505.044C656.141 521.841 658.955 538.713 664.862 554.454C665.003 554.313 665.135 554.16 665.276 554.016C678.83 553.896 692.399 553.776 705.953 553.656C706.718 553.644 707.492 553.644 708.266 553.623C710.591 553.602 712.925 553.536 715.241 553.395C721.898 552.981 728.459 551.868 734.231 548.658C735.923 547.731 737.648 546.411 737.963 544.512C738.302 542.514 736.85 540.549 735.038 539.634C733.586 538.902 731.948 538.674 730.313 538.566C729.908 538.545 729.506 538.521 729.101 538.5C719.801 538.053 710.504 537.594 701.204 537.147C712.499 536.493 723.839 535.836 734.996 533.982C736.676 533.709 738.347 533.403 740.015 533.064C740.255 533.019 740.483 532.965 740.723 532.911C742.589 532.518 744.467 531.993 746.039 530.913C747.797 529.689 749.105 527.583 748.766 525.456C748.571 524.223 747.848 523.152 746.867 522.345C746.354 521.919 745.775 521.559 745.163 521.286C743.417 520.521 741.464 520.368 739.541 520.248C728.201 519.561 716.807 519.834 705.509 521.079C720.494 516.834 737.543 521.199 751.415 514.116C753.041 513.288 754.745 512.097 755.051 510.306C755.357 508.494 754.046 506.715 752.411 505.887C750.764 505.056 748.865 504.96 747.02 504.882C732.221 504.228 717.422 503.583 702.611 502.938C718.295 502.773 734.174 502.599 749.357 498.669C752.213 497.931 755.717 496.02 755.105 493.128ZM1044.58 274.233C1043.74 267.084 1042.68 260.1 1041.09 253.311C1040.16 249.327 1039.05 245.409 1037.67 241.566C1035.34 234.996 1032.09 228.459 1026.64 224.103C1026.18 223.743 1025.69 223.383 1025.11 223.317C1023.09 223.077 1022.52 225.99 1022.78 228C1023.58 234.123 1024.59 240.213 1025.78 246.261C1024.68 240.837 1023.55 235.347 1021.17 230.337C1019.56 226.92 1017.28 223.713 1014.37 221.334C1013.02 220.23 1011.54 219.303 1009.91 218.616C1009.26 218.343 1008.52 218.091 1007.82 218.256C1005.69 218.724 1005.88 221.835 1006.71 223.854C1007.08 224.748 1007.46 225.645 1007.88 226.527C1011.03 233.445 1015.06 240.171 1015.5 247.722C1013.22 242.427 1010.57 237.21 1006.72 232.932C1005.76 231.861 1004.71 230.859 1003.6 229.941C1000.24 227.181 996.245 225.216 991.946 224.769C990.713 224.637 989.369 224.661 988.367 225.369C985.856 227.148 987.362 231.087 989.228 233.523C990.461 235.128 991.772 236.7 993.08 238.293C997.391 243.498 1001.65 248.802 1002.57 255.375C998.351 250.125 992.774 246.033 986.573 243.423C980.789 240.966 974.447 239.811 968.171 240.204C966.5 240.312 964.613 240.642 963.674 242.028C962.603 243.6 963.248 245.76 964.274 247.353C966.26 250.419 969.392 252.471 972.494 254.436C972.908 254.697 973.322 254.961 973.727 255.222C980.231 259.401 986.648 264.696 988.898 272.085C978.212 268.419 966.404 268.089 955.523 271.146C954.725 271.365 953.897 271.626 953.276 272.16C953.189 272.235 953.102 272.325 953.024 272.412C951.866 273.711 952.304 275.871 953.516 277.116C954.716 278.361 956.462 278.907 958.133 279.366C963.644 280.851 969.308 281.823 974.657 283.83C979.994 285.837 985.124 289.047 988.748 294.351C988.802 294.657 988.856 294.963 988.913 295.269C993.17 292.911 997.523 290.73 1001.96 288.711C1015.68 282.48 1030.16 277.872 1044.97 275.046C1044.85 274.767 1044.72 274.506 1044.58 274.233ZM673.466 262.926C670.826 262.488 668.27 261.714 666.098 260.175C663.959 258.657 662.486 256.725 661.469 254.523C650.327 256.761 638.048 253.629 629.273 246.24C619.244 237.804 613.883 224.565 614.036 211.446C620.027 225.198 634.424 235.02 649.55 236.637C652.541 236.952 655.541 236.985 658.52 236.757C672.95 235.656 686.852 228.396 697.091 217.974C709.436 205.413 716.867 188.679 720.872 171.522C724.856 154.431 725.642 136.761 726.263 119.22C714.248 122.451 700.856 120.354 692.33 111.492C690.191 116.055 684.047 117.45 679.211 116.022C674.375 114.582 670.478 111.09 666.527 107.967C658.799 101.856 649.784 96.6722 639.941 96.2552C628.502 95.7752 617.315 102.18 610.919 111.666C604.73 120.846 602.822 132.534 604.61 143.469L604.502 143.49C603.302 137.28 599.36 131.529 593.675 128.799C587.717 125.961 579.935 126.945 575.381 131.736C573.569 133.635 572.324 136.014 571.418 138.48C568.46 146.634 569.378 156.249 574.388 163.32C579.41 170.403 588.545 174.519 597.821 173.199C598.706 186.153 598.313 199.185 596.633 212.064C595.595 220.098 594.056 228.066 592.037 235.911C591.305 238.749 590.39 241.761 588.107 243.615C586.196 245.166 583.697 245.613 581.21 245.667C583.208 252.162 586.055 258.393 590.039 263.895C595.574 271.545 603.419 277.713 612.512 280.233C620.033 282.318 628.001 281.871 635.759 281.04C643.4 280.221 651.104 279.033 658.133 275.931C664.385 273.195 670.106 268.797 673.466 262.926Z" fill="#F49C6A"/>
<path d="M744.16 1107.95C744.238 1108.14 744.172 1108.36 744.109 1108.55C743.422 1110.61 742.738 1112.67 742.051 1114.72C743.458 1113.9 744.865 1113.08 746.272 1112.26C746.524 1112.11 746.794 1111.96 747.088 1111.97C747.394 1111.97 747.667 1112.15 747.916 1112.33C749.263 1113.28 750.547 1114.33 751.753 1115.46C751.576 1113.83 751.402 1112.19 751.228 1110.56C751.198 1110.27 751.171 1109.97 751.288 1109.71C751.42 1109.42 751.708 1109.24 751.981 1109.08C753.442 1108.2 754.9 1107.32 756.361 1106.45C754.789 1105.76 753.217 1105.08 751.645 1104.4C751.375 1104.28 751.093 1104.16 750.919 1103.92C750.787 1103.74 750.733 1103.52 750.679 1103.31C750.325 1101.86 749.971 1100.41 749.617 1098.96C748.423 1100.54 747.355 1102.21 746.431 1103.96C744.328 1104.21 742.033 1104.61 739.741 1105.01L743.785 1107.59C743.932 1107.68 744.091 1107.79 744.16 1107.95ZM756.415 1135.67C754.525 1134.77 752.518 1134.11 750.46 1133.72C749.995 1131.76 749.386 1129.84 748.642 1127.97C747.598 1129.88 746.557 1131.77 745.513 1133.68C742.93 1134.31 740.368 1135.07 737.806 1135.82C739.483 1137.04 741.364 1137.97 743.347 1138.57C742.699 1140.69 742.054 1142.82 741.409 1144.94C742.789 1144.07 744.172 1143.21 745.552 1142.34C745.879 1142.14 746.224 1141.93 746.611 1141.9C747.118 1141.86 747.592 1142.14 748.024 1142.4C749.569 1143.36 751.111 1144.32 752.656 1145.28C752.461 1143.08 751.984 1140.91 751.243 1138.84C753.085 1137.99 754.825 1136.93 756.415 1135.67ZM623.98 1131.55C623.524 1131.24 623.026 1130.93 622.822 1130.42C622.666 1130.03 622.705 1129.6 622.744 1129.19C622.978 1126.73 623.212 1124.28 623.446 1121.82C620.875 1124.34 618.559 1127.11 616.546 1130.09C614.323 1129.07 611.416 1128.66 608.524 1128.77C609.355 1129.94 610.186 1131.12 611.014 1132.3C611.242 1132.62 611.479 1132.97 611.464 1133.37C611.452 1133.67 611.299 1133.94 611.146 1134.19C609.886 1136.34 608.623 1138.48 607.363 1140.63C609.46 1139.72 611.56 1138.82 613.657 1137.92C614.197 1137.69 614.83 1137.46 615.346 1137.74C615.676 1137.91 615.874 1138.25 616.057 1138.58C617.551 1141.25 619.045 1143.91 620.542 1146.58C620.824 1143.65 621.106 1140.72 621.388 1137.78C621.433 1137.32 621.499 1136.81 621.838 1136.49C622.12 1136.23 622.522 1136.16 622.903 1136.1C624.673 1135.82 626.443 1135.54 628.21 1135.26C626.971 1133.84 625.543 1132.59 623.98 1131.55ZM614.986 1153.79C612.484 1155.97 609.985 1158.15 607.483 1160.33C605.731 1159.5 602.854 1159.2 600.037 1159.49L604.195 1164.11C604.537 1164.49 604.897 1164.91 604.909 1165.42C604.918 1165.84 604.693 1166.22 604.474 1166.57C603.457 1168.22 602.437 1169.86 601.42 1171.51C603.79 1170.95 606.076 1170.03 608.17 1168.79C608.527 1168.58 608.929 1168.35 609.334 1168.44C609.769 1168.53 610.036 1168.96 610.258 1169.34C611.578 1171.64 612.901 1173.95 614.221 1176.25C614.446 1173.02 614.671 1169.79 614.896 1166.56C617.173 1166.35 619.45 1166.14 621.727 1165.92C619.621 1164.13 617.182 1162.73 614.575 1161.8C614.962 1159.15 615.1 1156.46 614.986 1153.79Z" fill="#F9B232"/>
<path d="M687.017 157.494C685.58 157.53 684.173 158.046 683.075 158.964C684.434 154.29 686.18 149.715 688.28 145.332C688.412 145.059 688.295 144.735 688.025 144.603C687.755 144.471 687.428 144.588 687.299 144.858C684.728 150.225 682.682 155.868 681.218 161.634C681.146 161.916 681.311 162.207 681.59 162.291C681.872 162.375 682.166 162.225 682.262 161.949C682.943 159.999 684.932 158.586 686.999 158.586H687.014C689.084 158.592 691.076 160.02 691.745 161.982C692.711 164.814 690.893 167.85 688.691 169.269C686.561 170.64 683.678 171.174 680.123 170.859C679.817 170.832 679.559 171.054 679.532 171.354C679.505 171.654 679.727 171.918 680.027 171.945C680.72 172.005 681.389 172.038 682.034 172.038C684.938 172.038 687.371 171.417 689.285 170.187C692.285 168.255 693.788 164.577 692.78 161.631C691.961 159.24 689.537 157.503 687.017 157.494ZM712.952 145.359C712.541 144.918 711.851 144.894 711.41 145.305C709.952 146.664 707.759 147.222 705.827 146.727C703.895 146.232 702.242 144.687 701.615 142.794C701.426 142.221 700.808 141.912 700.235 142.101C699.662 142.29 699.353 142.908 699.542 143.481C700.397 146.064 702.65 148.17 705.284 148.845C705.923 149.007 706.58 149.088 707.243 149.088C709.31 149.088 711.392 148.311 712.901 146.907C713.336 146.49 713.363 145.8 712.952 145.359ZM648.653 137.61C649.202 137.691 649.763 137.733 650.336 137.733C652.847 137.733 655.58 136.944 658.487 135.378C659.018 135.093 659.216 134.43 658.931 133.899C658.646 133.368 657.983 133.17 657.452 133.455C654.308 135.15 651.455 135.822 648.977 135.45C646.505 135.078 643.676 133.179 643.304 130.389C643.223 129.792 642.68 129.378 642.077 129.453C641.48 129.534 641.06 130.083 641.141 130.68C641.66 134.571 645.314 137.109 648.653 137.61ZM667.343 188.988C661.73 188.724 655.961 186.183 651.095 181.836C647.099 178.269 643.604 173.463 640.406 167.148C640.271 166.878 639.941 166.77 639.674 166.908C639.404 167.043 639.299 167.373 639.434 167.64C642.695 174.078 646.271 178.986 650.369 182.649C655.421 187.164 661.43 189.801 667.292 190.077C667.301 190.077 667.31 190.077 667.319 190.077C667.61 190.077 667.85 189.849 667.865 189.558C667.877 189.258 667.643 189.003 667.343 188.988Z" fill="black"/>
<path d="M624.272 129.45C615.932 129.45 609.173 136.209 609.173 144.549C609.173 152.889 615.932 159.648 624.272 159.648C632.612 159.648 639.371 152.889 639.371 144.549C639.371 136.209 632.612 129.45 624.272 129.45ZM718.373 154.311C710.033 154.311 703.274 161.07 703.274 169.41C703.274 177.333 709.379 183.816 717.137 184.446C718.622 180.204 719.861 175.875 720.878 171.519C722.126 166.17 723.059 160.764 723.773 155.322C722.093 154.677 720.278 154.311 718.373 154.311Z" fill="#F78068"/>
<path d="M658.526 236.754C659.051 243.009 659.114 249.492 661.472 254.523C650.33 256.761 638.051 253.629 629.276 246.24C619.247 237.804 613.886 224.565 614.039 211.446C620.03 225.198 634.427 235.02 649.553 236.637C652.544 236.949 655.547 236.982 658.526 236.754Z" fill="#F78068"/>
<path d="M332.936 558.784C332.678 558.621 332.342 558.702 332.183 558.957C319.031 580.038 311.735 605.34 311.636 630.198C311.636 630.498 311.879 630.745 312.179 630.747C312.479 630.747 312.728 630.505 312.728 630.205C312.827 605.548 320.063 580.45 333.11 559.536C333.269 559.282 333.191 558.943 332.936 558.784ZM657.605 489.258C648.389 492.231 639.716 496.888 631.331 501.388L630.392 501.892C623.849 505.384 617.927 508.483 611.714 511.015C600.065 515.755 587.807 518.341 575.285 518.701C572.501 518.785 569.987 518.73 567.608 518.539C560.903 517.999 555.524 516.336 551.165 513.465C544.904 509.343 540.227 502.198 537.992 493.351C537.884 492.907 537.776 492.463 537.677 492.019C535.91 484.153 536.069 475.822 536.36 468.631C536.99 453.163 538.547 437.481 540.056 422.316C541.634 406.434 543.266 390.015 543.836 373.791C545.171 335.775 539.906 305.343 527.735 280.758C521.678 268.518 514.676 259.368 506.321 252.783C496.283 244.881 484.178 241.086 473.123 242.367C472.823 242.4 472.61 242.674 472.643 242.974C472.679 243.274 472.946 243.489 473.249 243.453C484.025 242.202 495.836 245.92 505.646 253.642C513.869 260.125 520.772 269.152 526.757 281.242C538.844 305.659 544.073 335.919 542.744 373.752C542.177 389.94 540.545 406.345 538.967 422.209C537.458 437.389 535.898 453.085 535.268 468.586C534.977 475.846 534.815 484.264 536.612 492.256C536.711 492.709 536.822 493.159 536.933 493.615C539.234 502.735 544.076 510.109 550.565 514.38C555.08 517.357 560.627 519.076 567.521 519.63C569.21 519.766 570.962 519.834 572.825 519.834C573.635 519.834 574.463 519.822 575.318 519.795C587.972 519.432 600.356 516.82 612.125 512.029C618.386 509.479 624.335 506.367 630.905 502.857L631.844 502.354C640.187 497.874 648.815 493.242 657.935 490.299C658.223 490.206 658.379 489.901 658.286 489.613C658.199 489.325 657.893 489.168 657.605 489.258ZM311.09 653.161C311.075 652.858 310.808 652.603 310.517 652.645C310.217 652.66 309.986 652.917 310.001 653.217C310.472 662.355 312.023 671.422 314.606 680.173C314.678 680.41 314.894 680.563 315.128 680.563C315.179 680.563 315.23 680.553 315.284 680.542C315.572 680.457 315.737 680.152 315.653 679.864C313.094 671.194 311.558 662.212 311.09 653.161ZM1074.19 321.966C1074.12 321.673 1073.83 321.49 1073.53 321.562C1073.24 321.631 1073.06 321.924 1073.13 322.218C1077.6 341.076 1078.89 360.427 1076.98 379.732C1076.95 380.032 1077.17 380.298 1077.47 380.328C1077.49 380.328 1077.51 380.332 1077.52 380.332C1077.8 380.332 1078.04 380.122 1078.07 379.84C1079.99 360.415 1078.69 340.941 1074.19 321.966ZM1076.53 398.088C1076.23 398.088 1075.98 398.335 1075.98 398.635C1076 408.021 1074.51 417.321 1071.56 426.285C1071.46 426.57 1071.62 426.88 1071.91 426.976C1071.96 426.994 1072.02 427.002 1072.08 427.002C1072.31 427.002 1072.52 426.855 1072.6 426.627C1075.58 417.555 1077.09 408.139 1077.08 398.635C1077.08 398.332 1076.83 398.088 1076.53 398.088ZM782.945 791.302C758 753.337 727.901 718.992 693.479 689.214C693.251 689.016 692.906 689.04 692.708 689.268C692.51 689.496 692.537 689.842 692.765 690.04C727.109 719.752 757.142 754.021 782.033 791.899C795.137 811.831 810.245 838.347 810.779 866.709C811.301 894.222 798.305 920.355 785.522 942.288C767.651 972.945 745.766 1004.09 716.645 1040.31C716.456 1040.54 716.495 1040.89 716.729 1041.08C716.831 1041.16 716.951 1041.2 717.071 1041.2C717.23 1041.2 717.389 1041.13 717.497 1040.99C746.651 1004.73 768.566 973.542 786.467 942.838C799.325 920.773 812.402 894.471 811.874 866.685C811.331 838.047 796.13 811.357 782.945 791.302Z" fill="black"/>
<path d="M1274.54 364.026C1270.04 365.172 1264.22 365.811 1261.72 361.893C1260.43 359.868 1260.53 357.192 1259.27 355.146C1256.98 351.444 1251.64 351.534 1247.34 352.23C1234.87 354.255 1222.62 357.669 1210.89 362.385C1206.95 363.969 1203.02 365.718 1198.82 366.378C1194.62 367.038 1190.03 366.474 1186.7 363.828C1184.74 362.262 1183.32 360.06 1181.26 358.623C1176.5 355.311 1170.03 356.961 1164.51 358.731C1147.52 364.179 1130.52 369.63 1113.53 375.078C1128.15 371.133 1142.58 368.223 1157.16 366.789C1163.3 366.186 1169.82 365.913 1175.3 368.76C1178.88 370.62 1181.72 373.683 1185.29 375.546C1194.77 380.481 1206.21 375.873 1215.8 371.157C1225.38 366.441 1236.6 361.545 1246.3 366.006C1252.13 368.685 1256.24 374.361 1262.21 376.686C1269.75 379.623 1278.17 376.554 1285.67 373.506C1304.12 366.009 1322.56 358.515 1341.01 351.018C1318.42 352.113 1296.46 358.455 1274.54 364.026ZM1143.99 308.235C1149.21 307.77 1152.88 313.395 1157.87 314.991C1161.65 316.2 1165.88 314.907 1169.09 312.576C1172.3 310.242 1174.7 306.981 1177.04 303.771C1180.95 298.404 1184.87 293.034 1188.78 287.667C1192 283.263 1196 278.424 1201.45 278.295C1207.81 278.142 1213.25 284.655 1219.51 283.497C1222.06 283.023 1224.2 281.319 1226.19 279.651C1245.92 263.169 1263.98 244.695 1280.01 224.601C1275.29 225.444 1271.07 227.985 1267.03 230.568C1254.58 238.527 1242.65 247.311 1231.36 256.848C1226.78 260.712 1221.59 264.951 1215.62 264.435C1212.33 264.15 1209.29 262.404 1206 262.125C1198.99 261.528 1193.32 267.447 1188.81 272.853C1181.64 281.445 1174.48 290.034 1167.31 298.626C1166.41 299.703 1165.45 300.825 1164.14 301.32C1159.91 302.904 1156.69 297.45 1152.74 295.275C1149.54 293.514 1145.47 294.024 1142.22 295.71C1138.98 297.396 1136.41 300.108 1133.97 302.829C1121.46 316.77 1110.73 332.187 1100.03 347.559C1111.93 335.127 1124.17 322.974 1137.28 311.856C1139.26 310.182 1141.42 308.463 1143.99 308.235ZM1173.36 198.711C1178.32 195.972 1184.26 195.216 1188.91 191.982C1196.25 186.876 1198.4 177.207 1200.73 168.57C1203.05 159.936 1207.22 150.351 1215.81 147.879C1218.86 147.003 1222.13 147.165 1225.18 146.304C1233.05 144.087 1237.44 135.942 1240.95 128.562C1246.53 116.865 1252.1 105.165 1257.68 93.4678C1244.11 103.551 1234.05 117.561 1224.82 131.715C1222.74 134.904 1219.67 138.558 1215.96 137.685C1213.87 137.19 1212.25 135.282 1210.1 135.081C1207.68 134.856 1205.68 136.866 1204.16 138.771C1196.61 148.236 1191.14 159.348 1188.24 171.102C1187.49 174.159 1186.88 177.309 1185.36 180.063C1183.83 182.817 1181.14 185.166 1178 185.31C1176.32 185.388 1174.68 184.845 1173 184.854C1168.82 184.875 1165.45 188.217 1162.97 191.583C1150.49 208.554 1148.39 230.805 1140.3 250.272C1146.73 236.238 1152.96 224.013 1160.37 212.553C1163.84 207.186 1167.77 201.807 1173.36 198.711Z" fill="#683B2B"/>
</svg>
