<svg width="1709" height="1543" viewBox="0 0 1709 1543" fill="none" xmlns="http://www.w3.org/2000/svg">
<path d="M1101.92 1183.55L1063.95 1178.86L1025.98 1174.16L1049.03 1143.63L1072.08 1113.09L1087 1148.32L1101.92 1183.55Z" fill="#683B2B"/>
<path d="M1012.56 1338.57C1012.56 1354.97 1009.82 1368.27 1006.43 1368.27C1003.05 1368.27 1000.31 1354.97 1000.31 1338.57C1000.31 1322.17 1003.05 1308.87 1006.43 1308.87C1009.81 1308.88 1012.56 1322.17 1012.56 1338.57Z" fill="#E09881"/>
<path d="M1006.43 1332.45C1022.83 1332.45 1036.13 1335.19 1036.13 1338.57C1036.13 1341.95 1022.84 1344.7 1006.43 1344.7C990.03 1344.7 976.734 1341.95 976.734 1338.57C976.734 1335.19 990.03 1332.45 1006.43 1332.45Z" fill="#E09881"/>
<path d="M598.879 874.162L27.6592 781.31L128.851 1542.08H704.395L598.879 874.162Z" fill="white"/>
<path d="M128.851 1542.08H98.8113L0.779297 815.662L27.6593 781.31L128.851 1542.08Z" fill="#E09881"/>
<path d="M13.855 798.947L111.459 1539.08" stroke="#A26D27" stroke-width="3.5904" stroke-miterlimit="10"/>
<path d="M95.2434 1289.41C110.143 1283.13 285.335 1309.19 413.959 1215.22C296.423 1174.47 269.811 1181.43 269.811 1181.43C269.811 1181.43 400.651 1053.35 407.303 926.518C272.027 919.438 123.199 932.71 56.7954 1000.37C87.5914 1231.89 95.2434 1289.41 95.2434 1289.41Z" fill="#321C14"/>
<path d="M87.5901 1231.89C87.5901 1231.89 310.338 1115.48 323.646 939.175C200.566 982.419 128.85 1048.95 128.85 1048.95C128.85 1048.95 200.566 905.911 187.262 839.379C110.754 839.379 48.1421 935.323 48.1421 935.323L87.5901 1231.89Z" fill="#683B2B"/>
<path d="M431.034 1149.5C441.849 1130.29 435.044 1105.95 415.834 1095.13C396.624 1084.32 372.283 1091.12 361.468 1110.33C350.653 1129.54 357.458 1153.88 376.668 1164.7C395.878 1175.51 420.218 1168.71 431.034 1149.5Z" fill="#321C14"/>
<path d="M141.191 1365.18C155.889 1365.18 167.803 1353.27 167.803 1338.57C167.803 1323.87 155.889 1311.96 141.191 1311.96C126.494 1311.96 114.579 1323.87 114.579 1338.57C114.579 1353.27 126.494 1365.18 141.191 1365.18Z" fill="#321C14"/>
<path d="M214.371 1542.08C214.371 1542.08 240.983 1340.03 396.215 1289.41C358.515 1358.53 366.023 1451.75 366.023 1451.75C366.023 1451.75 487.139 1347.44 500.443 1207.73C531.491 1413.97 473.831 1542.08 473.831 1542.08H214.371V1542.08Z" fill="#E09881"/>
<path d="M469.719 853.166C469.719 853.166 396.219 1030.45 478.271 1125.74C520.407 1096.85 544.799 979.314 544.799 979.314C544.799 979.314 542.611 1083.3 643.499 1156.6C598.879 874.162 598.879 874.162 598.879 874.162L469.719 853.166Z" fill="#E09838"/>
<path d="M576.182 1327.48C599.266 1327.48 617.978 1308.77 617.978 1285.69C617.978 1262.6 599.266 1243.89 576.182 1243.89C553.099 1243.89 534.386 1262.6 534.386 1285.69C534.386 1308.77 553.099 1327.48 576.182 1327.48Z" fill="#E09838"/>
<path d="M571.339 1431.75C571.339 1442.79 580.291 1451.75 591.335 1451.75C602.379 1451.75 611.331 1442.79 611.331 1431.75C611.331 1420.71 602.379 1411.75 591.335 1411.75C580.291 1411.75 571.339 1420.71 571.339 1431.75Z" fill="#E09838"/>
<path opacity="0.48" d="M473.835 1542.08H704.395L643.499 1156.6C637.307 1117.4 631.975 1083.66 627.383 1054.59L627.031 1052.36C625.819 1044.68 624.659 1037.35 623.551 1030.32L622.643 1024.58C618.667 999.419 615.359 978.467 612.603 961.019L611.075 951.351C610.687 948.895 610.311 946.507 609.947 944.207L609.699 942.639C609.287 940.043 608.899 937.563 608.519 935.159L607.675 929.827C607.547 929.027 607.423 928.243 607.303 927.467L605.947 918.891C605.711 917.391 605.479 915.943 605.259 914.543L604.487 909.651C604.043 906.843 603.639 904.279 603.263 901.899L602.067 894.327C601.923 893.411 601.783 892.531 601.651 891.695L601.403 890.123C600.979 887.443 600.627 885.211 600.335 883.359L600.075 881.711C599.979 881.115 599.895 880.571 599.815 880.067L599.667 879.135C599.567 878.499 599.479 877.943 599.403 877.463L599.323 876.967C599.227 876.363 599.155 875.891 599.095 875.519L598.935 874.499C598.923 874.431 598.915 874.375 598.907 874.331L598.899 874.279C598.883 874.167 598.883 874.163 598.883 874.163L238.759 815.623C238.759 815.623 154.291 1004.22 204.495 1085.31C254.695 1166.4 370.507 1104.91 370.507 1104.91L328.499 1542.08H473.835Z" fill="#3A0403"/>
<path d="M865.091 240.719C865.091 240.719 852.719 247.687 1005.66 328.895C1008.46 323.615 1011.26 318.335 1011.26 318.335C1011.26 318.335 1014.07 313.055 1016.87 307.775C863.935 226.567 865.091 240.719 865.091 240.719Z" fill="#E09881"/>
<path d="M698.778 328.531C698.778 328.531 755.09 323.331 814.15 396.123C873.21 468.915 896.558 502.443 896.558 502.443L1010.55 269.763L1119.06 335.691L969.518 683.535C950.882 726.883 893.534 736.195 862.138 700.971L712.842 533.467L698.778 328.531Z" fill="#E28E64"/>
<path d="M883.018 483.927C870.342 466.967 848.218 438.115 814.15 396.127C755.09 323.335 698.778 328.535 698.778 328.535L712.838 533.475L810.742 643.315C817.07 545.607 862.434 499.819 883.018 483.927Z" fill="#E09881"/>
<path d="M768.594 596.023L810.742 643.311C817.07 545.607 862.434 499.819 883.018 483.923C876.07 474.627 866.266 461.735 853.23 445.095C825.182 462.475 772.394 506.891 768.594 596.023Z" fill="#FEEDE4"/>
<path d="M763.194 349.459C739.274 365.691 720.046 393.887 705.274 423.227L712.838 533.471L728.118 550.615C730.162 440.915 783.446 403.579 810.434 391.695C793.998 372.283 777.87 358.803 763.194 349.459Z" fill="#FEEDE4"/>
<path d="M896.558 502.447L871.834 554.071" stroke="#91180C" stroke-width="4.236" stroke-miterlimit="10"/>
<path d="M932.266 630.987C893.742 630.987 862.426 661.511 860.982 699.679L862.134 700.971C893.526 736.195 950.878 726.879 969.514 683.535L983.002 652.163C970.062 639.095 952.114 630.987 932.266 630.987Z" fill="#CE744D"/>
<path d="M560.318 335.695L337.562 435.955C337.562 435.955 417.222 685.923 410.354 890.571C417.222 1001.82 448.938 959.243 448.938 959.243L775.694 893.315C775.694 893.315 730.37 466.955 698.782 328.531C560.318 335.695 560.318 335.695 560.318 335.695Z" fill="#E09881"/>
<path d="M713.178 404.587L418.214 502.447L415.294 569.707L721.314 456.267C718.59 438.135 715.87 420.799 713.178 404.587Z" fill="#FEEDE4"/>
<path d="M532.786 619.427L394.062 678.871C397.622 700.843 400.818 723.459 403.438 746.343L542.826 694.487L532.786 619.427Z" fill="#FEEDE4"/>
<path d="M421.238 398.291C421.238 398.291 482.686 469.035 501.686 585.719C548.154 574.215 548.154 574.215 548.154 574.215C548.154 574.215 515.962 429.219 462.01 379.939C421.238 398.291 421.238 398.291 421.238 398.291Z" fill="#321C14"/>
<path d="M499.926 557.251L712.838 478.455C726.078 473.555 740.442 482.163 742.322 496.155C759.686 625.323 832.002 1184.77 832.002 1542.08H373.27C373.27 1542.08 417.222 1069.12 425.462 937.267C468.358 857.975 486.526 770.071 473.85 597.871C472.538 580.039 483.158 563.455 499.926 557.251Z" fill="#45271C"/>
<path d="M475.822 926.739C475.822 926.739 441.026 1434.07 430.042 1542.08" stroke="#321C14" stroke-width="8.3172" stroke-miterlimit="10"/>
<path d="M712.838 478.455L681.774 329.411L645.202 331.303L679.022 490.971L712.838 478.455Z" fill="#321C14"/>
<path d="M632.814 331.943C560.374 335.691 560.318 335.691 560.318 335.691L482.098 370.899C491.854 385.163 522.106 417.023 589.362 397.499C623.998 387.167 631.606 353.459 632.814 331.943Z" fill="#E28E64"/>
<path d="M679.022 934.063C679.022 934.063 678.134 1095.22 661.218 1124.52C639.038 1148.32 639.038 1148.32 639.038 1148.32V918.331L679.022 934.063Z" fill="#321C14"/>
<path opacity="0.47" d="M590.278 1004.57C697.406 985.339 732.858 915.583 732.858 915.583L428.198 932.099C427.294 933.827 426.39 935.551 425.462 937.271C424.046 959.947 421.57 992.711 418.446 1031.42C463.514 1025.17 529.114 1015.54 590.278 1004.57Z" fill="#1B2C35"/>
<path d="M389.994 654.859C397.058 694.767 403.146 737.403 406.874 780.311C427.718 728.811 430.042 619.699 430.042 619.699L389.994 654.859Z" fill="#2C4C22"/>
<path d="M337.558 435.955C337.558 435.955 310.09 435.955 263.39 599.395C237.09 691.439 202.518 800.039 177.326 877.351C161.302 926.531 199.174 972.227 250.842 974.599C452.926 983.871 456.334 904.207 668.558 946.879C759.134 965.091 764.698 853.483 764.698 853.483L461.166 810.907L367.77 804.039L426.238 632.259C434.93 606.723 438.158 579.631 435.45 552.791C430.542 504.115 410.45 437.691 337.558 435.955Z" fill="#E28E64"/>
<path d="M233.518 699.987C269.65 692.091 330.446 689.199 391.994 732.895L426.246 632.263C434.938 606.727 438.166 579.635 435.458 552.795C430.542 504.111 410.45 437.691 337.562 435.955C337.562 435.955 310.094 435.955 263.394 599.395C254.198 631.583 243.982 665.799 233.518 699.987Z" fill="#E09881"/>
<path d="M410.774 677.715C355.894 636.151 289.102 638.171 250.294 644.307C244.854 662.663 239.23 681.315 233.514 699.991C269.646 692.095 330.442 689.203 391.99 732.899L410.774 677.715Z" fill="#FEEDE4"/>
<path d="M431.278 614.643C435.25 597.847 436.954 580.591 436.206 563.331C409.126 537.167 360.438 503.935 292.346 510.891C285.238 529.331 277.37 552.311 268.794 580.943C306.83 576.227 385.474 572.739 431.278 614.643Z" fill="#FEEDE4"/>
<path d="M703.586 542.275C714.585 542.275 723.502 533.358 723.502 522.359C723.502 511.36 714.585 502.443 703.586 502.443C692.587 502.443 683.67 511.36 683.67 522.359C683.67 533.358 692.587 542.275 703.586 542.275Z" fill="#FEEDE4"/>
<path d="M521.602 609.539C532.601 609.539 541.518 600.622 541.518 589.623C541.518 578.624 532.601 569.707 521.602 569.707C510.603 569.707 501.686 578.624 501.686 589.623C501.686 600.622 510.603 609.539 521.602 609.539Z" fill="#FEEDE4"/>
<path d="M284.862 967.247C284.862 909.343 240.622 861.791 184.102 856.503C181.79 863.643 179.514 870.655 177.33 877.355C161.306 926.535 199.162 976.635 250.846 974.603C261.602 974.179 272.962 973.723 284.698 973.235C284.802 971.251 284.862 969.255 284.862 967.247Z" fill="#CE744D"/>
<path d="M712.514 874.086C712.246 878.814 710.166 883.338 707.67 887.414C705.01 891.394 701.894 895.178 698.238 898.282C691.034 904.662 682.582 909.486 673.782 912.938C669.382 914.714 664.834 915.97 660.342 917.37C655.73 918.274 651.202 919.546 646.554 920.106C641.914 920.67 637.286 921.254 632.634 921.45C627.962 921.494 623.314 921.558 618.662 921.242C623.118 919.722 627.574 918.578 632.006 917.414L645.178 913.762L658.118 909.814C662.31 908.254 666.634 907.01 670.698 905.218L676.878 902.726L682.83 899.822C684.89 898.966 686.71 897.754 688.642 896.69C690.594 895.638 692.394 894.414 694.234 893.202C701.414 888.234 708.326 882.406 712.514 874.086Z" fill="#91180C"/>
<path d="M367.778 804.043C362.57 805.255 357.446 805.651 352.35 805.755C347.254 805.859 342.186 805.679 337.15 805.171C332.114 804.691 327.11 803.859 322.134 802.759C317.158 801.651 312.214 800.251 307.346 798.027C312.554 796.807 317.678 796.407 322.774 796.303C327.87 796.203 332.938 796.375 337.974 796.899C343.01 797.395 348.014 798.215 352.99 799.323C357.962 800.431 362.91 801.827 367.778 804.043Z" fill="#91180C"/>
<g opacity="0.39">
<path d="M543.578 630.987L702.566 581.543L719.346 708.435C721.75 726.607 710.738 743.875 693.25 749.363L606.11 776.719C583.598 783.787 560.198 768.679 557.37 745.255L543.578 630.987Z" fill="#FFF6E7"/>
<path d="M543.578 630.987L702.566 581.543L708.87 629.215L549.106 676.775L543.578 630.987Z" fill="#321C14"/>
</g>
<path d="M639.034 1148.32L625.054 1542.08" stroke="#321C14" stroke-width="8.3172" stroke-miterlimit="10"/>
<path opacity="0.49" d="M430.038 808.619C430.038 808.619 400.738 864.475 492.758 890.571C553.398 907.767 661.098 918.203 740.522 923.187C762.45 898.855 764.706 853.487 764.706 853.487L461.174 810.911L430.038 808.619Z" fill="#590A06"/>
<path d="M890.206 819.151C873.226 793.063 783.242 773.151 674.734 773.151C566.226 773.151 476.242 793.063 459.262 819.151H456.338V828.091C456.338 858.431 554.118 883.031 674.734 883.031C795.35 883.031 893.13 858.435 893.13 828.091V819.151H890.206Z" fill="#A0875A"/>
<path d="M674.734 874.091C795.351 874.091 893.13 849.494 893.13 819.151C893.13 788.808 795.351 764.211 674.734 764.211C554.117 764.211 456.338 788.808 456.338 819.151C456.338 849.494 554.117 874.091 674.734 874.091Z" fill="#EFD195"/>
<path d="M625.654 838.543C625.654 845.623 608.438 851.363 587.198 851.363C565.958 851.363 548.742 845.623 548.742 838.543C548.742 831.463 565.958 825.723 587.198 825.723C608.434 825.723 625.654 831.459 625.654 838.543Z" fill="#E09881"/>
<path d="M699.67 860.391C720.909 860.391 738.126 854.651 738.126 847.571C738.126 840.491 720.909 834.751 699.67 834.751C678.431 834.751 661.214 840.491 661.214 847.571C661.214 854.651 678.431 860.391 699.67 860.391Z" fill="#E09838"/>
<path d="M811.11 843.855C832.349 843.855 849.566 838.115 849.566 831.035C849.566 823.955 832.349 818.215 811.11 818.215C789.871 818.215 772.654 823.955 772.654 831.035C772.654 838.115 789.871 843.855 811.11 843.855Z" fill="#321C14"/>
<path d="M759.526 810.847C780.765 810.847 797.982 805.107 797.982 798.027C797.982 790.947 780.765 785.207 759.526 785.207C738.287 785.207 721.07 790.947 721.07 798.027C721.07 805.107 738.287 810.847 759.526 810.847Z" fill="#321C14"/>
<path d="M664.11 805.651C685.349 805.651 702.566 799.911 702.566 792.831C702.566 785.75 685.349 780.011 664.11 780.011C642.871 780.011 625.654 785.75 625.654 792.831C625.654 799.911 642.871 805.651 664.11 805.651Z" fill="#FEEDE4"/>
<path d="M520.686 802.211C520.686 802.211 537.626 751.851 562.346 741.779C587.066 731.707 581.118 763.755 575.166 782.983C569.214 802.211 568.298 811.827 568.298 811.827C568.298 811.827 539.994 818.691 520.686 802.211Z" fill="#E28E64"/>
<path d="M482.098 370.899C482.098 370.899 510.566 419.963 582.01 399.459C639.034 384.447 632.814 331.943 632.814 331.943" stroke="#FEEDE4" stroke-width="8.3172" stroke-miterlimit="10"/>
<path d="M430.038 619.699C430.038 619.699 465.29 451.063 337.558 435.955" stroke="#321C14" stroke-width="4.1584" stroke-miterlimit="10"/>
<path d="M698.778 328.531L724.398 477.067" stroke="#321C14" stroke-width="4.1584" stroke-miterlimit="10"/>
<path d="M639.034 1148.32C639.034 1148.32 675.602 1110.32 721.182 1110.32C766.762 1110.32 768.138 1117.19 717.318 1132.3C666.502 1147.41 695.754 1146.03 726.45 1159.77C757.15 1173.5 639.034 1148.32 639.034 1148.32Z" fill="#321C14"/>
<path d="M641.994 1148.32C641.994 1148.32 595.058 1093.84 525.01 1097.96C454.966 1102.08 641.994 1148.32 641.994 1148.32Z" fill="#321C14"/>
<path opacity="0.43" d="M1119.06 335.691L1034.53 284.331L1000.55 290.175L917.898 458.887C908.386 528.723 898.534 641.843 918.998 721.931C940.206 719.023 959.958 705.771 969.514 683.535L1119.06 335.691Z" fill="#844036"/>
<path d="M466.115 194.142C466.115 194.142 451.427 115.038 463.911 96.5659C448.487 79.5659 433.799 66.3459 466.115 75.8939C466.851 51.6579 476.399 37.7019 482.271 47.9859C488.147 58.2699 488.147 67.0819 488.147 67.0819C488.147 67.0819 546.171 -1.2221 605.659 0.981901C665.151 3.1859 607.495 41.3779 607.495 41.3779C607.495 41.3779 676.167 28.1579 707.747 41.3779C739.331 54.5979 726.843 80.3059 704.075 88.3819C741.531 114.09 740.063 154.802 656.335 153.174C608.595 128.778 520.459 227.93 520.459 227.93L513.851 289.626C513.851 289.626 482.271 247.022 466.115 194.142Z" fill="#651D13"/>
<path opacity="0.7" d="M704.078 88.3789C726.846 80.2989 739.334 54.5949 707.75 41.3749C676.17 28.1549 607.498 41.3749 607.498 41.3749C607.498 41.3749 665.154 3.18289 605.662 0.97889C597.966 0.69489 590.302 1.60688 582.778 3.37888C584.998 18.3749 575.43 41.6749 534.102 67.8109C601.402 40.3429 638.942 62.7749 597.414 71.4749C555.886 80.1749 531.062 124.843 531.062 124.843L670.218 153.019C740.082 150.059 739.338 112.579 704.078 88.3789Z" fill="#321C14"/>
<path d="M600.519 314.595L607.479 376.751C607.479 376.751 539.103 410.191 499.167 374.651C514.591 265.951 514.591 241.883 514.591 241.883L600.519 314.595Z" fill="#E28E64"/>
<path d="M606.54 368.356C548.224 333.152 539.788 284.404 539.164 262.68L600.52 314.6L606.54 368.356Z" fill="#561E12"/>
<path d="M639.418 97.951C650.57 99.779 659.738 107.631 663.438 118.311C668.382 132.583 674.594 155.079 673.23 175.047C671.026 207.363 672.142 236.007 673.422 264.651C674.702 293.295 639.446 333.691 604.926 330.019C570.406 326.347 512.386 255.103 505.774 238.947C487.414 246.291 460.238 237.479 455.83 224.259C451.422 211.039 454.362 188.271 466.114 181.659C477.866 175.047 498.43 178.719 504.306 203.691C509.446 219.851 525.606 208.831 521.934 194.879C518.262 180.923 512.386 140.531 535.154 120.699C553.998 104.283 605.554 92.395 639.418 97.951Z" fill="#E28E64"/>
<path d="M554.982 199.371C554.982 207.127 566.986 213.411 581.79 213.411C596.594 213.411 608.598 207.123 608.598 199.371C608.598 191.619 596.598 185.331 581.79 185.331C566.986 185.331 554.982 191.615 554.982 199.371Z" fill="#EFEEE4"/>
<path d="M554.982 199.371C554.982 207.127 566.986 213.411 581.79 213.411C596.594 213.411 608.598 207.123 608.598 199.371C608.598 191.619 596.598 185.331 581.79 185.331C566.986 185.331 554.982 191.615 554.982 199.371Z" fill="#EFEEE4"/>
<path d="M629.898 199.371C629.898 205.671 639.65 210.779 651.678 210.779C663.706 210.779 673.458 205.671 673.458 199.371C673.458 193.071 663.706 187.963 651.678 187.963C639.65 187.963 629.898 193.071 629.898 199.371Z" fill="#EFEEE4"/>
<path d="M596.186 147.143C598.666 150.391 597.23 155.111 593.33 156.339C582.266 159.823 561.05 167.787 551.842 179.891C539.098 196.643 534.446 169.867 544.738 156.151C554.046 143.747 581.446 127.863 596.186 147.143Z" fill="#651D13"/>
<path d="M630.446 196.895C630.338 197.715 630.198 198.523 630.198 199.371C630.198 200.219 630.342 201.027 630.446 201.847C632.61 206.951 641.278 210.775 651.678 210.775C657.518 210.775 662.79 209.555 666.698 207.599C667.89 205.095 668.614 202.327 668.614 199.371C668.614 196.415 667.89 193.643 666.698 191.143C662.786 189.183 657.514 187.967 651.678 187.967C641.278 187.963 632.61 191.787 630.446 196.895Z" fill="#651D13"/>
<path d="M643.402 152.207C649.062 141.351 659.43 138.767 669.766 140.231C671.678 148.595 673.114 157.631 673.374 166.487C664.03 163.343 654.222 161.643 647.79 160.779C643.738 160.239 641.514 155.831 643.402 152.207Z" fill="#651D13"/>
<path opacity="0.53" d="M550.578 236.743C550.578 243.843 560.69 249.595 573.162 249.595C585.634 249.595 595.746 243.839 595.746 236.743C595.746 229.643 585.634 223.891 573.162 223.891C560.69 223.891 550.578 229.643 550.578 236.743Z" fill="#56330D"/>
<path opacity="0.53" d="M672.074 224.039C672.202 232.639 672.462 241.103 672.79 249.503C661.534 248.771 652.786 243.343 652.786 236.739C652.786 230.283 661.166 224.951 672.074 224.039Z" fill="#56330D"/>
<path d="M492.554 222.419C492.554 229.491 490.31 236.031 486.53 241.407C472.39 240.199 458.834 233.255 455.834 224.255C452.546 214.391 453.354 199.219 458.85 189.399C459.07 189.395 459.286 189.367 459.506 189.367C477.758 189.367 492.554 204.167 492.554 222.419Z" fill="#BC6944"/>
<path d="M673.458 199.371C673.018 197.143 671.694 195.399 669.93 194.231C668.238 192.991 666.278 192.143 664.274 191.471C660.242 190.163 655.946 189.639 651.678 189.635C647.41 189.643 643.118 190.167 639.086 191.475C637.082 192.147 635.126 192.999 633.434 194.235C631.67 195.399 630.342 197.143 629.902 199.371C629.554 197.095 630.742 194.719 632.342 193.019C633.986 191.303 636.006 190.015 638.13 189.055C642.394 187.087 647.066 186.367 651.678 186.299C656.29 186.371 660.966 187.091 665.226 189.059C667.35 190.019 669.37 191.307 671.014 193.023C672.614 194.719 673.802 197.095 673.458 199.371Z" fill="#49110C"/>
<path d="M644.539 267.351C635.347 267.303 616.743 266.659 598.863 262.743C596.223 262.163 594.619 265.475 596.699 267.199C610.615 278.727 632.879 282.871 646.071 271.907C647.919 270.375 646.939 267.363 644.539 267.351Z" fill="#FFF0D7"/>
<path d="M554.982 199.371C554.982 207.127 566.986 213.411 581.79 213.411C587.326 213.411 592.47 212.531 596.742 211.027C598.618 207.559 599.682 203.591 599.682 199.371C599.682 195.151 598.618 191.183 596.742 187.715C592.47 186.207 587.326 185.331 581.79 185.331C566.986 185.331 554.982 191.615 554.982 199.371Z" fill="#651D13"/>
<path d="M631.735 189.367C631.735 189.367 641.651 222.419 643.487 241.515C645.323 260.611 624.391 252.163 617.779 249.963C615.207 212.139 617.779 190.103 617.779 190.103L631.735 189.367Z" fill="#E28E64"/>
<path d="M631.734 189.367C634.666 196.087 637.126 202.995 639.114 210.047C641.146 217.091 642.73 224.275 643.694 231.623C644.102 235.307 644.398 239.031 644.206 242.847C644.106 244.747 643.834 246.687 643.306 248.635C642.794 250.539 641.818 252.715 639.726 254.103C638.69 254.767 637.442 255.075 636.298 255.055C635.198 255.071 634.41 254.927 633.454 254.847C631.618 254.639 629.786 254.391 627.962 254.071C626.146 253.691 624.334 253.271 622.566 252.691C620.85 252.083 618.93 251.455 617.778 249.955C620.846 251.867 624.662 251.823 628.194 252.047C629.994 252.115 631.79 252.151 633.594 252.127C634.454 252.079 635.49 252.155 636.202 252.055C636.882 251.995 637.438 251.783 637.902 251.419C639.758 249.863 640.266 246.035 640.274 242.691C640.334 239.223 640.034 235.667 639.57 232.123C638.722 225.019 637.342 217.915 635.97 210.799L631.734 189.367Z" fill="#933131"/>
<path d="M608.598 199.371C608.15 196.623 606.53 194.403 604.378 192.903C602.318 191.303 599.906 190.167 597.41 189.347C592.406 187.695 587.086 187.003 581.79 186.995C576.494 187.003 571.174 187.699 566.17 189.351C563.674 190.175 561.258 191.303 559.202 192.907C557.05 194.403 555.43 196.623 554.978 199.371C554.638 196.575 556.122 193.723 558.106 191.691C560.154 189.655 562.642 188.159 565.222 186.967C570.43 184.587 576.146 183.747 581.782 183.663C587.418 183.751 593.134 184.591 598.342 186.971C600.922 188.163 603.414 189.655 605.458 191.695C607.454 193.723 608.934 196.575 608.598 199.371Z" fill="#49110C"/>
<path d="M568.814 201.739C571.043 201.739 572.85 199.932 572.85 197.703C572.85 195.474 571.043 193.667 568.814 193.667C566.585 193.667 564.778 195.474 564.778 197.703C564.778 199.932 566.585 201.739 568.814 201.739Z" fill="#FFF0D7"/>
<path d="M651.072 197.702C651.072 199.93 649.264 201.738 647.036 201.738C644.808 201.738 643 199.93 643 197.702C643 195.474 644.808 193.666 647.036 193.666C649.264 193.666 651.072 195.474 651.072 197.702Z" fill="#FFF0D7"/>
<path opacity="0.26" d="M673.23 175.047C674.594 155.079 668.382 132.583 663.438 118.311C659.738 107.631 650.57 99.7828 639.418 97.9508C605.554 92.3948 553.998 104.279 535.154 120.695C533.666 121.991 532.314 123.383 531.062 124.843C529.826 174.011 534.302 318.163 628.386 326.223C653.718 315.723 674.41 286.711 673.426 264.651C672.146 236.007 671.03 207.363 673.23 175.047Z" fill="#F49C6A"/>
<path d="M1578.25 990.83H1047.18V1037.91H1578.25V990.83Z" fill="#56330D"/>
<path d="M1007.81 70.0977L963.858 990.83L1686.29 998.866L1708.27 111.818L1007.81 70.0977Z" fill="#E09881"/>
<path opacity="0.27" d="M1334.11 538.961L1309.99 994.681L1359.41 996.326L1334.11 538.961Z" fill="#56330D"/>
<path opacity="0.27" d="M1329.2 209.866H1309.99L1311.15 485.882L1343.85 473.094L1329.2 209.866Z" fill="#56330D"/>
<path opacity="0.27" d="M1379.08 565.461L1448.26 996.217L1492.17 996.706L1379.08 565.461Z" fill="#56330D"/>
<path opacity="0.27" d="M1330 365.758L1180.29 993.238L1231.45 993.806L1330 365.758Z" fill="#56330D"/>
<path d="M1007.81 70.0977L975.758 91.5176L928.146 990.83H963.858L1007.81 70.0977Z" fill="#EFD195"/>
<path d="M1329.2 209.866L1336.06 1541.97H1407.94L1368.57 209.866H1329.2Z" fill="#321C14"/>
<path d="M1362.16 344.638L1673.48 1542.08H1607.55L1362.16 493.334V344.638Z" fill="#321C14"/>
<path d="M1343.85 493.333L1188.19 1542.08H1119.06L1336.06 331.941L1343.85 493.333Z" fill="#321C14"/>
<path d="M1211.99 1163.87H1550.78L1558.11 1201.43L1201.01 1208.37L1211.99 1163.87Z" fill="#321C14"/>
<path d="M1379.08 565.466L1373.89 389.738L1401.55 496.166L1420.22 741.474L1379.08 565.466Z" fill="#56330D"/>
<path d="M1330 365.758L1330.75 581.542L1305.05 754.682L1305.49 502.446L1330 365.758Z" fill="#56330D"/>
<path d="M1334.11 1163.87H1317.91V1205.78H1334.11V1163.87Z" fill="#56330D"/>
<path d="M1519.05 1163.87L1527.98 1202.01H1510.49L1498.13 1163.87H1519.05Z" fill="#56330D"/>
<path d="M987.934 83.3818L944.63 990.83" stroke="#A26D27" stroke-width="4.4476" stroke-miterlimit="10"/>
<path opacity="0.11" d="M1605.06 298.233C1628.84 393.353 1462.38 269.765 1462.38 269.765C1462.38 269.765 1455.48 561.677 1692.19 760.965L1708.27 111.817L1491 98.8774C1527.76 146.713 1588.76 233.021 1605.06 298.233Z" fill="#56330D"/>
<path opacity="0.11" d="M1095.12 166.486C1095.12 166.486 1216.54 359.002 1229.81 462.05C1243.08 565.094 1097.76 343.878 1095.12 166.486Z" fill="#56330D"/>
</svg>
