<svg width="154" height="144" viewBox="0 0 154 144" fill="none" xmlns="http://www.w3.org/2000/svg">
<path d="M40.7869 1.235C40.6182 1.40376 40.5 1.67375 40.5 1.82563C40.5 1.9775 40.4325 2.12938 40.365 2.18C40.0275 2.3825 37.1925 8.35625 36.585 10.1281C36.3994 10.685 36.18 11.2081 36.1125 11.3094C36.045 11.3938 35.8594 11.9338 35.6907 12.4906C35.5219 13.0475 35.2857 13.6888 35.1675 13.925C34.8807 14.5156 34.425 16.0344 34.425 16.4394C34.425 16.625 34.3575 16.8106 34.2732 16.8613C34.1888 16.9119 34.0707 17.165 34.02 17.4181C33.9525 17.6881 33.8007 18.2619 33.6657 18.7344C33.0919 20.7594 32.4 23.78 32.4 24.2525C32.4 24.5225 32.3325 24.8938 32.2313 25.0625C31.995 25.5013 31.5394 28.6231 31.3538 31.1375C31.1175 33.9388 31.1344 41.2456 31.3538 43.4562C31.5225 45.1775 31.9613 47.8269 32.1638 48.35C32.2144 48.485 32.3325 48.9744 32.4 49.4469C32.6025 50.6113 32.8725 51.7081 33.1425 52.4C33.2775 52.7206 33.48 53.3281 33.5982 53.75C33.885 54.7962 34.6782 56.7875 35.4375 58.3906C35.7919 59.1331 36.2475 60.1119 36.4669 60.5844C37.26 62.2887 39.4032 65.6806 41.1582 68.0094C43.1157 70.6081 47.8238 75.8394 48.8532 76.5819C49.2244 76.8519 50.5069 77.7969 51.7219 78.6912C52.92 79.5856 55.0294 81.0537 56.4132 81.9819C57.7969 82.91 58.9613 83.7875 58.995 83.9394C59.0457 84.0912 59.1638 84.3444 59.2482 84.4962C59.3325 84.665 59.4 85.0025 59.4 85.2556C59.4 85.5256 59.5013 85.9137 59.6194 86.15C59.7375 86.3862 59.9907 86.9937 60.1594 87.5C60.4632 88.4281 61.5263 91.0606 61.7794 91.55C61.8469 91.685 62.0494 92.1069 62.2013 92.4781C62.37 92.8494 62.6738 93.4231 62.8594 93.7437C63.0619 94.0644 63.2813 94.52 63.3657 94.7394C63.6188 95.5494 66.6057 100.308 68.2425 102.519C69.9807 104.864 74.7732 109.927 76.95 111.732C78.4013 112.931 81.81 115.512 81.945 115.512C81.9957 115.512 82.6538 115.934 83.3963 116.441C84.1388 116.947 84.8138 117.369 84.8982 117.369C85.0332 117.369 83.1938 114.162 82.7382 113.639C81.9113 112.661 76.6125 101.658 76.6125 100.916C76.6125 100.797 76.3932 100.207 76.1063 99.5994C75.8363 98.975 75.6 98.3169 75.6 98.1144C75.6 97.9287 75.4988 97.5237 75.3638 97.2369C74.8238 96.0556 74.5875 95.3637 74.5875 94.9925C74.5875 94.7731 74.4357 94.3006 74.25 93.9631C74.0644 93.6087 73.9125 93.1869 73.9125 93.0012C73.9125 92.8156 73.845 92.4444 73.7607 92.1575C72.9844 89.5925 72.5625 87.8712 72.5625 87.1962C72.5625 86.9431 72.4444 86.3694 72.3094 85.9137C71.955 84.7494 71.7019 83.2812 71.55 81.5937C71.4825 80.8006 71.28 79.2481 71.1113 78.1344C70.6725 75.215 70.6725 63.4531 71.1113 60.3312C71.28 59.1669 71.4825 57.7325 71.55 57.125C71.7525 55.64 71.9888 54.1719 72.225 53.1594C72.3263 52.6869 72.4782 51.9275 72.5457 51.4719C72.7819 50.0881 73.035 48.9744 73.2544 48.4344C73.3557 48.1475 73.5075 47.6244 73.575 47.2531C73.7269 46.4094 75.3469 41.2962 75.5157 41.1275C75.5663 41.06 77.9963 40.9587 80.8819 40.8913C86.0288 40.79 88.2394 40.6212 89.775 40.25C90.1969 40.1488 90.9563 39.9969 91.4625 39.9125C93.6057 39.5413 94.1119 39.44 94.8375 39.1869C96.1875 38.7312 96.795 38.5625 97.1663 38.5625C97.3688 38.5625 97.8582 38.4106 98.2463 38.2419C98.6513 38.0563 99.3094 37.82 99.7313 37.7188C100.153 37.6006 100.761 37.3981 101.081 37.2631C101.402 37.1281 102.094 36.875 102.6 36.7063C103.106 36.5375 103.933 36.1831 104.423 35.9469C105.705 35.2887 105.958 35.4069 106.718 36.9931C107.055 37.7188 107.409 38.4444 107.511 38.5963C107.595 38.765 107.663 39.0181 107.663 39.1531C107.663 39.305 107.781 39.6594 107.949 39.9631C108.236 40.52 108.371 40.9587 108.776 42.7644C108.911 43.3719 109.08 43.9287 109.164 44.03C109.316 44.2156 109.418 44.7219 109.688 46.6625C109.772 47.27 109.924 48.2487 110.025 48.8562C110.633 52.4675 111.139 64.1956 110.717 64.8706C110.599 65.0562 110.363 65.0225 109.401 64.6512C108.776 64.415 108.135 64.2125 108 64.2125C107.848 64.2125 107.595 64.1112 107.409 63.9762C107.224 63.8581 106.616 63.6219 106.059 63.47C105.503 63.3181 104.828 63.0987 104.541 63.0144C103.494 62.6431 102.313 62.3225 101.588 62.1875C101.166 62.1031 100.035 61.8331 99.0563 61.5969C96.5419 60.9725 95.2257 60.7025 94.1625 60.6012C93.6563 60.5506 92.7113 60.4325 92.0532 60.3312C89.9269 60.0444 84.2063 60.1287 81.8775 60.5C80.73 60.6687 79.7007 60.8881 79.5994 60.9725C79.4813 61.0569 79.1269 61.175 78.8063 61.2256C77.8275 61.3606 76.2075 61.85 75.87 62.1031C75.6675 62.255 75.4819 62.795 75.2963 63.74C75.06 64.8875 75.0094 66.3387 75.0094 71.6375C75.0094 77.3581 75.0432 78.2525 75.3132 79.0962C75.465 79.6194 75.6 80.3281 75.6 80.6994C75.6 81.4081 76.005 83.315 76.3763 84.3781C76.5113 84.7662 76.6125 85.205 76.6125 85.3906C76.6125 85.7281 76.815 86.4031 77.2875 87.7531C77.4563 88.2087 77.7263 89.0862 77.895 89.66C78.0638 90.2506 78.3844 90.9256 78.6038 91.1619C78.9582 91.55 79.0763 91.5837 79.785 91.4825C82.35 91.0944 83.9532 90.7569 84.5269 90.47C84.7969 90.3181 85.1344 90.2 85.2694 90.2C85.4044 90.2 85.6913 90.0481 85.9107 89.8794L86.3157 89.5587L85.9782 88.9006C85.8094 88.5462 85.5563 88.1412 85.4382 88.0062C85.32 87.8544 84.8307 86.9431 84.3244 85.9812C83.835 85.0025 83.3288 84.0575 83.2275 83.8719C81.9619 81.6106 79.65 75.5862 79.65 74.5569C79.65 74.3712 79.4982 73.7806 79.3125 73.2406C79.0257 72.3969 78.975 71.8231 78.975 69.0725C78.975 65.6975 79.1269 64.8875 79.785 64.8875C80.1057 64.8875 81.7594 65.5119 82.6032 65.9506C82.89 66.1025 83.565 66.305 84.1219 66.4231C84.6788 66.5412 85.3707 66.7437 85.6407 66.8787C86.2313 67.1825 87.0919 67.385 88.5094 67.5875C89.0663 67.655 89.7413 67.8069 90.0282 67.9081C91.9519 68.6844 103.14 68.6844 105.587 67.9081C105.941 67.8069 106.684 67.655 107.241 67.5875C108.338 67.4356 110.278 67.0306 111.156 66.7269C111.544 66.6087 111.746 66.4062 111.831 66.1025C112.05 65.2925 111.983 45.0762 111.763 43.1188C111.139 37.7525 110.666 35.39 109.62 32.5888C109.013 30.9688 108.388 29.9563 108.017 29.9563C107.646 29.9563 104.608 31.0869 104.372 31.3231C104.288 31.4075 104.085 31.475 103.933 31.475C103.781 31.475 103.14 31.6944 102.499 31.9644C101.858 32.2344 100.879 32.5888 100.322 32.7406C99.765 32.8925 99.1238 33.095 98.8875 33.1963C98.6513 33.2975 98.1957 33.4325 97.875 33.5C97.5544 33.5844 96.5588 33.8037 95.6813 34.0062C93.69 34.4788 92.8294 34.6306 90.7032 34.9175C89.775 35.0525 88.6782 35.2381 88.2563 35.3394C87.7332 35.4744 85.8938 35.525 82.5188 35.4744C78.3338 35.4406 77.1863 35.3731 75.3469 35.0525C71.8032 34.445 70.065 34.04 69.3563 33.6687C69.1875 33.5675 68.9007 33.5 68.7319 33.5C67.8882 33.5 62.6738 31.205 59.1469 29.2981L58.1513 28.7412L57.7632 29.1969C57.5438 29.4331 57.375 29.7369 57.375 29.8719C57.375 29.99 57.2063 30.4625 57.0207 30.9181C56.6663 31.7113 56.3288 32.8587 56.025 34.3269C55.9238 34.7319 55.7888 35.1537 55.7044 35.255C55.4682 35.5419 55.1475 37.5163 54.6075 41.9375C54.4557 43.1019 54.27 44.6544 54.1688 45.4137C54.0844 46.1562 54 48.1813 54 49.9194V53.075H50.7769H47.5538L47.6382 52.265C47.79 50.9656 48.0263 49.6831 48.3132 48.5187C48.465 47.9112 48.6675 46.9662 48.7688 46.4094C48.8869 45.8525 49.0894 44.9412 49.2244 44.3844C49.5282 43.2369 49.7307 42.275 49.95 40.925C50.0344 40.4187 50.2538 39.305 50.4563 38.4781C50.6588 37.6344 50.8782 36.5375 50.9625 36.0312C51.2494 34.31 51.435 33.4156 51.6544 32.9094C51.7725 32.6225 51.9244 31.9812 51.9919 31.475C52.245 29.6694 52.4475 28.6906 52.6669 28.1844C52.785 27.8975 52.9369 27.2225 53.0213 26.6656C53.1057 26.1087 53.2069 25.3831 53.2575 25.0456L53.3588 24.4212L55.7044 24.3031C58.2357 24.185 63.7369 24.3369 64.5469 24.5563C65.0025 24.6744 66.7238 25.0456 68.5969 25.4C69.6938 25.6025 74.0813 27.1719 75.2625 27.7794C75.5832 27.9481 76.6463 28.4544 77.625 28.9269C78.6038 29.3994 79.9707 30.1588 80.6457 30.6312C81.3207 31.0869 81.9113 31.475 81.9619 31.475C82.0125 31.475 82.6538 31.9306 83.3963 32.4875C84.1219 33.0444 84.7969 33.5 84.8813 33.5C84.9488 33.5 85.05 33.3819 85.1175 33.2469C85.1682 33.1119 85.2694 27.0031 85.32 19.6794L85.4382 6.38187L79.8863 6.26375C76.8319 6.19625 73.9632 6.06125 73.5075 5.97688C73.0519 5.8925 71.5669 5.825 70.1832 5.825C68.8163 5.825 67.3313 5.74062 66.8757 5.65625C66.4369 5.555 64.8169 5.3525 63.2813 5.2175C61.7457 5.06563 59.8219 4.88 58.9782 4.8125C57.5944 4.67751 54.27 4.205 51.975 3.8C51.4688 3.71563 50.625 3.58063 50.1188 3.47938C49.6125 3.395 48.8532 3.20937 48.4313 3.07438C48.0094 2.93938 47.3344 2.77063 46.9125 2.72C45.5625 2.55125 44.6513 2.33188 44.0438 2.07875C43.7232 1.92688 43.0313 1.67375 42.525 1.52187C42.0188 1.35313 41.5294 1.15063 41.445 1.08313C41.2088 0.863754 41.0907 0.897499 40.7869 1.235ZM66.9094 62.1369C67.635 62.2381 67.9219 62.3394 67.9219 62.525C67.9219 62.66 67.77 62.795 67.5844 62.8287C67.3988 62.8625 66.6225 63.1156 65.8463 63.3856C65.07 63.6556 64.2938 63.875 64.1082 63.875C63.5344 63.875 59.0625 65.9169 57.7632 66.7775C57.375 67.0475 57.0207 67.25 56.9532 67.25C56.7844 67.25 53.2744 69.8825 52.92 70.2706C52.3632 70.8781 51.8907 70.7094 50.5407 69.4775C49.8657 68.8531 49.0725 68.1781 48.7857 67.9587C47.1994 66.7606 48.2963 64.2125 50.3888 64.2125C50.6082 64.2125 50.9288 64.145 51.0975 64.0437C52.8863 63.0481 53.73 62.8287 57.1557 62.5081C58.2019 62.4237 59.3325 62.2381 59.6869 62.1031C60.3788 61.85 64.935 61.8669 66.9094 62.1369Z" fill="black"/>
<path d="M96.93 92.7481C96.66 93.035 96.1706 93.4231 95.85 93.6256C95.5294 93.8112 94.9725 94.2162 94.635 94.5369C94.0275 95.06 91.2431 96.95 91.0575 96.95C91.0069 96.95 90.72 97.1187 90.3994 97.3381C89.235 98.1312 84.9656 100.106 83.3625 100.595C82.8563 100.764 82.4006 100.916 82.3669 100.932C82.2825 101 84.2569 105.084 84.5944 105.522C84.7125 105.674 84.8813 105.641 85.3706 105.354C85.7081 105.151 86.13 104.898 86.3156 104.814C87.2944 104.291 89.0156 102.772 91.8844 99.9031C94.5506 97.2537 96.2044 95.1444 97.4025 92.9506C97.9088 92.0394 97.7063 91.9381 96.93 92.7481Z" fill="black"/>
<path d="M18.5625 101.152V101.624L14.6475 101.759C12.4875 101.827 8.69063 101.894 6.19313 101.911C3.7125 101.928 1.6875 101.979 1.6875 102.046C1.6875 102.131 1.56938 102.181 1.43438 102.181C1.29938 102.181 1.18125 102.097 1.18125 102.012C1.18125 101.911 1.04625 101.928 0.860625 102.046C0.6075 102.198 0.4725 102.198 0.27 102.029C0.03375 101.827 0 101.928 0 102.957C0 103.987 0.016875 104.071 0.23625 103.784C0.4725 103.464 0.489375 103.464 0.860625 103.784C1.06313 103.97 1.18125 104.021 1.11375 103.902C0.945 103.616 1.51875 103.413 1.6875 103.7C1.80563 103.886 1.87313 103.869 2.07563 103.666C2.34563 103.396 3.13875 103.362 14.0738 103.076L18.2756 102.974L18.1406 103.717C18.0731 104.122 17.955 104.797 17.8706 105.219C17.7863 105.641 17.6513 106.4 17.55 106.906C17.3813 107.919 16.8413 109.691 16.6556 109.876C16.5881 109.944 16.5375 109.167 16.5375 108.138C16.5375 105.944 16.3181 104.577 15.8963 104.274C15.5588 104.004 13.3819 103.987 7.54313 104.156L3.7125 104.257V105.877C3.7125 106.771 3.83063 111.496 3.9825 116.407C4.26937 125.148 4.26938 125.317 3.94875 125.536C3.645 125.756 3.645 125.823 3.88125 126.346C4.185 127.055 4.185 128.152 3.915 134.615C3.78 137.467 3.72938 139.88 3.79688 139.981C3.915 140.184 11.4413 140.217 11.7788 139.998C11.9306 139.914 11.8631 139.576 11.5594 138.716C11.3231 138.057 11.0531 137.382 10.935 137.197C10.8169 137.011 10.2769 135.948 9.70312 134.834C9.14625 133.721 8.53875 132.573 8.35313 132.303C6.58125 129.536 5.85563 128.506 5.67 128.506C5.55188 128.506 5.265 128.202 5.01188 127.831L4.57313 127.156H5.29875C5.97375 127.156 6.05813 127.207 6.86813 128.202C7.71188 129.282 8.89313 131.172 9.56813 132.556C10.26 133.957 11.3063 136.691 11.3063 137.062C11.3063 137.264 11.4244 137.551 11.5763 137.686C11.7113 137.838 11.7956 138.024 11.745 138.108C11.6944 138.176 11.8125 138.547 11.9981 138.901L12.3356 139.559L12.2175 138.041C12.0488 135.543 11.2388 132.421 9.72 128.439C9.48375 127.797 9.315 127.241 9.36563 127.19C9.41625 127.139 9.45 127.156 9.45 127.241C9.45 127.308 9.60188 127.173 9.7875 126.937C9.97313 126.701 10.125 126.397 10.125 126.262C10.125 125.891 9.315 125.3 8.79187 125.3C8.45438 125.283 8.67375 125.114 9.70312 124.574C12.9094 122.887 14.5631 121.537 16.2675 119.259C18.0562 116.846 19.2881 114.044 19.98 110.821C20.3175 109.336 20.655 105.117 20.5538 103.987C20.4188 102.721 20.4525 102.687 21.7013 102.687H22.7812V102.097V101.506H21.6675C20.7563 101.506 20.4694 101.439 20.0138 101.084C19.71 100.848 19.2544 100.662 19.0181 100.662C18.63 100.662 18.5625 100.73 18.5625 101.152Z" fill="black"/>
<path d="M138.037 101.962C137.7 102.384 137.683 102.569 137.751 105.202C137.869 109.944 138.409 113.673 139.286 115.546C139.59 116.221 140.029 117.2 140.248 117.706C140.805 119.039 141.598 120.136 143.167 121.723C144.298 122.87 144.804 123.241 146.053 123.849C146.897 124.254 147.859 124.642 148.213 124.709C149.023 124.861 149.023 125.182 148.264 126.836C147.369 128.759 146.357 131.594 145.952 133.198C145.378 135.594 144.973 138.631 145.226 138.631C145.311 138.631 145.581 138.041 145.834 137.315C146.087 136.606 146.492 135.442 146.728 134.75C147.757 131.797 148.162 130.852 148.972 129.603C149.074 129.418 149.242 129.114 149.327 128.911C149.563 128.388 151.251 126.616 152.027 126.059L152.719 125.587L152.736 121.183C152.736 118.769 152.82 115.833 152.887 114.669C153.427 106.569 153.529 104.966 153.478 104.864C153.427 104.814 151.453 104.713 149.057 104.645C146.661 104.594 144.096 104.493 143.353 104.443C141.379 104.291 141.277 104.409 141.041 106.906C140.957 107.969 140.872 109.1 140.856 109.404C140.839 110.113 140.687 109.91 140.366 108.763C139.843 106.889 139.725 106.198 139.725 105.067C139.725 102.958 139.269 101.506 138.611 101.506C138.493 101.506 138.24 101.709 138.037 101.962Z" fill="black"/>
<path d="M55.1306 116.474C54.8944 117.014 54.5737 118.061 54.4387 118.803C54 120.963 54.0337 120.912 53.6119 120.912C52.785 120.912 50.9625 120.423 50.2537 120.001C49.3087 119.461 49.0894 119.461 48.4481 120.001C47.6381 120.676 47.52 120.997 47.8744 121.621C48.2287 122.229 50.2706 123.629 51.435 124.034C53.325 124.709 53.19 124.608 53.0719 125.283C52.92 126.144 52.0931 128.81 51.4181 130.7C50.625 132.911 50.5744 133.062 50.76 133.062C50.9119 133.062 51.2831 132.489 52.4981 130.43C53.0381 129.502 53.9831 128.506 54.2362 128.607C54.3375 128.641 54.5906 128.219 54.81 127.578C55.1137 126.768 55.3331 126.431 55.6537 126.279C55.9237 126.144 56.1769 125.84 56.2612 125.519C56.3962 125.081 56.5312 124.962 57.0544 124.878C57.3919 124.811 58.0837 124.794 58.6069 124.827C59.6869 124.878 59.7206 124.777 58.1175 126.498C57.5437 127.122 56.97 127.831 56.8181 128.101C56.6831 128.371 56.295 129.08 55.9575 129.687C54.81 131.78 54.7425 133.383 55.755 134.159C56.9194 135.037 58.1344 134.936 59.8387 133.805L61.0031 133.046L61.1887 133.704C61.5431 134.885 61.8975 135.374 62.6569 135.746C63.585 136.201 64.5131 136.201 65.2387 135.746C65.8631 135.374 66.5887 135.408 67.2469 135.864C67.7194 136.201 67.8375 136.151 67.8375 135.611C67.8375 135.172 67.905 135.121 68.5969 135.02C69.0187 134.952 69.3562 134.885 69.3731 134.868C69.3731 134.851 69.4406 134.075 69.5081 133.147C69.5925 132.117 69.7612 131.189 69.9469 130.784C70.1156 130.413 70.2675 130.025 70.2675 129.941C70.2844 129.839 70.4362 129.468 70.6219 129.114C70.9762 128.422 71.01 128.405 73.4906 127.595C73.9631 127.443 74.52 127.325 74.7562 127.325C74.9925 127.308 75.4819 127.173 75.8531 126.987C76.6462 126.599 77.1187 126.566 77.1187 126.886C77.1187 127.241 76.7644 127.443 75.9375 127.561C74.0981 127.848 72.765 128.219 72.1575 128.641C71.0944 129.367 71.28 129.502 72.495 128.911C73.1194 128.607 74.0981 128.287 74.655 128.186C75.2287 128.084 75.8531 127.949 76.0725 127.899C76.4269 127.797 76.3762 127.932 75.5831 129.569C74.1994 132.421 74.2669 133.737 75.8362 134.48C76.9837 135.02 78.3169 134.716 79.7175 133.586C80.0719 133.299 80.4262 133.062 80.5106 133.062C80.5781 133.062 80.6962 133.316 80.7469 133.619C80.9831 134.682 81.4725 135.374 82.2319 135.746C83.4469 136.336 84.4931 136.134 86.0794 135.037C86.3325 134.851 86.67 134.784 87.0581 134.851C87.615 134.919 87.75 134.851 88.7119 133.923C89.2856 133.366 90.18 132.32 90.72 131.594C92.34 129.367 94.0275 127.831 94.8712 127.831C95.2931 127.831 95.2594 128.017 94.5844 130.025C94.0106 131.746 93.4369 134.362 93.6056 134.615C93.8081 134.969 95.2762 134.514 96.4069 133.754C97.2 133.197 97.5037 132.657 98.1956 130.497C98.4825 129.603 98.55 128.928 98.55 127.325V125.3L97.7231 124.439C96.93 123.612 96.8456 123.579 96.2381 123.663C95.1919 123.832 92.9137 125.148 91.7494 126.245C91.0912 126.852 91.0069 126.65 91.5637 125.806C92.205 124.844 92.3231 123.461 91.8169 122.954C91.3444 122.482 91.2431 122.499 90.45 123.207C89.4544 124.119 86.94 129.215 85.8937 132.455C85.725 132.978 85.6575 133.062 85.4719 132.877C85.0669 132.438 84.7125 130.97 84.7125 129.738C84.7125 128.506 85.1006 126.734 85.725 125.013C86.2819 123.511 85.59 123.596 84.0544 125.216C83.16 126.177 82.0125 128.118 82.0125 128.675C82.0125 129.012 80.2575 130.734 79.3969 131.223C78.3337 131.831 77.9625 131.847 77.9625 131.291C77.9625 130.278 79.2112 128.709 80.9662 127.527C81.6244 127.072 82.0631 126.616 82.2656 126.194C82.4344 125.84 82.8225 125.249 83.1431 124.895C83.97 123.899 83.9025 123.612 82.8225 123.612C82.1644 123.612 81.6244 123.747 80.8312 124.136C79.8019 124.642 79.6331 124.659 77.9456 124.642C75.7856 124.591 74.5369 124.878 72.7312 125.823C72.0225 126.177 71.3981 126.481 71.3306 126.481C70.9931 126.481 71.5162 123.663 71.8706 123.528C72.2419 123.393 76.0894 123.089 79.0594 122.954L81.5906 122.853L80.2406 122.718C75.1444 122.212 74.2669 122.161 66.15 121.925C61.155 121.773 57.5944 121.52 57.375 121.301C57.3244 121.267 57.24 120.288 57.1894 119.157C57.105 117.402 57.0375 116.981 56.6831 116.339C56.0756 115.226 55.6706 115.259 55.1306 116.474ZM70.5375 124.136C69.255 125.232 69.0356 125.486 68.9344 126.009C68.5969 127.629 67.5337 130.784 66.9431 131.932C66.3019 133.197 66.2512 133.248 65.9812 132.944C65.4919 132.438 65.1375 131.054 65.1375 129.738C65.1375 128.557 65.745 125.958 66.4031 124.406C66.69 123.697 66.8081 123.663 69.2719 123.646L71.1281 123.629L70.5375 124.136ZM65.3062 124.119C65.3062 124.203 64.8844 124.743 64.3781 125.317C63.8044 125.958 63.1631 126.954 62.7075 127.899C62.1844 129.012 61.7456 129.654 61.1381 130.227C60.2775 131.021 59.1131 131.712 58.6406 131.712C58.2862 131.712 58.32 131.071 58.7081 130.16C59.0119 129.451 60.9019 127.494 61.29 127.494C61.6612 127.494 62.4206 126.785 62.7412 126.11C63.2475 125.064 64.3444 123.95 64.8844 123.95C65.1206 123.95 65.3062 124.017 65.3062 124.119Z" fill="black"/>
<path d="M116.927 118.499C116.167 119.208 116.083 119.36 116.167 119.799C116.302 120.44 116.674 120.997 117.197 121.351C117.602 121.604 117.636 121.604 118.311 121.014C118.716 120.676 119.222 120.322 119.475 120.204C119.728 120.102 120.049 119.799 120.201 119.529L120.471 119.056H119.981C119.239 119.056 118.716 118.752 118.513 118.196C118.412 117.926 118.192 117.706 118.041 117.706C117.889 117.706 117.382 118.061 116.927 118.499Z" fill="black"/>
<path d="M134.325 118.483C133.667 119.107 133.481 119.377 133.481 119.799C133.481 120.491 133.886 121.064 134.629 121.368C135.186 121.604 135.236 121.588 135.658 121.199C135.894 120.98 136.451 120.474 136.907 120.069C137.346 119.664 137.7 119.276 137.7 119.191C137.7 119.124 137.447 119.056 137.16 119.056C136.519 119.039 136.198 118.82 135.861 118.162C135.726 117.909 135.506 117.706 135.388 117.706C135.253 117.706 134.781 118.061 134.325 118.483Z" fill="black"/>
<path d="M30.0375 123.258C29.2613 124.068 26.5781 129.468 25.8863 131.577C25.6163 132.387 25.3294 133.062 25.2281 133.062C24.9581 133.062 24.435 131.223 24.3338 129.974C24.2831 129.198 24.3338 128.624 24.5194 128.118C24.6544 127.73 24.84 127.072 24.8906 126.65C24.9581 126.228 25.1944 125.519 25.4306 125.081C25.65 124.642 25.785 124.203 25.7344 124.119C25.245 123.342 23.1694 125.351 22.0219 127.713C21.2456 129.316 20.3344 130.379 19.0013 131.274C18.1406 131.847 17.7188 131.847 17.7188 131.291C17.7188 130.126 18.765 128.692 20.3513 127.662C21.0938 127.156 21.6506 126.633 22.0725 126.009C22.41 125.502 22.8319 124.878 22.9838 124.642C23.1525 124.406 23.2875 124.068 23.2875 123.882C23.2875 123.612 23.1863 123.579 22.2919 123.646C19.305 123.866 15.7275 127.376 14.5125 131.291C14.1581 132.489 14.1581 133.4 14.5631 133.872C14.9006 134.294 16.0144 134.75 16.7063 134.75C17.4656 134.75 18.63 134.227 19.6425 133.417C19.9969 133.13 20.3513 132.944 20.4356 132.995C20.52 133.046 20.5875 133.383 20.5875 133.737C20.5875 134.868 21.9881 136.1 23.2538 136.1C23.76 136.1 25.2113 135.459 25.9538 134.885C26.2744 134.649 26.4094 134.632 26.6625 134.784C27.3206 135.206 28.9406 133.856 30.3413 131.729C31.7588 129.552 33.615 127.831 34.5431 127.831C34.8638 127.831 34.8131 128.624 34.4419 129.434C34.2731 129.806 34.0369 130.531 33.9188 131.037C33.8006 131.544 33.6488 132.185 33.5644 132.455C33.3956 133.012 33.3619 134.092 33.5138 134.48C33.6319 134.784 34.1719 134.851 34.3406 134.581C34.3913 134.48 34.6613 134.412 34.9144 134.412C35.1675 134.412 35.5219 134.261 35.6906 134.075C35.8594 133.889 36.0788 133.737 36.1969 133.737C36.6019 133.737 36.9563 133.096 37.6144 131.122C38.2388 129.316 38.3063 128.928 38.3063 127.477C38.3063 125.722 38.1038 125.013 37.4119 124.254C36.4163 123.191 34.9481 123.562 32.2819 125.57C31.6069 126.076 31.0163 126.481 30.9656 126.481C30.915 126.481 31.0669 126.144 31.3031 125.756C31.8431 124.811 31.8938 123.444 31.3875 122.937C30.915 122.465 30.7463 122.516 30.0375 123.258ZM30.78 125.384C30.7125 125.519 30.645 125.637 30.6113 125.637C30.5775 125.637 30.5438 125.519 30.5438 125.384C30.5438 125.249 30.6113 125.131 30.7125 125.131C30.7969 125.131 30.8306 125.249 30.78 125.384Z" fill="black"/>
<path d="M119.61 123.174C118.851 123.95 117.652 126.228 116.016 129.941C115.577 130.953 114.75 133.822 114.75 134.362C114.75 135.037 114.902 135.138 115.526 134.817C115.83 134.649 116.032 134.632 116.066 134.733C116.319 135.509 118.513 133.754 119.947 131.628C120.319 131.071 120.96 130.261 121.382 129.839C122.192 128.996 123.795 127.831 124.166 127.831C124.419 127.831 124.369 128.084 123.694 130.278C123.052 132.387 122.85 133.299 122.85 134.092C122.85 134.767 122.867 134.784 123.322 134.682C123.576 134.632 124.048 134.531 124.369 134.463C124.689 134.412 125.061 134.21 125.179 134.041C125.297 133.872 125.499 133.737 125.634 133.737C126.056 133.737 126.512 133.062 126.816 131.999C126.967 131.426 127.288 130.379 127.507 129.688C128.047 128.017 127.997 125.84 127.423 124.895C126.9 124.068 126.276 123.613 125.651 123.613C124.976 123.613 122.732 124.743 121.466 125.739C120.926 126.144 120.487 126.448 120.487 126.397C120.487 126.363 120.673 126.043 120.909 125.705C121.517 124.794 121.517 123.444 120.892 122.954C120.302 122.499 120.268 122.499 119.61 123.174Z" fill="black"/>
<path d="M116.049 123.798C115.121 124.406 112.843 126.701 111.864 128.017C111.088 129.029 110.362 130.379 110.362 130.784C110.362 130.919 110.295 131.037 110.194 131.037C109.924 131.037 109.991 133.687 110.278 134.244C110.616 134.919 111.004 135.087 112.134 135.087C113.029 135.087 113.13 135.037 113.872 134.328L114.666 133.569L114.294 133.265C114.092 133.113 113.721 132.843 113.467 132.657C113.062 132.371 113.029 132.269 113.13 131.594C113.349 129.957 114.767 127.544 116.353 126.127C117.011 125.519 117.028 125.469 117.045 124.389C117.045 123.781 117.011 123.275 116.944 123.275C116.876 123.275 116.471 123.511 116.049 123.798Z" fill="black"/>
<path d="M132.823 124.22C131.304 125.384 130.849 125.891 128.874 128.591C128.031 129.721 127.238 131.763 127.238 132.759C127.238 134.176 128.132 135.087 129.549 135.087C130.646 135.087 130.984 134.936 131.439 134.176C131.929 133.4 131.895 133.282 131.136 132.911C130.106 132.371 130.039 131.915 130.764 130.211C131.355 128.827 132.199 127.578 133.414 126.279C134.274 125.384 134.325 125.266 134.325 124.473C134.325 124.001 134.325 123.562 134.342 123.494C134.376 123.157 133.937 123.359 132.823 124.22Z" fill="black"/>
<path d="M44.6175 124.355C42.4406 125.351 39.4368 127.713 38.745 128.996C38.07 130.261 38.1206 131.999 38.88 132.944C39.4031 133.586 40.8881 134.075 42.3731 134.075H43.5712L43.4531 134.531C43.2843 135.239 41.5462 137.416 40.4831 138.294C39.8756 138.766 38.88 139.323 37.7831 139.762C32.7206 141.804 30.0375 143.086 30.0375 143.424C30.0375 143.778 29.97 143.778 32.0794 143.103C33.9019 142.513 35.2519 142.378 36.2812 142.664C36.855 142.833 39.2175 142.445 39.69 142.108C39.8925 141.956 40.3144 141.838 40.6012 141.838C41.2762 141.838 43.6725 140.268 43.8918 139.694C43.9762 139.475 44.0943 139.306 44.1618 139.306C44.3981 139.306 45.5625 138.209 45.5625 137.99C45.5625 137.737 45.5793 137.737 44.9043 137.973C44.6175 138.074 44.1787 138.108 43.9256 138.058L43.4868 137.939L43.9593 137.45C44.2293 137.18 44.4993 136.994 44.5837 137.045C44.82 137.197 45.5962 136.606 45.495 136.353C45.3937 136.049 46.3218 135.088 46.71 135.088C46.8618 135.088 47.3344 134.699 47.7562 134.227C48.3131 133.586 48.5325 133.198 48.5494 132.742C48.5831 132.404 48.735 131.831 48.9206 131.459C49.5618 130.126 49.8319 128.793 49.9162 126.498L50.0006 124.237L48.8869 124.338C48.0093 124.423 47.7731 124.389 47.6887 124.203C47.5368 123.781 45.6468 123.883 44.6175 124.355ZM46.6425 125.941C46.4231 127.274 46.0687 128.203 45.3937 129.181C44.2125 130.919 43.74 131.375 43.1156 131.375C42.6093 131.375 42.5587 131.324 42.4575 130.784C42.3225 130.076 42.5925 128.996 43.1156 128.186C43.8918 126.971 46.2375 124.996 46.6087 125.233C46.6931 125.283 46.71 125.604 46.6425 125.941ZM47.9419 132.944C47.7731 133.096 47.7562 133.079 47.8575 132.843C47.9081 132.674 48.0093 132.59 48.06 132.641C48.1106 132.691 48.06 132.826 47.9419 132.944ZM47.5875 133.856C47.5875 133.94 47.385 134.176 47.1656 134.396C46.6931 134.834 46.575 134.548 47.0306 134.041C47.3175 133.738 47.5875 133.636 47.5875 133.856Z" fill="black"/>
<path d="M104.473 124.642C102.195 125.773 99.9675 127.578 99.0225 129.063C98.5669 129.772 98.5162 129.974 98.5837 130.835C98.685 132.219 99.3431 133.333 100.356 133.771C100.761 133.957 101.706 134.143 102.431 134.21L103.764 134.328L103.41 135.037C102.431 136.961 100.305 138.952 98.5162 139.627C94.7531 141.028 90.2812 143.103 90.2812 143.441C90.2812 143.795 90.45 143.761 92.2894 143.171C94.1962 142.563 95.2931 142.411 95.985 142.648C96.6094 142.867 99.3094 142.58 99.8494 142.243C100.052 142.108 100.389 142.006 100.575 142.006C101.317 142.006 104.119 140.251 104.119 139.779C104.119 139.61 104.287 139.391 104.507 139.289C105.165 138.918 105.975 138.209 105.975 137.973C105.975 137.838 105.874 137.788 105.688 137.872C105.283 138.024 103.781 138.193 103.781 138.091C103.781 137.855 104.642 137.113 104.912 137.113C105.418 137.113 106.009 136.606 105.924 136.252C105.874 136.049 106.026 135.763 106.414 135.425C106.734 135.155 106.987 134.784 106.987 134.598C106.987 134.109 107.595 133.603 108.051 133.687C108.557 133.788 108.759 133.518 109.012 132.388C109.131 131.881 109.316 131.341 109.434 131.206C109.552 131.071 109.704 130.649 109.772 130.278C109.839 129.907 109.974 129.181 110.059 128.675C110.16 128.169 110.244 126.988 110.261 126.059L110.278 124.372L109.806 124.321C109.536 124.288 109.097 124.338 108.81 124.439C108.354 124.608 108.219 124.574 107.916 124.288C107.291 123.697 106.093 123.832 104.473 124.642ZM106.819 126.819C106.616 127.781 105.283 130.008 104.372 130.903C103.747 131.527 102.988 131.544 102.836 130.936C102.684 130.363 102.87 129.131 103.191 128.506C103.612 127.696 105.418 125.857 106.194 125.486L106.903 125.131L106.971 125.503C106.987 125.722 106.937 126.313 106.819 126.819Z" fill="black"/>
<path d="M151.436 127.781C150.609 128.641 150.12 129.384 149.428 130.818C148.922 131.847 148.5 132.759 148.5 132.843C148.5 132.927 148.281 133.434 147.994 133.991C147.724 134.547 147.487 135.138 147.487 135.29C147.487 135.442 147.42 135.611 147.336 135.661C147.251 135.712 147.082 136.167 146.981 136.64C146.863 137.129 146.711 137.602 146.644 137.703C146.576 137.787 146.458 138.108 146.407 138.395L146.289 138.901H150.069H153.832L153.529 137.956C152.82 135.864 152.499 132.776 152.634 129.384C152.685 127.882 152.685 126.65 152.617 126.65C152.567 126.65 152.027 127.156 151.436 127.781Z" fill="black"/>
</svg>
